{
.appVersion = "3434";
.formatVersion = 3;
DisplayStrings = (
"",
"/euro"
);
axes = (
{
name = wght;
tag = wght;
}
);
customParameters = (
{
name = "Write lastChange";
value = 0;
},
{
name = "Use Typo Metrics";
value = 1;
},
{
name = fsType;
value = (
);
}
);
date = "2022-03-20 03:42:48 +0000";
familyName = "Edu SA Beginner";
featurePrefixes = (
{
automatic = 1;
code = "languagesystem DFLT dflt;
";
name = Languagesystems;
}
);
fontMaster = (
{
axesValues = (
400
);
customParameters = (
{
name = hheaAscender;
value = 1016;
},
{
name = hheaDescender;
value = -244;
},
{
name = hheaLineGap;
value = 0;
},
{
name = typoAscender;
value = 1016;
},
{
name = typoDescender;
value = -244;
},
{
name = typoLineGap;
value = 0;
},
{
name = winAscent;
value = 1129;
},
{
name = winDescent;
value = 368;
}
);
id = m01;
metricValues = (
{
pos = 772;
},
{
over = 5;
pos = 772;
},
{
over = 5;
pos = 675;
},
{
over = 5;
pos = 416;
},
{
over = -5;
},
{
over = -5;
pos = -356;
},
{
}
);
name = Regular;
stemValues = (
59,
55
);
userData = {
com.schriftgestaltung.Glyphs.layerLib.public.default = {
GSOffsetHorizontal = 15;
GSOffsetKeepCompatible = 1;
GSOffsetVertical = 10;
};
com.typemytype.robofont.segmentType = curve;
com.typemytype.robofont.smartSets.uniqueKey = "4714750416";
com.typesupply.metricsMachine4.groupColors = {
public.kern1.H_right = (
1,
0,
0,
0.25
);
public.kern1.O_right = (
1,
0,
0.76,
0.25
);
public.kern1.V_right = (
0,
1,
1,
0.25
);
public.kern1.colon_right = (
0.5,
0,
1,
0.25
);
public.kern1.hyphen_right = (
0,
0,
1,
0.25
);
public.kern1.n_right = (
1,
1,
0,
0.25
);
public.kern1.o_right = (
0,
1,
0,
0.25
);
public.kern1.period_right = (
1,
0,
1,
0.25
);
public.kern1.quote_right = (
1,
0,
0.5,
0.25
);
public.kern1.v_right = (
0,
0.5,
1,
0.25
);
public.kern2.H_left = (
0,
0.9,
0.92,
0.25
);
public.kern2.O_left = (
0,
0,
0.98,
0.25
);
public.kern2.V_left = (
0,
1,
0,
0.25
);
public.kern2.colon_left = (
1,
0,
1,
0.25
);
public.kern2.h_left = (
0.48,
0,
1,
0.25
);

glyphs = (
{
glyphname = A;
layers = (
{
layerId = m01;
shapes = (
{
closed = 1;
nodes = (
(28,15,o),
(34,29,qs),
(190,388,l),
(358,388,l),
(410,33,ls),
(412,19,o),
(423,-1,o),
(442,0,qs),
(459,2,o),
(469,24,o),
(467,40,qs),
(359,743,ls),
(357,756,o),
(345,772,o),
(328,772,qs),
(313,772,o),
(299,758,o),
(292,744,qs),
(-20,48,ls),
(-38,8,o),
(-8,0,qs),
(6,-4,o)
);
},
{
closed = 1;
nodes = (
(350,442,l),
(214,442,l),
(316,678,l)
);
}
);
userData = {
assembly = "NPUSHB[ ]	/* 32 values pushed */
24 1 3 0 1 76 0 3 0 2 1 3 2 104 0 0 0 14 77 0 1 1 24 1 78 20 19 22 37 4 7 26
CALL[ ]	/* CallFunction */";
};
vertWidth = 0;
width = 524;
},
{
layerId = "6F3CF9BF-DB96-4F2C-A4AA-F3DDDD8E5607";
shapes = (
{
closed = 1;
nodes = (
(70,13,o),
(79,36,qs),
(199,318,l),
(362,318,l),
(397,51,ls),
(405,-7,o),
(455,0,qs),
(478,3,o),
(497,37,o),
(493,63,qs),
(388,737,ls),
(384,772,o),
(338,772,qs),
(314,772,o),
(294,754,o),
(285,735,qs),
(-14,70,ls),
(-25,46,o),
(-9,9,o),
(10,1,qs),
(29,-5,o)
);
},
{
closed = 1;
nodes = (
(350,402,l),
(235,402,l),
(323,610,l)
);
}
);
userData = {
assembly = "PUSHB[ ]	/* 6 values pushed */
23 1 2 0 1 76
MPPEM[ ]	/* MeasurePixelPerEm */
PUSHB[ ]	/* 1 value pushed */
34
LT[ ]	/* LessThan */
IF[ ]	/* If */
NPUSHB[ ]	/* 16 values pushed */
0 0 0 14 77 0 1 1 2 95 0 2 2 17 1 78
ELSE[ ]	/* Else */
NPUSHB[ ]	/* 13 values pushed */
0 2 0 1 2 1 100 0 0 0 14 0 78
EIF[ ]	/* EndIf */
PUSHB[ ]	/* 6 values pushed */
20 24 38 3 7 25
CALL[ ]	/* CallFunction */";
};
vertWidth = 0;
width = 549;
}
);
note = A;
unicode = 65;
},
{
glyphname = Aacute;
layers = (
{
layerId = m01;
shapes = (
{
closed = 1;
nodes = (
(6,-4,o),
(28,15,o),
(34,29,qs),
(330,710,l),
(311,713,l),
(410,33,ls),
(412,19,o),
(423,-1,o),
(442,0,qs),
(459,2,o),
(469,24,o),
(467,40,qs),
(359,743,ls),
(357,756,o),
(345,772,o),
(328,772,qs),
(313,772,o),
(299,758,o),
(292,744,qs),
(-20,48,ls),
(-29,28,o),
(-21,4,o),
(-8,0,qs)
);
},
{
closed = 1;
nodes = (
(381,442,l),
(191,442,l),
(169,388,l),
(391,388,l)
);
},
{
closed = 1;
nodes = (
(329,830,o),
(325,823,o),
(325,819,qs),
(325,814,o),
(334,804,o),
(340,804,qs),
(343,804,o),
(349,807,o),
(350,809,qs),
(418,867,ls),
(422,871,o),
(425,880,o),
(425,882,qs),
(425,889,o),
(413,900,o),
(407,900,qs),
(401,900,o),
(394,895,q),
(330,831,ls)
);
}
);
userData = {
assembly = "NPUSHB[ ]	/* 47 values pushed */
38 1 3 1 1 76 0 0 1 0 133 0 3 5 1 4 2 3 4 104 0 1 1 14 77 0 2 2 24 2 78 43 43 43 46 43 46 45 44 34 33 27 25 36 6 7 23
CALL[ ]	/* CallFunction */";
};
vertWidth = 0;
width = 524;
},
{
layerId = "6F3CF9BF-DB96-4F2C-A4AA-F3DDDD8E5607";
shapes = (
{
closed = 1;
nodes = (
(70,13,o),
(79,36,qs),
(199,318,l),
(362,318,l),
(397,51,ls),
(405,-7,o),
(455,0,qs),
(478,3,o),
(497,37,o),
(493,63,qs),
(388,737,ls),
(384,772,o),
(338,772,qs),
(314,772,o),
(294,754,o),
(285,735,qs),
(-14,70,ls),
(-25,46,o),
(-9,9,o),
(10,1,qs),
(29,-5,o)
);
},
{
closed = 1;
nodes = (
(350,402,l),
(235,402,l),
(323,610,l)
);
},
{
closed = 1;
nodes = (
(319,835,o),
(314,826,o),
(314,820,qs),
(314,813,o),
(326,800,o),
(334,800,qs),
(338,800,o),
(347,804,o),
(348,807,qs),
(440,885,ls),
(446,891,o),
(450,903,o),
(450,906,qs),
(450,915,o),
(434,930,o),
(425,930,qs),
(417,930,o),
(408,923,q),
(321,836,ls)
);
}
);
userData = {
assembly = "PUSHB[ ]	/* 6 values pushed */
23 1 2 0 1 76
MPPEM[ ]	/* MeasurePixelPerEm */
PUSHB[ ]	/* 1 value pushed */
34
LT[ ]	/* LessThan */
IF[ ]	/* If */
NPUSHB[ ]	/* 16 values pushed */
0 0 0 14 77 0 1 1 2 95 0 2 2 17 1 78
ELSE[ ]	/* Else */
NPUSHB[ ]	/* 13 values pushed */
0 2 0 1 2 1 100 0 0 0 14 0 78
EIF[ ]	/* EndIf */
PUSHB[ ]	/* 6 values pushed */
20 24 38 3 7 25
CALL[ ]	/* CallFunction */";
};
vertWidth = 0;
width = 549;
}
);
note = Aacute;
unicode = 193;
},
{
glyphname = Amacron;
layers = (
{
layerId = m01;
shapes = (
{
closed = 1;
nodes = (
(438,810,o),
(458,825,o),
(458,838,qs),
(458,851,o),
(440,865,o),
(423,865,qs),
(247,865,ls),
(231,865,o),
(211,851,o),
(211,838,qs),
(211,825,o),
(229,810,o),
(245,810,qs),
(421,810,ls)
);
},
{
closed = 1;
nodes = (
(6,-4,o),
(28,15,o),
(34,29,qs),
(330,710,l),
(311,713,l),
(410,33,ls),
(412,19,o),
(423,-1,o),
(442,0,qs),
(459,2,o),
(469,24,o),
(467,40,qs),
(359,743,ls),
(357,756,o),
(345,772,o),
(328,772,qs),
(313,772,o),
(299,758,o),
(292,744,qs),
(-20,48,ls),
(-29,28,o),
(-21,4,o),
(-8,0,qs)
);
},
{
closed = 1;
nodes = (
(381,442,l),
(191,442,l),
(169,388,l),
(391,388,l)
);
}
);
userData = {
assembly = "NPUSHB[ ]	/* 58 values pushed */
32 1 4 2 1 76 0 1 6 1 0 2 1 0 103 0 4 7 1 5 3 4 5 104 0 2 2 14 77 0 3 3 24 3 78 37 37 1 0 37 40 37 40 39 38 28 27 21 19 8 5 0 13 1 12 8 7 22
CALL[ ]	/* CallFunction */";
};
vertWidth = 0;
width = 524;
},
{
layerId = "6F3CF9BF-DB96-4F2C-A4AA-F3DDDD8E5607";
shapes = (
{
closed = 1;
nodes = (
(70,13,o),
(79,36,qs),
(199,318,l),
(362,318,l),
(397,51,ls),
(405,-7,o),
(455,0,qs),
(478,3,o),
(497,37,o),
(493,63,qs),
(388,737,ls),
(384,772,o),
(338,772,qs),
(314,772,o),
(294,754,o),
(285,735,qs),
(-14,70,ls),
(-25,46,o),
(-9,9,o),
(10,1,qs),
(29,-5,o)
);
},
{
closed = 1;
nodes = (
(350,402,l),
(235,402,l),
(323,610,l)
);
},
{
closed = 1;
nodes = (
(475,804,o),
(499,822,o),
(499,838,qs),
(499,854,o),
(477,871,o),
(456,871,qs),
(242,871,ls),
(222,871,o),
(198,854,o),
(198,838,qs),
(198,822,o),
(220,804,o),
(239,804,qs),
(454,804,ls)
);
}
);
userData = {
assembly = "PUSHB[ ]	/* 6 values pushed */
23 1 2 0 1 76
MPPEM[ ]	/* MeasurePixelPerEm */
PUSHB[ ]	/* 1 value pushed */
34
LT[ ]	/* LessThan */
IF[ ]	/* If */
NPUSHB[ ]	/* 16 values pushed */
0 0 0 14 77 0 1 1 2 95 0 2 2 17 1 78
ELSE[ ]	/* Else */
NPUSHB[ ]	/* 13 values pushed */
0 2 0 1 2 1 100 0 0 0 14 0 78
EIF[ ]	/* EndIf */
PUSHB[ ]	/* 6 values pushed */
20 24 38 3 7 25
CALL[ ]	/* CallFunction */";
};
vertWidth = 0;
width = 549;
}
);
note = Amacron;
unicode = 256;
},
{
glyphname = Aring;
layers = (
{
layerId = m01;
shapes = (
{
closed = 1;
nodes = (
(6,-4,o),
(28,15,o),
(34,29,qs),
(330,710,l),
(311,713,l),
(410,33,ls),
(412,19,o),
(423,-1,o),
(442,0,qs),
(459,2,o),
(469,24,o),
(467,40,qs),
(359,743,ls),
(357,756,o),
(345,772,o),
(328,772,qs),
(313,772,o),
(299,758,o),
(292,744,qs),
(-20,48,ls),
(-29,28,o),
(-21,4,o),
(-8,0,qs)
);
},
{
closed = 1;
nodes = (
(381,442,l),
(191,442,l),
(169,388,l),
(391,388,l)
);
},
{
closed = 1;
nodes = (
(267,842,o),
(307,801,o),
(336,801,qs),
(365,801,o),
(406,842,o),
(406,870,qs),
(406,899,o),
(365,940,o),
(336,940,qs),
(307,940,o),
(267,899,o),
(267,870,qs)
);
},
{
closed = 1;
nodes = (
(309,882,o),
(325,898,o),
(336,898,qs),
(348,898,o),
(364,882,o),
(364,870,qs),
(364,859,o),
(348,843,o),
(336,843,qs),
(325,843,o),
(309,859,o),
(309,870,qs)
);
}
);
userData = {
assembly = "NPUSHB[ ]	/* 62 values pushed */
18 1 2 0 1 76 0 4 0 7 6 4 7 105 0 6 0 5 0 6 5 105 0 2 8 1 3 1 2 3 104 0 0 0 14 77 0 1 1 24 1 78 23 23 48 46 42 40 36 34 30 28 23 26 23 26 26 22 37 9 7 25
CALL[ ]	/* CallFunction */";
};
vertWidth = 0;
width = 524;
},
{
layerId = "6F3CF9BF-DB96-4F2C-A4AA-F3DDDD8E5607";
shapes = (
{
closed = 1;
nodes = (
(70,13,o),
(79,36,qs),
(199,318,l),
(362,318,l),
(397,51,ls),
(405,-7,o),
(455,0,qs),
(478,3,o),
(497,37,o),
(493,63,qs),
(388,737,ls),
(384,772,o),
(338,772,qs),
(314,772,o),
(294,754,o),
(285,735,qs),
(-14,70,ls),
(-25,46,o),
(-9,9,o),
(10,1,qs),
(29,-5,o)
);
},
{
closed = 1;
nodes = (
(350,402,l),
(235,402,l),
(323,610,l)
);
},
{
closed = 1;
nodes = (
(267,848,o),
(313,801,o),
(346,801,qs),
(379,801,o),
(426,848,o),
(426,880,qs),
(426,913,o),
(379,960,o),
(346,960,qs),
(313,960,o),
(267,913,o),
(267,880,qs)
);
},
{
closed = 1;
nodes = (
(315,894,o),
(333,912,o),
(346,912,qs),
(360,912,o),
(378,894,o),
(378,880,qs),
(378,867,o),
(360,849,o),
(346,849,qs),
(333,849,o),
(315,867,o),
(315,880,qs)
);
}
);
userData = {
assembly = "PUSHB[ ]	/* 6 values pushed */
23 1 2 0 1 76
MPPEM[ ]	/* MeasurePixelPerEm */
PUSHB[ ]	/* 1 value pushed */
34
LT[ ]	/* LessThan */
IF[ ]	/* If */
NPUSHB[ ]	/* 16 values pushed */
0 0 0 14 77 0 1 1 2 95 0 2 2 17 1 78
ELSE[ ]	/* Else */
NPUSHB[ ]	/* 13 values pushed */
0 2 0 1 2 1 100 0 0 0 14 0 78
EIF[ ]	/* EndIf */
PUSHB[ ]	/* 6 values pushed */
20 24 38 3 7 25
CALL[ ]	/* CallFunction */";
};
vertWidth = 0;
width = 549;
}
);
note = Aring;
unicode = 197;
},
{
glyphname = B;
layers = (
{
layerId = m01;
shapes = (
{
closed = 1;
nodes = (
(404,52,o),
(518,149,o),
(525,216,qs),
(533,289,o),
(444,388,o),
(357,410,q),
(425,427,o),
(494,478,o),
(520,541,o),
(525,575,qs),
(534,641,o),
(450,735,o),
(275,780,o),
(146,772,qs),
(116,770,o),
(113,740,qs),
(39,37,ls),
(38,22,o),
(55,0,o),
(68,0,qs),
(204,0,o)
);
},
{
closed = 1;
nodes = (
(406,689,o),
(471,621,o),
(466,580,qs),
(462,551,o),
(435,499,o),
(367,456,o),
(242,428,o),
(139,424,q),
(170,719,l),
(272,726,o)
);
},
{
closed = 1;
nodes = (
(270,57,o),
(101,55,q),
(134,372,l),
(241,381,o),
(393,348,o),
(471,276,o),
(466,225,qs),
(458,150,o)
);
}
);
userData = {
assembly = "NPUSHB[ ]	/* 59 values pushed */
14 1 4 2 3 1 0 4 2 76 6 1 3 3 1 97 0 1 1 14 77 0 2 2 23 77 0 4 4 0 98 5 1 0 0 15 0 78 21 21 1 0 37 36 21 30 21 30 23 22 7 5 0 20 1 20 7 7 22
CALL[ ]	/* CallFunction */";
};
vertWidth = 0;
width = 598;
},
{
layerId = "6F3CF9BF-DB96-4F2C-A4AA-F3DDDD8E5607";
shapes = (
{
closed = 1;
nodes = (
(437,52,o),
(556,149,o),
(563,216,qs),
(570,283,o),
(494,378,o),
(416,404,q),
(475,422,o),
(535,471,o),
(559,529,o),
(562,562,qs),
(575,673,o),
(371,785,o),
(169,772,qs),
(144,771,o),
(116,753,o),
(113,722,qs),
(42,56,ls),
(39,32,o),
(67,0,o),
(91,0,qs),
(230,0,o)
);
},
{
closed = 1;
nodes = (
(408,653,o),
(465,594,o),
(461,559,qs),
(458,535,o),
(434,492,o),
(376,458,o),
(269,434,o),
(181,429,q),
(207,679,l),
(292,684,o)
);
},
{
closed = 1;
nodes = (
(288,101,o),
(146,99,q),
(172,346,l),
(314,351,o),
(465,286,o),
(458,230,qs),
(451,173,o)
);
}
);
userData = {
assembly = "NPUSHB[ ]	/* 62 values pushed */
14 1 4 2 1 76 7 1 3 3 1 97 0 1 1 14 77 0 4 4 2 97 0 2 2 23 77 0 5 5 0 97 6 1 0 0 15 0 78 21 21 1 0 36 35 34 33 21 30 21 30 23 22 8 6 0 20 1 20 8 7 22
CALL[ ]	/* CallFunction */";
};
vertWidth = 0;
width = 636;
}
);
note = B;
unicode = 66;
},
{
glyphname = C;
layers = (
{
layerId = m01;
shapes = (
{
closed = 1;
nodes = (
(394,41,o),
(464,112,o),
(482,149,qs),
(494,172,o),
(495,199,o),
(480,207,qs),
(465,215,o),
(443,197,o),
(432,177,qs),
(417,148,o),
(364,88,o),
(289,49,o),
(241,49,qs),
(183,49,o),
(115,133,o),
(98,290,o),
(118,397,qs),
(136,497,o),
(207,643,o),
(303,723,o),
(360,723,qs),
(389,723,o),
(437,700,o),
(476,671,o),
(488,662,qs),
(497,655,o),
(526,649,o),
(537,662,qs),
(548,676,o),
(540,700,o),
(532,707,qs),
(516,722,o),
(469,755,o),
(403,778,o),
(356,778,qs),
(286,778,o),
(167,688,o),
(80,520,o),
(58,404,qs),
(34,278,o),
(63,94,o),
(164,-6,o),
(246,-6,qs),
(300,-6,o)
);
}
);
userData = {
assembly = "NPUSHB[ ]	/* 37 values pushed */
0 2 2 1 97 0 1 1 14 77 0 3 3 0 97 4 1 0 0 21 0 78 1 0 31 29 23 21 9 7 0 43 1 43 5 7 22
CALL[ ]	/* CallFunction */";
};
vertWidth = 0;
width = 570;
},
{
layerId = "6F3CF9BF-DB96-4F2C-A4AA-F3DDDD8E5607";
shapes = (
{
closed = 1;
nodes = (
(432,37,o),
(507,104,o),
(527,141,qs),
(545,174,o),
(531,222,o),
(512,233,qs),
(491,243,o),
(457,227,o),
(446,205,qs),
(432,176,o),
(383,121,o),
(313,86,o),
(267,86,qs),
(195,86,o),
(139,242,o),
(161,394,qs),
(179,530,o),
(295,685,o),
(388,685,qs),
(412,685,o),
(459,665,o),
(498,639,o),
(510,630,qs),
(527,619,o),
(565,623,o),
(578,644,qs),
(592,668,o),
(579,709,o),
(564,720,qs),
(549,732,o),
(492,759,o),
(420,778,o),
(381,778,qs),
(251,778,o),
(85,586,o),
(57,406,qs),
(37,281,o),
(71,96,o),
(178,-6,o),
(267,-6,qs),
(328,-6,o)
);
}
);
userData = {
assembly = "NPUSHB[ ]	/* 37 values pushed */
0 2 2 1 97 0 1 1 14 77 0 3 3 0 97 4 1 0 0 21 0 78 1 0 28 26 22 20 8 6 0 40 1 40 5 7 22
CALL[ ]	/* CallFunction */";
};
vertWidth = 0;
width = 615;
}
);
note = C;
unicode = 67;
},
{
glyphname = D;
layers = (
{
layerId = m01;
shapes = (
{
closed = 1;
nodes = (
(322,0,o),
(517,215,o),
(538,404,qs),
(551,515,o),
(480,680,o),
(327,772,o),
(215,772,qs),
(149,772,ls),
(129,772,o),
(116,754,o),
(114,740,qs),
(39,32,ls),
(38,19,o),
(53,0,o),
(69,0,qs),
(145,0,ls)
);
},
{
closed = 1;
nodes = (
(223,718,ls),
(312,718,o),
(434,639,o),
(490,499,o),
(480,409,qs),
(461,238,o),
(296,55,o),
(141,55,qs),
(101,55,l),
(171,718,l)
);
}
);
userData = {
assembly = "NPUSHB[ ]	/* 37 values pushed */
0 3 3 1 97 0 1 1 14 77 0 2 2 0 95 4 1 0 0 15 0 78 1 0 25 23 18 16 9 6 0 15 1 14 5 7 22
CALL[ ]	/* CallFunction */";
};
vertWidth = 0;
width = 590;
},
{
layerId = "6F3CF9BF-DB96-4F2C-A4AA-F3DDDD8E5607";
shapes = (
{
closed = 1;
nodes = (
(293,0,o),
(463,97,o),
(566,277,o),
(579,400,qs),
(591,511,o),
(515,679,o),
(356,772,o),
(243,772,qs),
(164,772,ls),
(138,772,o),
(115,749,o),
(113,728,qs),
(41,51,ls),
(39,30,o),
(67,0,o),
(91,0,qs),
(177,0,ls)
);
},
{
closed = 1;
nodes = (
(235,681,ls),
(358,681,o),
(492,539,o),
(479,405,qs),
(464,251,o),
(306,92,o),
(171,92,qs),
(149,92,l),
(211,681,l)
);
}
);
userData = {
assembly = "NPUSHB[ ]	/* 37 values pushed */
0 3 3 1 95 0 1 1 14 77 0 2 2 0 95 4 1 0 0 15 0 78 1 0 25 23 19 17 9 6 0 16 1 15 5 7 22
CALL[ ]	/* CallFunction */";
};
vertWidth = 0;
width = 632;
}
);
note = D;
unicode = 68;
},
{
color = 6;
glyphname = Dcroat;
kernLeft = H_left;
kernRight = O_right;
layers = (
{
layerId = m01;
shapes = (
{
closed = 1;
nodes = (
(145,0,ls),
(381,0,o),
(510,152,o),
(538,404,cs),
(563,625,o),
(438,772,o),
(215,772,cs),
(149,772,ls),
(122,772,o),
(116,759,o),
(114,740,cs),
(39,32,ls),
(37,14,o),
(48,0,o),
(69,0,cs)
);
},
{
closed = 1;
nodes = (
(171,718,l),
(223,718,ls),
(400,718,o),
(500,589,o),
(480,409,cs),
(454,181,o),
(348,55,o),
(141,55,cs),
(101,55,l)
);
},
{
closed = 1;
nodes = (
(213,390,o),
(233,405,o),
(233,418,qs),
(233,431,o),
(215,445,o),
(198,445,qs),
(22,445,ls),
(6,445,o),
(-14,431,o),
(-14,418,qs),
(-14,405,o),
(4,390,o),
(20,390,qs),
(196,390,ls)
);
}
);
vertWidth = 0;
width = 590;
},
{
layerId = "6F3CF9BF-DB96-4F2C-A4AA-F3DDDD8E5607";
shapes = (
{
closed = 1;
nodes = (
(293,0,o),
(463,97,o),
(566,277,o),
(579,400,qs),
(591,511,o),
(515,679,o),
(356,772,o),
(243,772,qs),
(164,772,ls),
(138,772,o),
(115,749,o),
(113,728,qs),
(41,51,ls),
(39,30,o),
(67,0,o),
(91,0,qs),
(177,0,ls)
);
},
{
closed = 1;
nodes = (
(235,681,ls),
(358,681,o),
(492,539,o),
(479,405,qs),
(464,251,o),
(306,92,o),
(171,92,qs),
(149,92,l),
(211,681,l)
);
},
{
closed = 1;
nodes = (
(255,385,o),
(278,403,o),
(278,418,qs),
(278,433,o),
(257,450,o),
(237,450,qs),
(29,450,ls),
(10,450,o),
(-13,433,o),
(-13,418,qs),
(-13,403,o),
(8,385,o),
(27,385,qs),
(235,385,ls)
);
}
);
userData = {
assembly = "NPUSHB[ ]	/* 37 values pushed */
0 3 3 1 95 0 1 1 14 77 0 2 2 0 95 4 1 0 0 15 0 78 1 0 25 23 19 17 9 6 0 16 1 15 5 7 22
CALL[ ]	/* CallFunction */";
};
vertWidth = 0;
width = 632;
}
);
unicode = 272;
},
{
glyphname = E;
layers = (
{
layerId = m01;
shapes = (
{
closed = 1;
nodes = (
(460,0,o),
(474,18,o),
(474,29,qs),
(474,40,o),
(460,55,o),
(442,55,qs),
(102,55,l),
(137,388,l),
(453,388,ls),
(470,388,o),
(488,406,o),
(488,416,qs),
(488,427,o),
(473,443,o),
(455,443,qs),
(142,443,l),
(171,718,l),
(518,718,ls),
(536,718,o),
(550,735,o),
(550,745,qs),
(550,756,o),
(536,772,o),
(518,772,qs),
(149,772,ls),
(129,772,o),
(116,754,o),
(114,740,qs),
(39,32,ls),
(38,19,o),
(53,0,o),
(69,0,qs),
(442,0,ls)
);
}
);
userData = {
assembly = "NPUSHB[ ]	/* 49 values pushed */
0 3 0 4 5 3 4 103 0 2 2 1 95 0 1 1 14 77 0 5 5 0 95 6 1 0 0 15 0 78 1 0 27 25 24 22 18 16 15 13 9 6 0 32 1 31 7 7 22
CALL[ ]	/* CallFunction */";
};
vertWidth = 0;
width = 567;
},
{
layerId = "6F3CF9BF-DB96-4F2C-A4AA-F3DDDD8E5607";
shapes = (
{
closed = 1;
nodes = (
(497,0,o),
(522,33,o),
(522,53,qs),
(522,71,o),
(495,93,o),
(469,93,qs),
(149,93,l),
(176,354,l),
(478,354,ls),
(503,354,o),
(532,381,o),
(532,399,qs),
(532,419,o),
(502,443,o),
(478,443,qs),
(186,443,l),
(211,679,l),
(544,679,ls),
(568,679,o),
(595,707,o),
(595,727,qs),
(595,746,o),
(566,772,o),
(541,772,qs),
(166,772,ls),
(116,772,o),
(113,730,qs),
(41,52,ls),
(39,30,o),
(60,0,o),
(84,0,qs),
(473,0,ls)
);
}
);
userData = {
assembly = "NPUSHB[ ]	/* 49 values pushed */
0 3 0 4 5 3 4 103 0 2 2 1 95 0 1 1 14 77 0 5 5 0 95 6 1 0 0 15 0 78 1 0 26 24 23 21 17 15 14 12 8 5 0 31 1 30 7 7 22
CALL[ ]	/* CallFunction */";
};
vertWidth = 0;
width = 614;
}
);
note = E;
unicode = 69;
},
{
glyphname = F;
layers = (
{
layerId = m01;
shapes = (
{
closed = 1;
nodes = (
(98,21,o),
(99,30,qs),
(136,388,l),
(444,388,ls),
(462,388,o),
(478,406,o),
(478,416,qs),
(478,427,o),
(462,443,o),
(444,443,qs),
(142,443,l),
(171,718,l),
(518,718,ls),
(536,718,o),
(550,735,o),
(550,745,qs),
(550,756,o),
(536,772,o),
(518,772,qs),
(149,772,ls),
(129,772,o),
(116,754,o),
(114,740,qs),
(39,32,ls),
(38,19,o),
(53,0,o),
(69,0,qs),
(89,0,o)
);
}
);
userData = {
assembly = "NPUSHB[ ]	/* 42 values pushed */
0 3 0 4 0 3 4 103 0 2 2 1 95 0 1 1 14 77 5 1 0 0 15 0 78 1 0 24 22 18 16 15 13 9 6 0 27 1 27 6 7 22
CALL[ ]	/* CallFunction */";
};
vertWidth = 0;
width = 567;
},
{
layerId = "6F3CF9BF-DB96-4F2C-A4AA-F3DDDD8E5607";
shapes = (
{
closed = 1;
nodes = (
(143,31,o),
(145,53,qs),
(176,345,l),
(467,345,ls),
(492,345,o),
(516,372,o),
(516,390,qs),
(516,410,o),
(487,434,o),
(462,434,qs),
(185,434,l),
(211,679,l),
(533,679,ls),
(558,679,o),
(587,703,o),
(587,725,qs),
(587,746,o),
(558,772,o),
(533,772,qs),
(165,772,ls),
(139,772,o),
(115,751,o),
(113,729,qs),
(42,55,ls),
(39,34,o),
(61,0,o),
(84,0,qs),
(116,0,o)
);
}
);
userData = {
assembly = "MPPEM[ ]	/* MeasurePixelPerEm */
PUSHB[ ]	/* 1 value pushed */
27
LT[ ]	/* LessThan */
IF[ ]	/* If */
NPUSHB[ ]	/* 27 values pushed */
0 2 2 1 95 0 1 1 14 77 0 4 4 3 95 0 3 3 17 77 5 1 0 0 15 0 78
ELSE[ ]	/* Else */
NPUSHB[ ]	/* 25 values pushed */
0 3 0 4 0 3 4 103 0 2 2 1 95 0 1 1 14 77 5 1 0 0 15 0 78
EIF[ ]	/* EndIf */
NPUSHB[ ]	/* 17 values pushed */
1 0 24 22 18 16 15 13 9 6 0 27 1 27 6 7 22
CALL[ ]	/* CallFunction */";
};
vertWidth = 0;
width = 606;
}
);
note = F;
unicode = 70;
},
{
glyphname = G;
layers = (
{
layerId = m01;
shapes = (
{
closed = 1;
nodes = (
(473,231,q),
(454,43,ls),
(452,24,o),
(461,1,o),
(479,0,qs),
(499,-1,o),
(512,25,o),
(513,43,qs),
(549,384,ls),
(551,399,o),
(531,416,o),
(516,416,qs),
(500,416,o),
(488,400,o),
(485,388,q),
(447,276,o),
(356,126,o),
(266,50,o),
(229,50,qs),
(150,50,o),
(89,236,o),
(115,397,qs),
(133,498,o),
(206,644,o),
(310,723,o),
(372,723,qs),
(414,723,o),
(469,700,o),
(506,668,o),
(519,653,qs),
(529,643,o),
(553,635,o),
(563,644,qs),
(574,654,o),
(571,676,o),
(562,688,qs),
(547,707,o),
(492,749,o),
(421,778,o),
(380,778,qs),
(302,778,o),
(171,688,o),
(79,521,o),
(57,405,qs),
(34,279,o),
(57,95,o),
(145,-5,o),
(219,-5,qs),
(368,-5,o)
);
}
);
userData = {
assembly = "MPPEM[ ]	/* MeasurePixelPerEm */
PUSHB[ ]	/* 1 value pushed */
47
LT[ ]	/* LessThan */
IF[ ]	/* If */
NPUSHB[ ]	/* 10 values pushed */
47 1 3 4 40 1 0 3 2 76
ELSE[ ]	/* Else */
NPUSHB[ ]	/* 10 values pushed */
47 1 3 4 40 1 5 3 2 76
EIF[ ]	/* EndIf */
MPPEM[ ]	/* MeasurePixelPerEm */
PUSHB[ ]	/* 1 value pushed */
47
LT[ ]	/* LessThan */
IF[ ]	/* If */
NPUSHB[ ]	/* 28 values pushed */
0 2 2 1 97 0 1 1 14 77 0 4 4 17 77 0 3 3 0 97 5 6 2 0 0 21 0 78
ELSE[ ]	/* Else */
NPUSHB[ ]	/* 32 values pushed */
0 2 2 1 97 0 1 1 14 77 0 4 4 17 77 0 5 5 15 77 0 3 3 0 97 6 1 0 0 21 0 78
EIF[ ]	/* EndIf */
NPUSHB[ ]	/* 19 values pushed */
1 0 44 42 37 35 30 28 23 21 9 7 0 48 1 48 7 7 22
CALL[ ]	/* CallFunction */";
};
vertWidth = 0;
width = 604;
},
{
layerId = "6F3CF9BF-DB96-4F2C-A4AA-F3DDDD8E5607";
shapes = (
{
closed = 1;
nodes = (
(348,47,o),
(417,135,o),
(446,190,q),
(432,54,ls),
(430,29,o),
(457,0,o),
(484,0,qs),
(512,0,o),
(532,27,o),
(535,48,qs),
(571,381,ls),
(573,405,o),
(543,434,o),
(519,434,qs),
(500,434,o),
(477,421,o),
(452,381,o),
(429,340,q),
(411,300,o),
(361,212,o),
(305,135,o),
(252,87,o),
(232,87,qs),
(178,87,o),
(138,246,o),
(158,393,qs),
(169,477,o),
(218,609,o),
(304,685,o),
(370,685,qs),
(423,685,o),
(479,654,o),
(494,628,qs),
(507,605,o),
(536,587,o),
(561,595,qs),
(581,602,o),
(588,639,o),
(580,658,qs),
(560,711,o),
(448,778,o),
(372,778,qs),
(281,778,o),
(153,686,o),
(74,519,o),
(56,406,qs),
(37,284,o),
(55,98,o),
(142,-6,o),
(224,-6,qs),
(270,-6,o)
);
}
);
userData = {
assembly = "PUSHB[ ]	/* 6 values pushed */
47 1 3 4 1 76
MPPEM[ ]	/* MeasurePixelPerEm */
PUSHB[ ]	/* 1 value pushed */
39
LT[ ]	/* LessThan */
IF[ ]	/* If */
NPUSHB[ ]	/* 28 values pushed */
0 2 2 1 97 0 1 1 14 77 0 4 4 23 77 0 3 3 0 97 5 6 2 0 0 21 0 78
ELSE[ ]	/* Else */
NPUSHB[ ]	/* 32 values pushed */
0 2 2 1 97 0 1 1 14 77 0 4 4 23 77 0 5 5 15 77 0 3 3 0 97 6 1 0 0 21 0 78
EIF[ ]	/* EndIf */
NPUSHB[ ]	/* 19 values pushed */
1 0 44 42 37 35 28 26 21 19 9 7 0 50 1 50 7 7 22
CALL[ ]	/* CallFunction */";
};
vertWidth = 0;
width = 625;
}
);
note = G;
unicode = 71;
},
{
glyphname = H;
layers = (
{
layerId = m01;
shapes = (
{
closed = 1;
nodes = (
(98,21,o),
(99,30,qs),
(137,388,l),
(476,388,l),
(438,32,ls),
(437,22,o),
(448,0,o),
(468,0,qs),
(485,0,o),
(497,18,o),
(498,26,qs),
(574,738,ls),
(576,753,o),
(562,772,o),
(544,772,qs),
(528,772,o),
(516,755,o),
(514,746,q),
(482,443,l),
(142,443,l),
(173,735,ls),
(175,752,o),
(164,772,o),
(149,772,qs),
(132,772,o),
(116,754,o),
(114,740,qs),
(39,32,ls),
(38,19,o),
(53,0,o),
(69,0,qs),
(89,0,o)
);
}
);
userData = {
assembly = "NPUSHB[ ]	/* 41 values pushed */
0 2 0 5 0 2 5 104 3 1 1 1 14 77 4 6 2 0 0 15 0 78 1 0 28 27 24 22 17 15 12 11 8 6 0 31 1 31 7 7 22
CALL[ ]	/* CallFunction */";
};
vertWidth = 0;
width = 615;
},
{
layerId = "6F3CF9BF-DB96-4F2C-A4AA-F3DDDD8E5607";
shapes = (
{
closed = 1;
nodes = (
(143,28,o),
(145,43,qs),
(177,354,l),
(472,354,l),
(440,51,ls),
(438,30,o),
(463,0,o),
(490,0,qs),
(513,0,o),
(541,24,o),
(542,39,qs),
(614,719,ls),
(616,744,o),
(588,772,o),
(563,772,qs),
(541,772,o),
(513,750,o),
(512,733,qs),
(482,447,l),
(187,447,l),
(214,716,ls),
(217,743,o),
(194,772,o),
(170,772,qs),
(148,772,o),
(115,750,o),
(113,728,qs),
(42,51,ls),
(39,29,o),
(68,0,o),
(93,0,qs),
(121,0,o)
);
}
);
userData = {
assembly = "NPUSHB[ ]	/* 51 values pushed */
13 1 2 1 20 1 0 5 2 76 0 2 0 5 0 2 5 104 3 1 1 1 14 77 4 6 2 0 0 15 0 78 1 0 28 27 24 22 17 15 12 11 8 6 0 31 1 31 7 7 22
CALL[ ]	/* CallFunction */";
};
vertWidth = 0;
width = 657;
}
);
note = H;
unicode = 72;
},
{
glyphname = I;
layers = (
{
layerId = m01;
shapes = (
{
closed = 1;
nodes = (
(196,0,o),
(207,17,o),
(207,27,qs),
(207,38,o),
(192,55,o),
(175,55,qs),
(156,55,l),
(227,718,l),
(253,718,ls),
(271,718,o),
(282,735,o),
(282,745,qs),
(282,756,o),
(267,772,o),
(249,772,qs),
(144,772,ls),
(126,772,o),
(114,756,o),
(114,745,qs),
(114,735,o),
(130,718,o),
(147,718,qs),
(166,718,l),
(96,55,l),
(69,55,ls),
(51,55,o),
(39,38,o),
(39,27,qs),
(39,17,o),
(55,0,o),
(72,0,qs),
(178,0,ls)
);
}
);
userData = {
assembly = "NPUSHB[ ]	/* 43 values pushed */
4 1 2 2 3 95 0 3 3 14 77 5 1 1 1 0 95 6 1 0 0 15 0 78 1 0 26 24 23 21 17 14 10 8 7 5 0 31 1 30 7 7 22
CALL[ ]	/* CallFunction */";
};
vertWidth = 0;
width = 323;
},
{
layerId = "6F3CF9BF-DB96-4F2C-A4AA-F3DDDD8E5607";
shapes = (
{
closed = 1;
nodes = (
(263,0,o),
(293,26,o),
(293,48,qs),
(293,68,o),
(266,93,o),
(242,93,qs),
(222,93,l),
(285,679,l),
(307,679,ls),
(335,679,o),
(366,706,o),
(366,727,qs),
(366,747,o),
(338,772,o),
(314,772,qs),
(168,772,ls),
(140,772,o),
(110,746,o),
(110,725,qs),
(110,704,o),
(137,679,o),
(161,679,qs),
(181,679,l),
(119,93,l),
(96,93,ls),
(68,93,o),
(38,67,o),
(38,45,qs),
(38,25,o),
(64,0,o),
(89,0,qs),
(234,0,ls)
);
}
);
userData = {
assembly = "NPUSHB[ ]	/* 43 values pushed */
4 1 2 2 3 95 0 3 3 14 77 5 1 1 1 0 95 6 1 0 0 15 0 78 1 0 26 24 23 21 17 14 10 8 7 5 0 31 1 30 7 7 22
CALL[ ]	/* CallFunction */";
};
vertWidth = 0;
width = 406;
}
);
note = I;
unicode = 73;
},
{
glyphname = J;
layers = (
{
layerId = m01;
shapes = (
{
closed = 1;
nodes = (
(351,112,o),
(364,244,qs),
(412,718,l),
(441,718,ls),
(459,718,o),
(469,735,o),
(469,745,qs),
(469,756,o),
(455,772,o),
(437,772,qs),
(331,772,ls),
(314,772,o),
(302,756,o),
(302,745,qs),
(302,735,o),
(317,718,o),
(335,718,qs),
(352,718,l),
(304,244,ls),
(294,140,o),
(226,49,o),
(168,49,qs),
(131,49,o),
(82,92,o),
(64,114,qs),
(54,127,o),
(30,132,o),
(20,122,qs),
(10,112,o),
(13,88,o),
(20,77,q),
(46,44,o),
(119,-6,o),
(168,-6,qs),
(257,-6,o)
);
}
);
userData = {
assembly = "NPUSHB[ ]	/* 40 values pushed */
4 1 2 2 3 95 0 3 3 14 77 0 1 1 0 97 5 1 0 0 21 0 78 1 0 31 29 25 22 18 16 13 11 0 34 1 34 6 7 22
CALL[ ]	/* CallFunction */";
};
vertWidth = 0;
width = 510;
},
{
layerId = "6F3CF9BF-DB96-4F2C-A4AA-F3DDDD8E5607";
shapes = (
{
closed = 1;
nodes = (
(373,107,o),
(386,233,qs),
(434,679,l),
(457,679,ls),
(486,679,o),
(515,706,o),
(515,727,qs),
(515,747,o),
(489,772,o),
(464,772,qs),
(319,772,ls),
(290,772,o),
(260,746,o),
(260,725,qs),
(260,704,o),
(287,679,o),
(312,679,qs),
(331,679,l),
(286,254,ls),
(279,188,o),
(251,115,o),
(209,87,o),
(183,87,qs),
(155,87,o),
(103,119,o),
(77,146,qs),
(60,164,o),
(17,163,o),
(2,144,qs),
(-11,130,o),
(-7,89,o),
(5,76,qs),
(39,38,o),
(123,-5,o),
(172,-5,qs),
(259,-5,o)
);
}
);
userData = {
assembly = "NPUSHB[ ]	/* 50 values pushed */
0 1 3 2 3 1 2 128 5 1 3 3 4 95 0 4 4 14 77 0 2 2 0 97 6 1 0 0 21 0 78 1 0 32 30 26 23 19 17 13 11 8 7 0 35 1 35 7 7 22
CALL[ ]	/* CallFunction */";
};
vertWidth = 0;
width = 555;
}
);
note = J;
unicode = 74;
},
{
glyphname = K;
layers = (
{
layerId = m01;
shapes = (
{
closed = 1;
nodes = (
(98,25,o),
(99,37,qs),
(137,394,l),
(434,23,ls),
(441,14,o),
(459,0,o),
(470,0,qs),
(482,0,o),
(498,16,o),
(498,27,qs),
(498,38,o),
(488,50,qs),
(193,417,l),
(549,715,l),
(571,736,o),
(571,750,qs),
(571,772,o),
(546,772,qs),
(539,772,o),
(523,766,o),
(512,757,qs),
(142,443,l),
(173,735,ls),
(175,752,o),
(166,772,o),
(149,772,qs),
(131,772,o),
(116,754,o),
(114,740,qs),
(39,38,ls),
(38,25,o),
(53,0,o),
(69,0,qs),
(88,0,o)
);
}
);
userData = {
assembly = "NPUSHB[ ]	/* 37 values pushed */
30 20 11 3 0 1 1 76 2 1 1 1 14 77 3 4 2 0 0 15 0 78 1 0 27 25 16 14 8 6 0 33 1 33 5 7 22
CALL[ ]	/* CallFunction */";
};
vertWidth = 0;
width = 555;
},
{
layerId = "6F3CF9BF-DB96-4F2C-A4AA-F3DDDD8E5607";
shapes = (
{
closed = 1;
nodes = (
(143,29,o),
(145,49,qs),
(177,348,l),
(445,28,ls),
(456,16,o),
(483,0,o),
(498,0,qs),
(517,0,o),
(545,29,o),
(545,48,qs),
(545,65,o),
(528,87,qs),
(249,416,l),
(587,681,ls),
(599,690,o),
(614,712,o),
(615,724,qs),
(616,743,o),
(589,772,o),
(567,772,qs),
(544,772,o),
(519,752,qs),
(191,478,l),
(216,716,ls),
(219,746,o),
(190,772,o),
(170,772,qs),
(148,772,o),
(117,750,o),
(114,728,qs),
(42,57,ls),
(39,34,o),
(70,0,o),
(95,0,qs),
(120,0,o)
);
}
);
userData = {
assembly = "NPUSHB[ ]	/* 38 values pushed */
31 21 17 11 4 0 1 1 76 2 1 1 1 14 77 3 4 2 0 0 15 0 78 1 0 28 26 15 13 8 6 0 34 1 34 5 7 22
CALL[ ]	/* CallFunction */";
};
vertWidth = 0;
width = 599;
}
);
note = K;
unicode = 75;
},
{
glyphname = L;
layers = (
{
layerId = m01;
shapes = (
{
closed = 1;
nodes = (
(443,0,o),
(457,17,o),
(457,29,qs),
(457,55,o),
(425,55,qs),
(102,55,l),
(173,735,ls),
(175,752,o),
(166,772,o),
(149,772,qs),
(131,772,o),
(116,754,o),
(114,740,qs),
(39,32,ls),
(38,19,o),
(53,0,o),
(69,0,qs),
(426,0,ls)
);
}
);
userData = {
assembly = "NPUSHB[ ]	/* 30 values pushed */
0 1 1 14 77 0 2 2 0 95 3 1 0 0 15 0 78 1 0 13 11 8 6 0 17 1 16 4 7 22
CALL[ ]	/* CallFunction */";
};
vertWidth = 0;
width = 513;
},
{
layerId = "6F3CF9BF-DB96-4F2C-A4AA-F3DDDD8E5607";
shapes = (
{
closed = 1;
nodes = (
(481,0,o),
(506,29,o),
(506,48,qs),
(506,67,o),
(476,94,o),
(451,94,qs),
(148,94,l),
(214,716,ls),
(217,748,o),
(189,772,o),
(168,772,qs),
(144,772,o),
(115,750,o),
(113,728,qs),
(41,51,ls),
(39,29,o),
(63,0,o),
(87,0,qs),
(457,0,ls)
);
}
);
userData = {
assembly = "NPUSHB[ ]	/* 30 values pushed */
0 1 1 14 77 0 2 2 0 96 3 1 0 0 15 0 78 1 0 13 11 8 6 0 18 1 17 4 7 22
CALL[ ]	/* CallFunction */";
};
vertWidth = 0;
width = 560;
}
);
note = L;
unicode = 76;
},
{
glyphname = M;
layers = (
{
layerId = m01;
shapes = (
{
closed = 1;
nodes = (
(29,14,o),
(37,30,qs),
(338,646,l),
(409,29,ls),
(410,20,o),
(422,0,o),
(442,0,qs),
(459,0,o),
(475,22,o),
(479,29,qs),
(779,649,l),
(851,29,ls),
(852,20,o),
(864,0,o),
(883,0,qs),
(897,0,o),
(912,18,o),
(910,31,qs),
(828,739,ls),
(827,753,o),
(815,772,o),
(790,772,qs),
(777,772,o),
(763,751,o),
(758,741,qs),
(457,121,l),
(385,750,ls),
(384,757,o),
(370,772,o),
(354,772,qs),
(339,772,o),
(325,755,o),
(318,743,q),
(-21,45,ls),
(-30,26,o),
(-18,0,o),
(-1,0,qs),
(9,0,o)
);
}
);
userData = {
assembly = "NPUSHB[ ]	/* 40 values pushed */
34 26 11 3 0 1 1 76 2 1 1 1 14 77 4 3 5 3 0 0 15 0 78 1 0 31 29 23 21 16 14 8 6 0 37 1 37 6 7 22
CALL[ ]	/* CallFunction */";
};
vertWidth = 0;
width = 967;
},
{
layerId = "6F3CF9BF-DB96-4F2C-A4AA-F3DDDD8E5607";
shapes = (
{
closed = 1;
nodes = (
(79,17,o),
(88,37,qs),
(340,562,l),
(397,43,ls),
(399,26,o),
(424,0,o),
(449,0,qs),
(480,0,o),
(503,25,o),
(508,35,qs),
(763,564,l),
(817,43,ls),
(819,27,o),
(848,0,o),
(873,0,qs),
(896,0,o),
(923,28,o),
(920,49,qs),
(846,725,ls),
(843,748,o),
(827,772,o),
(799,772,qs),
(775,772,o),
(747,751,o),
(738,734,qs),
(479,201,l),
(422,728,ls),
(419,749,o),
(397,772,o),
(366,772,qs),
(344,772,o),
(323,753,o),
(315,736,qs),
(-11,68,ls),
(-27,36,o),
(5,0,o),
(28,0,qs),
(42,0,o)
);
}
);
userData = {
assembly = "NPUSHB[ ]	/* 40 values pushed */
34 26 11 3 0 1 1 76 2 1 1 1 14 77 4 3 5 3 0 0 15 0 78 1 0 31 29 23 21 16 14 8 6 0 37 1 37 6 7 22
CALL[ ]	/* CallFunction */";
};
vertWidth = 0;
width = 976;
}
);
note = M;
unicode = 77;
},
{
glyphname = N;
layers = (
{
layerId = m01;
shapes = (
{
closed = 1;
nodes = (
(98,23,o),
(99,33,qs),
(164,651,l),
(437,21,ls),
(447,0,o),
(470,0,qs),
(487,0,o),
(496,16,o),
(498,30,qs),
(573,735,ls),
(575,752,o),
(565,772,o),
(548,772,qs),
(530,772,o),
(515,754,o),
(513,740,qs),
(449,139,l),
(185,748,ls),
(181,759,o),
(164,772,o),
(147,772,qs),
(128,772,o),
(116,754,o),
(114,740,qs),
(39,32,ls),
(38,19,o),
(53,0,o),
(69,0,qs),
(89,0,o)
);
}
);
userData = {
assembly = "NPUSHB[ ]	/* 36 values pushed */
25 11 2 0 1 1 76 2 1 1 1 14 77 3 4 2 0 0 15 0 78 1 0 23 21 16 14 8 6 0 28 1 28 5 7 22
CALL[ ]	/* CallFunction */";
};
vertWidth = 0;
width = 614;
},
{
layerId = "6F3CF9BF-DB96-4F2C-A4AA-F3DDDD8E5607";
shapes = (
{
closed = 1;
nodes = (
(143,28,o),
(145,45,qs),
(198,561,l),
(444,30,ls),
(458,0,o),
(496,0,qs),
(522,0,o),
(540,26,o),
(542,43,qs),
(613,716,ls),
(615,741,o),
(591,775,o),
(565,775,qs),
(542,775,o),
(513,750,o),
(511,728,qs),
(458,230,l),
(222,741,ls),
(209,772,o),
(169,772,qs),
(117,772,o),
(113,728,qs),
(42,51,ls),
(39,29,o),
(67,0,o),
(90,0,qs),
(117,0,o)
);
}
);
userData = {
assembly = "NPUSHB[ ]	/* 36 values pushed */
23 9 2 0 1 1 76 2 1 1 1 14 77 3 4 2 0 0 15 0 78 1 0 21 19 14 12 7 5 0 26 1 26 5 7 22
CALL[ ]	/* CallFunction */";
};
vertWidth = 0;
width = 657;
}
);
note = N;
unicode = 78;
},
{
glyphname = O;
layers = (
{
layerId = m01;
shapes = (
{
closed = 1;
nodes = (
(523,412,qs),
(534,516,o),
(489,681,o),
(391,778,o),
(322,778,qs),
(207,778,o),
(69,563,o),
(49,355,qs),
(38,252,o),
(83,89,o),
(180,-6,o),
(248,-6,qs),
(481,-6,o)
);
},
{
closed = 1;
nodes = (
(131,127,o),
(100,262,o),
(108,347,qs),
(127,532,o),
(234,723,o),
(322,723,qs),
(371,723,o),
(440,642,o),
(472,506,o),
(463,421,qs),
(425,49,o),
(249,49,qs),
(201,49,o)
);
}
);
userData = {
assembly = "NPUSHB[ ]	/* 42 values pushed */
0 3 3 1 97 0 1 1 14 77 5 1 2 2 0 97 4 1 0 0 21 0 78 14 13 1 0 20 18 13 25 14 25 8 6 0 12 1 12 6 7 22
CALL[ ]	/* CallFunction */";
};
vertWidth = 0;
width = 575;
},
{
layerId = "6F3CF9BF-DB96-4F2C-A4AA-F3DDDD8E5607";
shapes = (
{
closed = 1;
nodes = (
(478,93,o),
(557,278,o),
(570,405,qs),
(581,514,o),
(531,682,o),
(424,778,o),
(349,778,qs),
(268,778,o),
(143,678,o),
(64,494,o),
(50,367,qs),
(39,258,o),
(90,90,o),
(197,-6,o),
(271,-6,qs),
(353,-6,o)
);
},
{
closed = 1;
nodes = (
(172,157,o),
(145,283,o),
(153,365,qs),
(167,512,o),
(266,685,o),
(342,685,qs),
(386,685,o),
(448,614,o),
(476,489,o),
(467,407,qs),
(454,259,o),
(354,87,o),
(278,87,qs),
(234,87,o)
);
}
);
userData = {
assembly = "NPUSHB[ ]	/* 42 values pushed */
0 3 3 1 97 0 1 1 14 77 5 1 2 2 0 97 4 1 0 0 21 0 78 17 16 1 0 24 22 16 29 17 29 9 7 0 15 1 15 6 7 22
CALL[ ]	/* CallFunction */";
};
vertWidth = 0;
width = 622;
}
);
note = O;
unicode = 79;
},
{
color = 6;
glyphname = Odieresis;
kernLeft = O_left;
kernRight = O_right;
layers = (
{
layerId = m01;
shapes = (
{
closed = 1;
nodes = (
(403,-6,o),
(495,135,o),
(523,412,cs),
(544,619,o),
(460,778,o),
(322,778,cs),
(169,778,o),
(76,632,o),
(49,355,cs),
(27,149,o),
(112,-6,o),
(248,-6,cs)
);
},
{
closed = 1;
nodes = (
(152,49,o),
(91,177,o),
(108,347,cs),
(133,593,o),
(204,723,o),
(322,723,cs),
(419,723,o),
(480,590,o),
(463,421,cs),
(438,175,o),
(367,49,o),
(249,49,cs)
);
},
{
closed = 1;
nodes = (
(212,846,o),
(234,824,o),
(249,824,qs),
(265,824,o),
(287,846,o),
(287,862,qs),
(287,877,o),
(265,899,o),
(249,899,qs),
(234,899,o),
(212,877,o),
(212,862,qs)
);
},
{
closed = 1;
nodes = (
(330,846,o),
(352,824,o),
(367,824,qs),
(383,824,o),
(405,846,o),
(405,862,qs),
(405,877,o),
(383,899,o),
(367,899,qs),
(352,899,o),
(330,877,o),
(330,862,qs)
);
}
);
vertWidth = 0;
width = 575;
},
{
layerId = "6F3CF9BF-DB96-4F2C-A4AA-F3DDDD8E5607";
shapes = (
{
closed = 1;
nodes = (
(478,93,o),
(557,278,o),
(570,405,qs),
(581,514,o),
(531,682,o),
(424,778,o),
(349,778,qs),
(268,778,o),
(143,678,o),
(64,494,o),
(50,367,qs),
(39,258,o),
(90,90,o),
(197,-6,o),
(271,-6,qs),
(353,-6,o)
);
},
{
closed = 1;
nodes = (
(172,157,o),
(145,283,o),
(153,365,qs),
(167,512,o),
(266,685,o),
(342,685,qs),
(386,685,o),
(448,614,o),
(476,489,o),
(467,407,qs),
(454,259,o),
(354,87,o),
(278,87,qs),
(234,87,o)
);
},
{
closed = 1;
nodes = (
(235,855,o),
(261,830,o),
(279,830,qs),
(297,830,o),
(323,855,o),
(323,874,qs),
(323,892,o),
(297,918,o),
(279,918,qs),
(261,918,o),
(235,892,o),
(235,874,qs)
);
},
{
closed = 1;
nodes = (
(374,855,o),
(400,830,o),
(417,830,qs),
(436,830,o),
(462,855,o),
(462,874,qs),
(462,892,o),
(436,918,o),
(417,918,qs),
(400,918,o),
(374,892,o),
(374,874,qs)
);
}
);
userData = {
assembly = "NPUSHB[ ]	/* 42 values pushed */
0 3 3 1 97 0 1 1 14 77 5 1 2 2 0 97 4 1 0 0 21 0 78 17 16 1 0 24 22 16 29 17 29 9 7 0 15 1 15 6 7 22
CALL[ ]	/* CallFunction */";
};
vertWidth = 0;
width = 622;
}
);
unicode = 214;
},
{
glyphname = P;
layers = (
{
layerId = m01;
shapes = (
{
closed = 1;
nodes = (
(98,26,o),
(99,34,qs),
(132,349,l),
(241,351,o),
(418,392,o),
(528,483,o),
(536,561,qs),
(543,633,o),
(450,726,o),
(272,772,o),
(149,772,qs),
(131,772,o),
(116,755,o),
(114,740,qs),
(39,37,ls),
(38,24,o),
(53,0,o),
(69,0,qs),
(89,0,o)
);
},
{
closed = 1;
nodes = (
(484,638,o),
(476,567,qs),
(470,507,o),
(382,437,o),
(235,405,o),
(138,403,q),
(171,718,l),
(320,716,o)
);
}
);
userData = {
assembly = "MPPEM[ ]	/* MeasurePixelPerEm */
PUSHB[ ]	/* 1 value pushed */
42
LT[ ]	/* LessThan */
IF[ ]	/* If */
NPUSHB[ ]	/* 28 values pushed */
6 1 4 4 1 97 0 1 1 14 77 0 2 2 3 97 0 3 3 17 77 5 1 0 0 15 0 78
ELSE[ ]	/* Else */
NPUSHB[ ]	/* 26 values pushed */
0 3 0 2 0 3 2 105 6 1 4 4 1 97 0 1 1 14 77 5 1 0 0 15 0 78
EIF[ ]	/* EndIf */
NPUSHB[ ]	/* 21 values pushed */
19 19 1 0 19 26 19 26 21 20 15 14 8 6 0 18 1 18 7 7 22
CALL[ ]	/* CallFunction */";
};
vertWidth = 0;
width = 571;
},
{
layerId = "6F3CF9BF-DB96-4F2C-A4AA-F3DDDD8E5607";
shapes = (
{
closed = 1;
nodes = (
(142,26,o),
(144,43,qs),
(174,327,l),
(243,329,o),
(374,351,o),
(482,401,o),
(551,488,o),
(559,557,qs),
(567,634,o),
(471,729,o),
(286,772,o),
(161,772,qs),
(117,772,o),
(113,728,qs),
(41,52,ls),
(39,30,o),
(65,0,o),
(91,0,qs),
(118,0,o)
);
},
{
closed = 1;
nodes = (
(462,621,o),
(455,563,qs),
(450,513,o),
(373,453,o),
(253,424,o),
(183,420,q),
(211,678,l),
(343,677,o)
);
}
);
userData = {
assembly = "NPUSHB[ ]	/* 49 values pushed */
6 1 4 4 1 97 0 1 1 14 77 0 2 2 3 97 0 3 3 23 77 5 1 0 0 15 0 78 19 19 1 0 19 26 19 26 21 20 15 14 7 5 0 18 1 18 7 7 22
CALL[ ]	/* CallFunction */";
};
vertWidth = 0;
width = 595;
}
);
note = P;
unicode = 80;
},
{
glyphname = Q;
layers = (
{
layerId = m01;
shapes = (
{
closed = 1;
nodes = (
(389,47,q),
(428,-7,ls),
(439,-21,o),
(466,-31,o),
(476,-24,qs),
(488,-16,o),
(489,11,o),
(478,26,qs),
(429,93,l),
(501,197,o),
(523,412,qs),
(534,516,o),
(489,681,o),
(391,778,o),
(322,778,qs),
(207,778,o),
(69,563,o),
(49,355,qs),
(38,252,o),
(83,89,o),
(180,-6,o),
(248,-6,qs),
(330,-6,o)
);
},
{
closed = 1;
nodes = (
(131,127,o),
(100,262,o),
(108,347,qs),
(127,532,o),
(234,723,o),
(322,723,qs),
(371,723,o),
(440,642,o),
(472,506,o),
(463,421,qs),
(444,236,o),
(391,143,q),
(346,204,ls),
(333,224,o),
(304,234,o),
(292,223,q),
(282,216,o),
(286,187,o),
(297,171,qs),
(354,93,l),
(310,49,o),
(249,49,qs),
(201,49,o)
);
}
);
userData = {
assembly = "NPUSHB[ ]	/* 54 values pushed */
33 25 13 3 2 3 21 1 0 2 2 76 0 3 3 1 97 0 1 1 14 77 5 1 2 2 0 97 4 1 0 0 21 0 78 24 23 1 0 40 38 23 45 24 45 8 6 0 22 1 22 6 7 22
CALL[ ]	/* CallFunction */";
};
vertWidth = 0;
width = 575;
},
{
layerId = "6F3CF9BF-DB96-4F2C-A4AA-F3DDDD8E5607";
shapes = (
{
closed = 1;
nodes = (
(407,38,q),
(433,3,ls),
(449,-18,o),
(492,-34,o),
(510,-20,qs),
(526,-7,o),
(529,32,o),
(515,52,qs),
(475,108,l),
(550,216,o),
(570,405,qs),
(581,514,o),
(531,682,o),
(424,778,o),
(349,778,qs),
(268,778,o),
(143,678,o),
(64,494,o),
(50,367,qs),
(39,258,o),
(90,90,o),
(197,-6,o),
(271,-6,qs),
(347,-6,o)
);
},
{
closed = 1;
nodes = (
(172,157,o),
(145,283,o),
(153,365,qs),
(167,512,o),
(266,685,o),
(342,685,qs),
(386,685,o),
(448,614,o),
(476,489,o),
(467,407,qs),
(455,274,o),
(414,191,q),
(386,230,ls),
(368,254,o),
(323,263,o),
(306,249,qs),
(291,237,o),
(289,198,o),
(306,176,qs),
(352,113,l),
(319,87,o),
(278,87,qs),
(234,87,o)
);
}
);
userData = {
assembly = "NPUSHB[ ]	/* 54 values pushed */
34 26 14 3 2 3 22 1 0 2 2 76 0 3 3 1 97 0 1 1 14 77 5 1 2 2 0 97 4 1 0 0 21 0 78 25 24 1 0 41 39 24 46 25 46 9 7 0 23 1 23 6 7 22
CALL[ ]	/* CallFunction */";
};
vertWidth = 0;
width = 622;
}
);
note = Q;
unicode = 81;
},
{
glyphname = R;
layers = (
{
layerId = m01;
shapes = (
{
closed = 1;
nodes = (
(97,24,o),
(99,37,qs),
(133,361,l),
(133,361,l),
(398,23,ls),
(407,11,o),
(428,0,o),
(435,0,qs),
(444,0,o),
(460,11,o),
(461,18,qs),
(463,25,o),
(458,46,o),
(447,59,qs),
(204,367,l),
(295,378,o),
(436,436,o),
(519,523,o),
(524,577,qs),
(533,684,o),
(338,772,o),
(147,772,qs),
(128,772,o),
(115,754,o),
(113,740,qs),
(39,39,ls),
(38,24,o),
(52,0,o),
(68,0,qs),
(88,0,o)
);
},
{
closed = 1;
nodes = (
(473,651,o),
(465,583,qs),
(460,539,o),
(373,465,o),
(229,417,o),
(138,414,q),
(170,718,l),
(324,716,o)
);
}
);
userData = {
assembly = "NPUSHB[ ]	/* 53 values pushed */
25 14 3 3 0 3 1 76 6 1 4 4 1 97 0 1 1 14 77 0 3 3 17 77 2 5 2 0 0 15 0 78 30 30 1 0 30 37 30 37 32 31 21 20 8 6 0 29 1 29 7 7 22
CALL[ ]	/* CallFunction */";
};
vertWidth = 0;
width = 558;
},
{
layerId = "6F3CF9BF-DB96-4F2C-A4AA-F3DDDD8E5607";
shapes = (
{
closed = 1;
nodes = (
(141,29,o),
(144,56,qs),
(172,325,l),
(408,26,ls),
(421,9,o),
(449,0,o),
(459,0,qs),
(474,0,o),
(501,15,o),
(506,28,qs),
(511,38,o),
(508,66,o),
(499,77,qs),
(283,345,l),
(365,359,o),
(492,419,o),
(567,509,o),
(572,570,qs),
(578,652,o),
(486,739,o),
(301,772,o),
(168,772,qs),
(116,772,o),
(112,728,qs),
(42,62,ls),
(39,37,o),
(60,0,o),
(86,0,qs),
(114,0,o)
);
},
{
closed = 1;
nodes = (
(425,663,o),
(474,616,o),
(469,573,qs),
(464,535,o),
(393,469,o),
(268,423,o),
(182,418,q),
(210,682,l),
(308,681,o)
);
}
);
userData = {
assembly = "NPUSHB[ ]	/* 52 values pushed */
25 14 2 0 3 1 76 6 1 4 4 1 97 0 1 1 14 77 0 3 3 17 77 2 5 2 0 0 15 0 78 29 29 1 0 29 37 29 37 31 30 22 20 7 5 0 28 1 28 7 7 22
CALL[ ]	/* CallFunction */";
};
vertWidth = 0;
width = 607;
}
);
note = R;
unicode = 82;
},
{
glyphname = S;
layers = (
{
layerId = m01;
shapes = (
{
closed = 1;
nodes = (
(426,92,o),
(436,192,qs),
(442,250,o),
(403,340,o),
(328,411,o),
(280,438,qs),
(207,480,o),
(124,558,o),
(129,608,qs),
(135,659,o),
(230,723,o),
(315,723,qs),
(360,723,o),
(416,682,o),
(428,650,qs),
(433,638,o),
(454,628,o),
(466,632,qs),
(478,636,o),
(483,661,o),
(478,677,qs),
(464,719,o),
(382,778,o),
(312,778,qs),
(236,778,o),
(133,732,o),
(77,657,o),
(72,613,qs),
(68,566,o),
(111,487,o),
(188,423,o),
(235,396,qs),
(314,351,o),
(383,260,o),
(378,201,qs),
(373,149,o),
(320,82,o),
(244,49,o),
(202,49,qs),
(146,49,o),
(81,90,o),
(74,118,qs),
(70,133,o),
(47,144,o),
(34,140,qs),
(21,136,o),
(15,111,o),
(19,97,qs),
(30,51,o),
(122,-6,o),
(183,-6,qs),
(287,-6,o)
);
}
);
userData = {
assembly = "NPUSHB[ ]	/* 37 values pushed */
0 3 3 2 97 0 2 2 14 77 0 1 1 0 97 4 1 0 0 21 0 78 1 0 40 38 28 26 13 11 0 51 1 51 5 7 22
CALL[ ]	/* CallFunction */";
};
vertWidth = 0;
width = 501;
},
{
layerId = "6F3CF9BF-DB96-4F2C-A4AA-F3DDDD8E5607";
shapes = (
{
closed = 1;
nodes = (
(496,101,o),
(506,198,qs),
(513,264,o),
(469,362,o),
(392,431,o),
(350,455,qs),
(310,477,o),
(239,526,o),
(196,578,o),
(199,605,qs),
(204,643,o),
(279,686,o),
(342,686,qs),
(387,686,o),
(447,648,o),
(460,622,qs),
(471,601,o),
(510,589,o),
(531,599,qs),
(549,608,o),
(559,641,o),
(551,661,qs),
(528,715,o),
(432,778,o),
(354,778,qs),
(234,778,o),
(103,687,o),
(94,609,qs),
(90,568,o),
(123,498,o),
(182,439,o),
(251,393,o),
(281,376,qs),
(349,339,o),
(412,255,o),
(407,203,qs),
(402,150,o),
(314,92,o),
(249,92,qs),
(212,92,o),
(162,116,o),
(134,149,o),
(130,163,qs),
(123,188,o),
(83,205,o),
(63,199,qs),
(46,193,o),
(20,154,o),
(29,124,qs),
(37,93,o),
(94,33,o),
(185,-6,o),
(245,-6,qs),
(355,-6,o)
);
}
);
userData = {
assembly = "NPUSHB[ ]	/* 37 values pushed */
0 3 3 2 97 0 2 2 14 77 0 1 1 0 97 4 1 0 0 21 0 78 1 0 41 39 29 27 15 13 0 53 1 53 5 7 22
CALL[ ]	/* CallFunction */";
};
vertWidth = 0;
width = 582;
}
);
note = S;
unicode = 83;
},
{
glyphname = T;
layers = (
{
layerId = m01;
shapes = (
{
closed = 1;
nodes = (
(286,26,o),
(287,40,qs),
(359,718,l),
(556,718,ls),
(574,718,o),
(584,735,o),
(584,745,qs),
(584,756,o),
(570,772,o),
(552,772,qs),
(108,772,ls),
(90,772,o),
(78,756,o),
(78,745,qs),
(78,735,o),
(94,718,o),
(112,718,qs),
(300,718,l),
(228,44,ls),
(227,26,o),
(238,0,o),
(254,0,qs),
(272,0,o)
);
}
);
userData = {
assembly = "NPUSHB[ ]	/* 39 values pushed */
3 1 0 1 1 76 3 1 1 1 2 95 0 2 2 14 77 4 1 0 0 15 0 78 1 0 19 17 13 10 6 4 0 22 1 22 5 7 22
CALL[ ]	/* CallFunction */";
};
vertWidth = 0;
width = 590;
},
{
layerId = "6F3CF9BF-DB96-4F2C-A4AA-F3DDDD8E5607";
shapes = (
{
closed = 1;
nodes = (
(311,31,o),
(313,48,qs),
(378,679,l),
(556,679,ls),
(582,679,o),
(605,706,o),
(605,725,qs),
(605,744,o),
(573,772,o),
(549,772,qs),
(109,772,ls),
(85,772,o),
(62,744,o),
(62,725,qs),
(61,706,o),
(91,679,o),
(117,679,qs),
(274,679,l),
(210,54,ls),
(208,31,o),
(235,-1,o),
(259,-1,qs),
(286,-1,o)
);
}
);
userData = {
assembly = "NPUSHB[ ]	/* 33 values pushed */
3 1 1 1 2 95 0 2 2 14 77 4 1 0 0 24 0 78 1 0 19 17 13 10 6 4 0 22 1 22 5 7 22
CALL[ ]	/* CallFunction */";
};
vertWidth = 0;
width = 594;
}
);
note = T;
unicode = 84;
},
{
glyphname = U;
layers = (
{
layerId = m01;
shapes = (
{
closed = 1;
nodes = (
(439,69,o),
(514,197,o),
(522,278,qs),
(570,741,ls),
(572,755,o),
(557,772,o),
(541,772,qs),
(525,772,o),
(512,755,o),
(511,744,qs),
(461,278,ls),
(454,213,o),
(397,109,o),
(311,50,o),
(261,50,qs),
(215,50,o),
(148,107,o),
(117,205,o),
(124,267,qs),
(173,735,ls),
(175,749,o),
(160,772,o),
(146,772,qs),
(132,772,o),
(115,751,o),
(113,737,qs),
(64,271,ls),
(56,192,o),
(102,67,o),
(196,-5,o),
(260,-5,qs),
(327,-5,o)
);
}
);
userData = {
assembly = "NPUSHB[ ]	/* 33 values pushed */
3 1 1 1 14 77 0 2 2 0 97 4 1 0 0 21 0 78 1 0 25 23 17 15 9 7 0 31 1 31 5 7 22
CALL[ ]	/* CallFunction */";
};
vertWidth = 0;
width = 611;
},
{
layerId = "6F3CF9BF-DB96-4F2C-A4AA-F3DDDD8E5607";
shapes = (
{
closed = 1;
nodes = (
(476,73,o),
(557,207,o),
(566,292,qs),
(613,724,ls),
(615,744,o),
(591,772,o),
(562,772,qs),
(537,772,o),
(512,744,o),
(510,726,qs),
(462,292,ls),
(456,233,o),
(405,141,o),
(328,88,o),
(283,88,qs),
(244,88,o),
(188,139,o),
(162,226,o),
(169,281,qs),
(216,723,ls),
(219,742,o),
(195,772,o),
(168,772,qs),
(141,772,o),
(114,743,o),
(112,725,qs),
(66,285,ls),
(57,202,o),
(108,71,o),
(211,-5,o),
(282,-5,qs),
(354,-5,o)
);
}
);
userData = {
assembly = "NPUSHB[ ]	/* 33 values pushed */
3 1 1 1 14 77 0 2 2 0 97 4 1 0 0 21 0 78 1 0 25 23 17 15 9 7 0 31 1 31 5 7 22
CALL[ ]	/* CallFunction */";
};
vertWidth = 0;
width = 656;
}
);
note = U;
unicode = 85;
},
{
glyphname = V;
kernLeft = V;
kernRight = V;
layers = (
{
layerId = m01;
shapes = (
{
closed = 1;
nodes = (
(227,17,o),
(232,30,qs),
(513,734,ls),
(521,752,o),
(507,772,o),
(493,772,qs),
(476,772,o),
(459,758,o),
(453,743,qs),
(240,203,l),
(205,103,l),
(195,201,l),
(115,744,ls),
(114,753,o),
(102,772,o),
(82,772,qs),
(66,772,o),
(54,755,o),
(56,741,qs),
(164,33,ls),
(166,22,o),
(182,0,o),
(198,0,qs),
(215,0,o)
);
}
);
userData = {
assembly = "NPUSHB[ ]	/* 32 values pushed */
12 1 0 1 1 76 2 1 1 1 14 77 3 1 0 0 15 0 78 1 0 18 16 8 6 0 23 1 23 4 7 22
CALL[ ]	/* CallFunction */";
};
vertWidth = 0;
width = 498;
},
{
layerId = "6F3CF9BF-DB96-4F2C-A4AA-F3DDDD8E5607";
shapes = (
{
closed = 1;
nodes = (
(262,23,o),
(269,40,qs),
(543,711,ls),
(554,738,o),
(527,772,o),
(503,772,qs),
(457,772,o),
(442,736,qs),
(277,319,l),
(232,190,l),
(216,318,l),
(158,730,ls),
(156,747,o),
(126,772,o),
(100,772,qs),
(76,772,o),
(51,747,o),
(55,724,qs),
(161,49,ls),
(164,30,o),
(189,0,o),
(213,0,qs),
(237,0,o)
);
}
);
userData = {
assembly = "NPUSHB[ ]	/* 32 values pushed */
12 1 0 1 1 76 2 1 1 1 14 77 3 1 0 0 15 0 78 1 0 17 15 8 6 0 22 1 22 4 7 22
CALL[ ]	/* CallFunction */";
};
vertWidth = 0;
width = 530;
}
);
note = V;
unicode = 86;
},
{
glyphname = W;
kernLeft = V;
kernRight = V;
layers = (
{
layerId = m01;
shapes = (
{
closed = 1;
nodes = (
(228,21,o),
(232,31,qs),
(450,588,l),
(476,673,l),
(485,584,l),
(568,30,ls),
(570,19,o),
(585,0,o),
(600,0,qs),
(617,0,o),
(629,17,o),
(634,30,qs),
(917,734,ls),
(925,753,o),
(907,772,o),
(895,772,qs),
(878,772,o),
(864,760,o),
(857,743,qs),
(651,223,l),
(609,96,l),
(596,228,l),
(519,744,ls),
(518,754,o),
(505,772,o),
(484,772,qs),
(470,772,o),
(453,754,o),
(449,744,qs),
(247,225,l),
(205,103,l),
(192,225,l),
(115,744,ls),
(114,753,o),
(102,772,o),
(82,772,qs),
(66,772,o),
(54,755,o),
(56,741,qs),
(164,33,ls),
(166,19,o),
(185,0,o),
(197,0,qs),
(215,0,o)
);
}
);
userData = {
assembly = "NPUSHB[ ]	/* 40 values pushed */
39 22 12 3 0 1 1 76 3 2 2 1 1 14 77 4 5 2 0 0 15 0 78 1 0 35 33 28 26 18 16 8 6 0 43 1 43 6 7 22
CALL[ ]	/* CallFunction */";
};
vertWidth = 0;
width = 902;
},
{
layerId = "6F3CF9BF-DB96-4F2C-A4AA-F3DDDD8E5607";
shapes = (
{
closed = 1;
nodes = (
(260,24,o),
(269,46,qs),
(458,515,l),
(485,601,l),
(494,514,l),
(563,46,l),
(565,24,o),
(594,0,o),
(615,0,qs),
(637,0,o),
(662,23,o),
(671,45,qs),
(945,711,ls),
(954,731,o),
(930,772,o),
(902,772,qs),
(876,772,o),
(849,748,o),
(844,735,qs),
(672,300,l),
(630,177,l),
(617,301,l),
(554,730,ls),
(551,749,o),
(526,772,o),
(499,772,qs),
(473,772,o),
(448,748,o),
(442,732,qs),
(276,301,l),
(232,176,l),
(217,304,l),
(157,730,ls),
(155,747,o),
(126,772,o),
(100,772,qs),
(76,772,o),
(50,747,o),
(54,724,qs),
(160,47,ls),
(163,24,o),
(192,0,o),
(213,0,qs),
(234,0,o)
);
}
);
userData = {
assembly = "NPUSHB[ ]	/* 40 values pushed */
39 22 12 3 0 1 1 76 3 2 2 1 1 14 77 4 5 2 0 0 15 0 78 1 0 35 33 28 26 18 16 8 6 0 43 1 43 6 7 22
CALL[ ]	/* CallFunction */";
};
vertWidth = 0;
width = 932;
}
);
note = W;
unicode = 87;
},
{
glyphname = X;
layers = (
{
layerId = m01;
shapes = (
{
closed = 1;
nodes = (
(51,2,o),
(59,15,qs),
(266,329,l),
(403,24,ls),
(410,7,o),
(438,-2,o),
(449,4,qs),
(457,9,o),
(466,29,o),
(460,42,qs),
(308,382,l),
(531,723,ls),
(540,737,o),
(537,760,o),
(529,766,qs),
(519,774,o),
(490,771,o),
(481,757,qs),
(279,446,l),
(143,750,ls),
(136,767,o),
(105,776,o),
(95,771,q),
(72,763,o),
(87,729,qs),
(237,393,l),
(8,45,ls),
(1,35,o),
(5,13,o),
(14,7,qs),
(24,-1,o)
);
}
);
userData = {
assembly = "PUSHB[ ]	/* 4 values pushed */
24 8 1 50
CALL[ ]	/* CallFunction */";
};
vertWidth = 0;
width = 544;
},
{
layerId = "6F3CF9BF-DB96-4F2C-A4AA-F3DDDD8E5607";
shapes = (
{
closed = 1;
nodes = (
(89,-1,o),
(101,18,qs),
(274,287,l),
(389,31,ls),
(399,7,o),
(451,-3,o),
(469,6,qs),
(484,15,o),
(496,44,o),
(487,64,qs),
(347,376,l),
(563,697,ls),
(575,716,o),
(567,749,o),
(553,761,qs),
(538,773,o),
(488,771,o),
(475,752,qs),
(301,479,l),
(183,743,ls),
(173,765,o),
(127,775,o),
(110,770,qs),
(90,762,o),
(76,730,o),
(88,705,qs),
(228,390,l),
(13,72,ls),
(-8,39,o),
(23,13,qs),
(39,0,o)
);
}
);
userData = {
assembly = "NPUSHB[ ]	/* 25 values pushed */
27 19 11 3 4 1 0 1 76 0 0 0 14 77 0 1 1 24 1 78 31 29 2 7 24
CALL[ ]	/* CallFunction */";
};
vertWidth = 0;
width = 589;
}
);
note = X;
unicode = 88;
},
{
glyphname = Y;
layers = (
{
layerId = m01;
shapes = (
{
closed = 1;
nodes = (
(128,1,o),
(135,14,qs),
(552,723,ls),
(560,737,o),
(554,762,o),
(541,769,qs),
(517,780,o),
(501,754,qs),
(284,383,l),
(115,748,l),
(111,759,o),
(91,776,o),
(74,770,qs),
(58,765,o),
(53,742,o),
(59,728,qs),
(246,319,l),
(86,45,l),
(79,35,o),
(81,13,o),
(90,7,qs),
(100,-1,o)
);
}
);
userData = {
assembly = "PUSHB[ ]	/* 4 values pushed */
21 14 1 50
CALL[ ]	/* CallFunction */";
};
vertWidth = 0;
width = 539;
},
{
layerId = "6F3CF9BF-DB96-4F2C-A4AA-F3DDDD8E5607";
shapes = (
{
closed = 1;
nodes = (
(158,4,o),
(169,23,qs),
(570,697,ls),
(581,716,o),
(570,755,o),
(551,767,q),
(534,775,o),
(491,765,o),
(478,744,qs),
(292,432,l),
(155,741,ls),
(147,759,o),
(109,777,o),
(84,768,qs),
(60,760,o),
(50,722,o),
(58,703,qs),
(231,330,l),
(80,77,ls),
(70,61,o),
(76,22,o),
(91,10,qs),
(107,-3,o)
);
}
);
userData = {
assembly = "PUSHB[ ]	/* 4 values pushed */
22 9 1 50
CALL[ ]	/* CallFunction */";
};
vertWidth = 0;
width = 561;
}
);
note = Y;
unicode = 89;
},
{
glyphname = Z;
layers = (
{
layerId = m01;
shapes = (
{
closed = 1;
nodes = (
(462,0,o),
(474,19,o),
(473,30,qs),
(472,41,o),
(459,55,o),
(441,55,qs),
(95,55,l),
(542,723,ls),
(554,743,o),
(534,772,o),
(518,772,qs),
(120,772,ls),
(102,772,o),
(89,754,o),
(90,743,qs),
(91,732,o),
(106,718,o),
(124,718,qs),
(471,718,l),
(21,46,ls),
(11,30,o),
(27,0,o),
(48,0,qs),
(444,0,ls)
);
}
);
userData = {
assembly = "NPUSHB[ ]	/* 37 values pushed */
0 1 1 2 95 0 2 2 14 77 0 3 3 0 95 4 1 0 0 15 0 78 1 0 18 16 13 10 6 4 0 23 1 22 5 7 22
CALL[ ]	/* CallFunction */";
};
vertWidth = 0;
width = 565;
},
{
layerId = "6F3CF9BF-DB96-4F2C-A4AA-F3DDDD8E5607";
shapes = (
{
closed = 1;
nodes = (
(472,0,o),
(495,27,o),
(495,45,qs),
(495,66,o),
(467,93,o),
(442,93,qs),
(147,93,l),
(557,695,ls),
(574,721,o),
(551,772,o),
(519,772,qs),
(130,772,ls),
(105,772,o),
(80,744,o),
(81,725,qs),
(83,706,o),
(111,679,o),
(136,679,qs),
(427,679,l),
(17,73,ls),
(7,58,o),
(11,24,o),
(38,0,o),
(60,0,qs),
(446,0,ls)
);
}
);
userData = {
assembly = "NPUSHB[ ]	/* 43 values pushed */
9 1 1 2 1 76 0 1 1 2 95 0 2 2 14 77 0 3 3 0 95 4 1 0 0 15 0 78 1 0 19 17 14 11 7 5 0 24 1 23 5 7 22
CALL[ ]	/* CallFunction */";
};
vertWidth = 0;
width = 586;
}
);
note = Z;
unicode = 90;
},
{
glyphname = a;
kernLeft = a;
layers = (
{
layerId = m01;
shapes = (
{
closed = 1;
nodes = (
(252,48,o),
(272,84,q),
(267,33,ls),
(266,17,o),
(283,0,o),
(295,0,qs),
(306,0,o),
(325,17,o),
(327,33,qs),
(364,380,ls),
(366,398,o),
(348,416,o),
(337,416,qs),
(326,416,o),
(306,400,o),
(304,384,qs),
(303,378,l),
(281,400,o),
(225,421,o),
(200,421,qs),
(134,421,o),
(32,312,o),
(21,209,qs),
(16,157,o),
(41,61,o),
(104,-1,o),
(156,-1,qs),
(192,-1,o)
);
},
{
closed = 1;
nodes = (
(155,366,o),
(198,366,qs),
(222,366,o),
(279,346,o),
(298,324,q),
(292,269,l),
(284,233,o),
(257,157,o),
(222,92,o),
(180,53,o),
(157,53,qs),
(126,53,o),
(89,97,o),
(77,167,o),
(81,206,qs),
(89,282,o)
);
}
);
userData = {
assembly = "MPPEM[ ]	/* MeasurePixelPerEm */
PUSHB[ ]	/* 1 value pushed */
47
LT[ ]	/* LessThan */
IF[ ]	/* If */
NPUSHB[ ]	/* 15 values pushed */
10 1 5 1 38 25 2 4 5 24 1 0 4 3 76
ELSE[ ]	/* Else */
NPUSHB[ ]	/* 15 values pushed */
10 1 5 2 38 25 2 4 5 24 1 0 4 3 76
EIF[ ]	/* EndIf */
MPPEM[ ]	/* MeasurePixelPerEm */
PUSHB[ ]	/* 1 value pushed */
47
LT[ ]	/* LessThan */
IF[ ]	/* If */
NPUSHB[ ]	/* 24 values pushed */
0 5 5 1 97 2 1 1 1 23 77 0 4 4 0 97 3 6 2 0 0 24 0 78
ELSE[ ]	/* Else */
NPUSHB[ ]	/* 28 values pushed */
0 2 2 17 77 0 5 5 1 97 0 1 1 23 77 0 4 4 0 97 3 6 2 0 0 24 0 78
EIF[ ]	/* EndIf */
NPUSHB[ ]	/* 19 values pushed */
1 0 42 40 33 31 22 20 15 13 8 6 0 27 1 27 7 7 22
CALL[ ]	/* CallFunction */";
};
vertWidth = 0;
width = 418;
},
{
layerId = "6F3CF9BF-DB96-4F2C-A4AA-F3DDDD8E5607";
shapes = (
{
closed = 1;
nodes = (
(235,42,o),
(252,70,q),
(250,51,ls),
(248,26,o),
(276,0,o),
(296,0,qs),
(315,0,o),
(348,23,o),
(351,46,qs),
(385,362,ls),
(387,389,o),
(355,416,o),
(335,416,qs),
(307,416,o),
(293,397,q),
(250,426,o),
(207,426,qs),
(138,426,o),
(33,314,o),
(22,212,qs),
(17,160,o),
(40,62,o),
(100,-1,o),
(152,-1,qs),
(187,-1,o)
);
},
{
closed = 1;
nodes = (
(174,333,o),
(206,333,qs),
(220,333,o),
(256,321,o),
(277,304,q),
(275,290,ls),
(257,191,o),
(201,92,o),
(168,92,qs),
(140,92,o),
(117,154,o),
(123,203,qs),
(129,266,o)
);
}
);
userData = {
assembly = "MPPEM[ ]	/* MeasurePixelPerEm */
PUSHB[ ]	/* 1 value pushed */
25
LT[ ]	/* LessThan */
IF[ ]	/* If */
NPUSHB[ ]	/* 14 values pushed */
9 1 5 1 32 1 4 5 22 1 0 4 3 76
ELSE[ ]	/* Else */
NPUSHB[ ]	/* 14 values pushed */
9 1 5 2 32 1 4 5 22 1 0 4 3 76
EIF[ ]	/* EndIf */
MPPEM[ ]	/* MeasurePixelPerEm */
PUSHB[ ]	/* 1 value pushed */
25
LT[ ]	/* LessThan */
IF[ ]	/* If */
NPUSHB[ ]	/* 24 values pushed */
0 5 5 1 97 2 1 1 1 23 77 0 4 4 0 97 3 6 2 0 0 24 0 78
ELSE[ ]	/* Else */
NPUSHB[ ]	/* 28 values pushed */
0 2 2 17 77 0 5 5 1 97 0 1 1 23 77 0 4 4 0 97 3 6 2 0 0 24 0 78
EIF[ ]	/* EndIf */
NPUSHB[ ]	/* 19 values pushed */
1 0 36 34 29 27 19 17 12 10 8 6 0 24 1 24 7 7 22
CALL[ ]	/* CallFunction */";
};
vertWidth = 0;
width = 441;
}
);
note = a;
unicode = 97;
},
{
glyphname = aacute;
kernLeft = o_left;
kernRight = n_right;
layers = (
{
layerId = m01;
shapes = (
{
closed = 1;
nodes = (
(184,520,o),
(178,511,o),
(178,505,qs),
(178,497,o),
(191,484,o),
(200,484,qs),
(205,484,o),
(213,488,o),
(215,490,qs),
(311,574,ls),
(317,579,o),
(321,592,o),
(321,595,qs),
(321,605,o),
(305,620,o),
(296,620,qs),
(287,620,o),
(278,613,q),
(186,522,ls)
);
},
{
closed = 1;
nodes = (
(176,-1,o),
(211,14,o),
(243,41,o),
(269,76,o),
(279,97,q),
(296,290,l),
(289,252,o),
(263,169,o),
(226,98,o),
(182,53,o),
(157,53,qs),
(126,53,o),
(89,97,o),
(77,167,o),
(81,206,qs),
(89,282,o),
(155,366,o),
(198,366,qs),
(224,366,o),
(286,343,o),
(303,317,q),
(309,372,l),
(287,397,o),
(226,421,o),
(200,421,qs),
(156,421,o),
(80,372,o),
(29,278,o),
(21,209,qs),
(16,157,o),
(41,61,o),
(104,-1,o),
(156,-1,qs)
);
},
{
closed = 1;
nodes = (
(306,0,o),
(325,17,o),
(327,33,qs),
(364,380,ls),
(366,398,o),
(348,416,o),
(337,416,qs),
(326,416,o),
(306,400,o),
(304,384,qs),
(267,33,ls),
(266,17,o),
(283,0,o),
(295,0,qs)
);
}
);
userData = {
assembly = "MPPEM[ ]	/* MeasurePixelPerEm */
PUSHB[ ]	/* 1 value pushed */
47
LT[ ]	/* LessThan */
IF[ ]	/* If */
NPUSHB[ ]	/* 19 values pushed */
5 1 1 0 29 1 3 2 45 30 2 4 3 54 1 5 4 4 76
ELSE[ ]	/* Else */
NPUSHB[ ]	/* 19 values pushed */
5 1 1 0 29 1 3 6 45 30 2 4 3 54 1 5 4 4 76
EIF[ ]	/* EndIf */
MPPEM[ ]	/* MeasurePixelPerEm */
PUSHB[ ]	/* 1 value pushed */
47
LT[ ]	/* LessThan */
IF[ ]	/* If */
NPUSHB[ ]	/* 35 values pushed */
0 0 1 0 133 0 1 2 1 133 0 3 3 2 97 6 1 2 2 23 77 0 4 4 5 97 9 7 8 3 5 5 24 5 78
ELSE[ ]	/* Else */
NPUSHB[ ]	/* 39 values pushed */
0 0 1 0 133 0 1 2 1 133 0 6 6 17 77 0 3 3 2 97 0 2 2 23 77 0 4 4 5 97 9 7 8 3 5 5 24 5 78
EIF[ ]	/* EndIf */
NPUSHB[ ]	/* 22 values pushed */
52 52 19 19 52 65 52 64 59 57 19 51 19 50 37 37 44 40 33 10 7 27
CALL[ ]	/* CallFunction */";
};
vertWidth = 0;
width = 418;
},
{
layerId = "6F3CF9BF-DB96-4F2C-A4AA-F3DDDD8E5607";
shapes = (
{
closed = 1;
nodes = (
(235,42,o),
(252,70,q),
(250,51,ls),
(248,26,o),
(276,0,o),
(296,0,qs),
(315,0,o),
(348,23,o),
(351,46,qs),
(385,362,ls),
(387,389,o),
(355,416,o),
(335,416,qs),
(307,416,o),
(293,397,q),
(250,426,o),
(207,426,qs),
(138,426,o),
(33,314,o),
(22,212,qs),
(17,160,o),
(40,62,o),
(100,-1,o),
(152,-1,qs),
(187,-1,o)
);
},
{
closed = 1;
nodes = (
(174,333,o),
(206,333,qs),
(220,333,o),
(256,321,o),
(277,304,q),
(275,290,ls),
(257,191,o),
(201,92,o),
(168,92,qs),
(140,92,o),
(117,154,o),
(123,203,qs),
(129,266,o)
);
},
{
closed = 1;
nodes = (
(187,522,o),
(182,513,o),
(182,507,qs),
(182,500,o),
(194,487,o),
(202,487,qs),
(206,487,o),
(214,491,o),
(215,494,qs),
(307,572,ls),
(313,578,o),
(318,590,o),
(318,593,qs),
(318,603,o),
(301,617,o),
(293,617,qs),
(285,617,o),
(275,610,q),
(188,524,ls)
);
}
);
userData = {
assembly = "MPPEM[ ]	/* MeasurePixelPerEm */
PUSHB[ ]	/* 1 value pushed */
25
LT[ ]	/* LessThan */
IF[ ]	/* If */
NPUSHB[ ]	/* 14 values pushed */
9 1 5 1 32 1 4 5 22 1 0 4 3 76
ELSE[ ]	/* Else */
NPUSHB[ ]	/* 14 values pushed */
9 1 5 2 32 1 4 5 22 1 0 4 3 76
EIF[ ]	/* EndIf */
MPPEM[ ]	/* MeasurePixelPerEm */
PUSHB[ ]	/* 1 value pushed */
25
LT[ ]	/* LessThan */
IF[ ]	/* If */
NPUSHB[ ]	/* 24 values pushed */
0 5 5 1 97 2 1 1 1 23 77 0 4 4 0 97 3 6 2 0 0 24 0 78
ELSE[ ]	/* Else */
NPUSHB[ ]	/* 28 values pushed */
0 2 2 17 77 0 5 5 1 97 0 1 1 23 77 0 4 4 0 97 3 6 2 0 0 24 0 78
EIF[ ]	/* EndIf */
NPUSHB[ ]	/* 19 values pushed */
1 0 36 34 29 27 19 17 12 10 8 6 0 24 1 24 7 7 22
CALL[ ]	/* CallFunction */";
};
vertWidth = 0;
width = 441;
}
);
note = aacute;
unicode = 225;
},
{
glyphname = acircumflex;
kernLeft = o_left;
kernRight = n_right;
layers = (
{
layerId = m01;
shapes = (
{
closed = 1;
nodes = (
(217,574,l),
(298,476,ls),
(305,468,o),
(314,468,qs),
(322,469,o),
(328,474,qs),
(334,479,o),
(336,497,o),
(330,504,qs),
(253,595,ls),
(248,601,o),
(238,602,qs),
(230,603,o),
(221,595,qs),
(110,503,ls),
(102,496,o),
(102,489,qs),
(102,481,o),
(107,475,q),
(113,470,o),
(120,468,q),
(130,467,o),
(138,474,qs),
(252,570,l)
);
},
{
closed = 1;
nodes = (
(176,-1,o),
(211,14,o),
(243,41,o),
(269,76,o),
(279,97,q),
(296,290,l),
(289,252,o),
(263,169,o),
(226,98,o),
(182,53,o),
(157,53,qs),
(126,53,o),
(89,97,o),
(77,167,o),
(81,206,qs),
(89,282,o),
(155,366,o),
(198,366,qs),
(224,366,o),
(286,343,o),
(303,317,q),
(309,372,l),
(287,397,o),
(226,421,o),
(200,421,qs),
(156,421,o),
(80,372,o),
(29,278,o),
(21,209,qs),
(16,157,o),
(41,61,o),
(104,-1,o),
(156,-1,qs)
);
},
{
closed = 1;
nodes = (
(306,0,o),
(325,17,o),
(327,33,qs),
(364,380,ls),
(366,398,o),
(348,416,o),
(337,416,qs),
(326,416,o),
(306,400,o),
(304,384,qs),
(267,33,ls),
(266,17,o),
(283,0,o),
(295,0,qs)
);
}
);
userData = {
assembly = "MPPEM[ ]	/* MeasurePixelPerEm */
PUSHB[ ]	/* 1 value pushed */
47
LT[ ]	/* LessThan */
IF[ ]	/* If */
NPUSHB[ ]	/* 20 values pushed */
34 1 2 1 50 35 2 3 2 59 1 4 3 3 76 23 22 2 0 74
ELSE[ ]	/* Else */
NPUSHB[ ]	/* 20 values pushed */
34 1 2 5 50 35 2 3 2 59 1 4 3 3 76 23 22 2 0 74
EIF[ ]	/* EndIf */
MPPEM[ ]	/* MeasurePixelPerEm */
PUSHB[ ]	/* 1 value pushed */
47
LT[ ]	/* LessThan */
IF[ ]	/* If */
NPUSHB[ ]	/* 30 values pushed */
0 0 1 0 133 0 2 2 1 97 5 1 1 1 23 77 0 3 3 4 97 8 6 7 3 4 4 24 4 78
ELSE[ ]	/* Else */
NPUSHB[ ]	/* 34 values pushed */
0 0 1 0 133 0 5 5 17 77 0 2 2 1 97 0 1 1 23 77 0 3 3 4 97 8 6 7 3 4 4 24 4 78
EIF[ ]	/* EndIf */
NPUSHB[ ]	/* 25 values pushed */
57 57 24 24 57 70 57 69 64 62 24 56 24 55 46 44 39 37 32 30 20 19 9 7 22
CALL[ ]	/* CallFunction */";
};
vertWidth = 0;
width = 418;
},
{
layerId = "6F3CF9BF-DB96-4F2C-A4AA-F3DDDD8E5607";
shapes = (
{
closed = 1;
nodes = (
(235,42,o),
(252,70,q),
(250,51,ls),
(248,26,o),
(276,0,o),
(296,0,qs),
(315,0,o),
(348,23,o),
(351,46,qs),
(385,362,ls),
(387,389,o),
(355,416,o),
(335,416,qs),
(307,416,o),
(293,397,q),
(250,426,o),
(207,426,qs),
(138,426,o),
(33,314,o),
(22,212,qs),
(17,160,o),
(40,62,o),
(100,-1,o),
(152,-1,qs),
(187,-1,o)
);
},
{
closed = 1;
nodes = (
(174,333,o),
(206,333,qs),
(220,333,o),
(256,321,o),
(277,304,q),
(275,290,ls),
(257,191,o),
(201,92,o),
(168,92,qs),
(140,92,o),
(117,154,o),
(123,203,qs),
(129,266,o)
);
},
{
closed = 1;
nodes = (
(227,588,l),
(316,480,ls),
(324,471,o),
(334,471,qs),
(343,472,o),
(349,478,qs),
(356,483,o),
(358,503,o),
(351,511,qs),
(267,611,ls),
(261,618,o),
(250,619,qs),
(241,620,o),
(231,611,qs),
(109,510,ls),
(100,502,o),
(100,494,qs),
(100,485,o),
(105,479,q),
(112,473,o),
(120,471,q),
(131,470,o),
(140,478,qs),
(265,584,l)
);
}
);
userData = {
assembly = "MPPEM[ ]	/* MeasurePixelPerEm */
PUSHB[ ]	/* 1 value pushed */
25
LT[ ]	/* LessThan */
IF[ ]	/* If */
NPUSHB[ ]	/* 14 values pushed */
9 1 5 1 32 1 4 5 22 1 0 4 3 76
ELSE[ ]	/* Else */
NPUSHB[ ]	/* 14 values pushed */
9 1 5 2 32 1 4 5 22 1 0 4 3 76
EIF[ ]	/* EndIf */
MPPEM[ ]	/* MeasurePixelPerEm */
PUSHB[ ]	/* 1 value pushed */
25
LT[ ]	/* LessThan */
IF[ ]	/* If */
NPUSHB[ ]	/* 24 values pushed */
0 5 5 1 97 2 1 1 1 23 77 0 4 4 0 97 3 6 2 0 0 24 0 78
ELSE[ ]	/* Else */
NPUSHB[ ]	/* 28 values pushed */
0 2 2 17 77 0 5 5 1 97 0 1 1 23 77 0 4 4 0 97 3 6 2 0 0 24 0 78
EIF[ ]	/* EndIf */
NPUSHB[ ]	/* 19 values pushed */
1 0 36 34 29 27 19 17 12 10 8 6 0 24 1 24 7 7 22
CALL[ ]	/* CallFunction */";
};
vertWidth = 0;
width = 441;
}
);
note = acircumflex;
unicode = 226;
},
{
glyphname = agrave;
kernLeft = o_left;
kernRight = n_right;
layers = (
{
layerId = m01;
shapes = (
{
closed = 1;
nodes = (
(176,-1,o),
(211,14,o),
(243,41,o),
(269,76,o),
(279,97,q),
(296,290,l),
(289,252,o),
(263,169,o),
(226,98,o),
(182,53,o),
(157,53,qs),
(126,53,o),
(89,97,o),
(77,167,o),
(81,206,qs),
(89,282,o),
(155,366,o),
(198,366,qs),
(224,366,o),
(286,343,o),
(303,317,q),
(309,372,l),
(287,397,o),
(226,421,o),
(200,421,qs),
(156,421,o),
(80,372,o),
(29,278,o),
(21,209,qs),
(16,157,o),
(41,61,o),
(104,-1,o),
(156,-1,qs)
);
},
{
closed = 1;
nodes = (
(306,0,o),
(325,17,o),
(327,33,qs),
(364,380,ls),
(366,398,o),
(348,416,o),
(337,416,qs),
(326,416,o),
(306,400,o),
(304,384,qs),
(267,33,ls),
(266,17,o),
(283,0,o),
(295,0,qs)
);
},
{
closed = 1;
nodes = (
(201,613,l),
(192,620,o),
(183,620,qs),
(174,620,o),
(158,605,o),
(158,595,qs),
(158,592,o),
(162,579,o),
(168,574,qs),
(264,490,ls),
(266,488,o),
(274,484,o),
(279,484,qs),
(288,484,o),
(301,497,o),
(301,505,qs),
(301,511,o),
(295,520,o),
(293,522,qs)
);
}
);
userData = {
assembly = "MPPEM[ ]	/* MeasurePixelPerEm */
PUSHB[ ]	/* 1 value pushed */
47
LT[ ]	/* LessThan */
IF[ ]	/* If */
NPUSHB[ ]	/* 19 values pushed */
5 1 0 1 29 1 3 2 45 30 2 4 3 54 1 5 4 4 76
ELSE[ ]	/* Else */
NPUSHB[ ]	/* 19 values pushed */
5 1 0 1 29 1 3 6 45 30 2 4 3 54 1 5 4 4 76
EIF[ ]	/* EndIf */
MPPEM[ ]	/* MeasurePixelPerEm */
PUSHB[ ]	/* 1 value pushed */
47
LT[ ]	/* LessThan */
IF[ ]	/* If */
NPUSHB[ ]	/* 35 values pushed */
0 1 0 1 133 0 0 2 0 133 0 3 3 2 97 6 1 2 2 23 77 0 4 4 5 97 9 7 8 3 5 5 24 5 78
ELSE[ ]	/* Else */
NPUSHB[ ]	/* 39 values pushed */
0 1 0 1 133 0 0 2 0 133 0 6 6 17 77 0 3 3 2 97 0 2 2 23 77 0 4 4 5 97 9 7 8 3 5 5 24 5 78
EIF[ ]	/* EndIf */
NPUSHB[ ]	/* 22 values pushed */
52 52 19 19 52 65 52 64 59 57 19 51 19 50 37 37 44 40 33 10 7 27
CALL[ ]	/* CallFunction */";
};
vertWidth = 0;
width = 418;
},
{
layerId = "6F3CF9BF-DB96-4F2C-A4AA-F3DDDD8E5607";
shapes = (
{
closed = 1;
nodes = (
(235,42,o),
(252,70,q),
(250,51,ls),
(248,26,o),
(276,0,o),
(296,0,qs),
(315,0,o),
(348,23,o),
(351,46,qs),
(385,362,ls),
(387,389,o),
(355,416,o),
(335,416,qs),
(307,416,o),
(293,397,q),
(250,426,o),
(207,426,qs),
(138,426,o),
(33,314,o),
(22,212,qs),
(17,160,o),
(40,62,o),
(100,-1,o),
(152,-1,qs),
(187,-1,o)
);
},
{
closed = 1;
nodes = (
(174,333,o),
(206,333,qs),
(220,333,o),
(256,321,o),
(277,304,q),
(275,290,ls),
(257,191,o),
(201,92,o),
(168,92,qs),
(140,92,o),
(117,154,o),
(123,203,qs),
(129,266,o)
);
},
{
closed = 1;
nodes = (
(208,629,l),
(198,637,o),
(188,637,qs),
(178,637,o),
(161,620,o),
(161,609,qs),
(161,606,o),
(165,592,o),
(172,586,qs),
(278,494,ls),
(280,491,o),
(289,487,o),
(294,487,qs),
(304,487,o),
(318,501,o),
(318,510,qs),
(318,517,o),
(312,527,o),
(310,529,qs)
);
}
);
userData = {
assembly = "MPPEM[ ]	/* MeasurePixelPerEm */
PUSHB[ ]	/* 1 value pushed */
25
LT[ ]	/* LessThan */
IF[ ]	/* If */
NPUSHB[ ]	/* 14 values pushed */
9 1 5 1 32 1 4 5 22 1 0 4 3 76
ELSE[ ]	/* Else */
NPUSHB[ ]	/* 14 values pushed */
9 1 5 2 32 1 4 5 22 1 0 4 3 76
EIF[ ]	/* EndIf */
MPPEM[ ]	/* MeasurePixelPerEm */
PUSHB[ ]	/* 1 value pushed */
25
LT[ ]	/* LessThan */
IF[ ]	/* If */
NPUSHB[ ]	/* 24 values pushed */
0 5 5 1 97 2 1 1 1 23 77 0 4 4 0 97 3 6 2 0 0 24 0 78
ELSE[ ]	/* Else */
NPUSHB[ ]	/* 28 values pushed */
0 2 2 17 77 0 5 5 1 97 0 1 1 23 77 0 4 4 0 97 3 6 2 0 0 24 0 78
EIF[ ]	/* EndIf */
NPUSHB[ ]	/* 19 values pushed */
1 0 36 34 29 27 19 17 12 10 8 6 0 24 1 24 7 7 22
CALL[ ]	/* CallFunction */";
};
vertWidth = 0;
width = 441;
}
);
note = agrave;
unicode = 224;
},
{
color = 6;
glyphname = amacron;
kernLeft = o_left;
kernRight = n_right;
layers = (
{
layerId = m01;
shapes = (
{
closed = 1;
nodes = (
(208,-1,o),
(252,42,o),
(279,97,c),
(296,290,l),
(278,189,o),
(223,53,o),
(157,53,cs),
(95,53,o),
(72,128,o),
(81,206,cs),
(91,307,o),
(140,366,o),
(198,366,cs),
(232,366,o),
(280,352,o),
(303,317,c),
(309,372,l),
(279,405,o),
(235,421,o),
(200,421,cs),
(112,421,o),
(36,346,o),
(21,209,cs),
(11,105,o),
(52,-1,o),
(156,-1,cs)
);
},
{
closed = 1;
nodes = (
(309,0,o),
(324,12,o),
(327,33,cs),
(364,380,ls),
(366,404,o),
(352,416,o),
(337,416,cs),
(322,416,o),
(307,405,o),
(304,384,cs),
(267,33,ls),
(265,11,o),
(279,0,o),
(295,0,cs)
);
},
{
closed = 1;
nodes = (
(323,490,o),
(343,505,o),
(343,518,qs),
(343,531,o),
(325,545,o),
(308,545,qs),
(132,545,ls),
(116,545,o),
(96,531,o),
(96,518,qs),
(96,505,o),
(114,490,o),
(130,490,qs),
(306,490,ls)
);
}
);
vertWidth = 0;
width = 418;
},
{
layerId = "6F3CF9BF-DB96-4F2C-A4AA-F3DDDD8E5607";
shapes = (
{
closed = 1;
nodes = (
(235,42,o),
(252,70,q),
(250,51,ls),
(248,26,o),
(276,0,o),
(296,0,qs),
(315,0,o),
(348,23,o),
(351,46,qs),
(385,362,ls),
(387,389,o),
(355,416,o),
(335,416,qs),
(307,416,o),
(293,397,q),
(250,426,o),
(207,426,qs),
(138,426,o),
(33,314,o),
(22,212,qs),
(17,160,o),
(40,62,o),
(100,-1,o),
(152,-1,qs),
(187,-1,o)
);
},
{
closed = 1;
nodes = (
(174,333,o),
(206,333,qs),
(220,333,o),
(256,321,o),
(277,304,q),
(275,290,ls),
(257,191,o),
(201,92,o),
(168,92,qs),
(140,92,o),
(117,154,o),
(123,203,qs),
(129,266,o)
);
},
{
closed = 1;
nodes = (
(355,487,o),
(379,505,o),
(379,521,qs),
(379,537,o),
(357,554,o),
(336,554,qs),
(122,554,ls),
(102,554,o),
(78,537,o),
(78,521,qs),
(78,505,o),
(100,487,o),
(119,487,qs),
(334,487,ls)
);
}
);
userData = {
assembly = "MPPEM[ ]	/* MeasurePixelPerEm */
PUSHB[ ]	/* 1 value pushed */
25
LT[ ]	/* LessThan */
IF[ ]	/* If */
NPUSHB[ ]	/* 14 values pushed */
9 1 5 1 32 1 4 5 22 1 0 4 3 76
ELSE[ ]	/* Else */
NPUSHB[ ]	/* 14 values pushed */
9 1 5 2 32 1 4 5 22 1 0 4 3 76
EIF[ ]	/* EndIf */
MPPEM[ ]	/* MeasurePixelPerEm */
PUSHB[ ]	/* 1 value pushed */
25
LT[ ]	/* LessThan */
IF[ ]	/* If */
NPUSHB[ ]	/* 24 values pushed */
0 5 5 1 97 2 1 1 1 23 77 0 4 4 0 97 3 6 2 0 0 24 0 78
ELSE[ ]	/* Else */
NPUSHB[ ]	/* 28 values pushed */
0 2 2 17 77 0 5 5 1 97 0 1 1 23 77 0 4 4 0 97 3 6 2 0 0 24 0 78
EIF[ ]	/* EndIf */
NPUSHB[ ]	/* 19 values pushed */
1 0 36 34 29 27 19 17 12 10 8 6 0 24 1 24 7 7 22
CALL[ ]	/* CallFunction */";
};
vertWidth = 0;
width = 441;
}
);
unicode = 257;
},
{
color = 6;
glyphname = aring;
kernLeft = o_left;
kernRight = n_right;
layers = (
{
layerId = m01;
shapes = (
{
closed = 1;
nodes = (
(208,-1,o),
(252,42,o),
(279,97,c),
(296,290,l),
(278,189,o),
(223,53,o),
(157,53,cs),
(95,53,o),
(72,128,o),
(81,206,cs),
(91,307,o),
(140,366,o),
(198,366,cs),
(232,366,o),
(280,352,o),
(303,317,c),
(309,372,l),
(279,405,o),
(235,421,o),
(200,421,cs),
(112,421,o),
(36,346,o),
(21,209,cs),
(11,105,o),
(52,-1,o),
(156,-1,cs)
);
},
{
closed = 1;
nodes = (
(309,0,o),
(324,12,o),
(327,33,cs),
(364,380,ls),
(366,404,o),
(352,416,o),
(337,416,cs),
(322,416,o),
(307,405,o),
(304,384,cs),
(267,33,ls),
(265,11,o),
(279,0,o),
(295,0,cs)
);
},
{
closed = 1;
nodes = (
(157,502,o),
(197,461,o),
(226,461,qs),
(255,461,o),
(296,502,o),
(296,530,qs),
(296,559,o),
(255,600,o),
(226,600,qs),
(197,600,o),
(157,559,o),
(157,530,qs)
);
},
{
closed = 1;
nodes = (
(199,542,o),
(215,558,o),
(226,558,qs),
(238,558,o),
(254,542,o),
(254,530,qs),
(254,519,o),
(238,503,o),
(226,503,qs),
(215,503,o),
(199,519,o),
(199,530,qs)
);
}
);
vertWidth = 0;
width = 418;
},
{
layerId = "6F3CF9BF-DB96-4F2C-A4AA-F3DDDD8E5607";
shapes = (
{
closed = 1;
nodes = (
(235,42,o),
(252,70,q),
(250,51,ls),
(248,26,o),
(276,0,o),
(296,0,qs),
(315,0,o),
(348,23,o),
(351,46,qs),
(385,362,ls),
(387,389,o),
(355,416,o),
(335,416,qs),
(307,416,o),
(293,397,q),
(250,426,o),
(207,426,qs),
(138,426,o),
(33,314,o),
(22,212,qs),
(17,160,o),
(40,62,o),
(100,-1,o),
(152,-1,qs),
(187,-1,o)
);
},
{
closed = 1;
nodes = (
(174,333,o),
(206,333,qs),
(220,333,o),
(256,321,o),
(277,304,q),
(275,290,ls),
(257,191,o),
(201,92,o),
(168,92,qs),
(140,92,o),
(117,154,o),
(123,203,qs),
(129,266,o)
);
},
{
closed = 1;
nodes = (
(167,508,o),
(213,461,o),
(246,461,qs),
(279,461,o),
(326,508,o),
(326,540,qs),
(326,573,o),
(279,620,o),
(246,620,qs),
(213,620,o),
(167,573,o),
(167,540,qs)
);
},
{
closed = 1;
nodes = (
(215,554,o),
(233,572,o),
(246,572,qs),
(260,572,o),
(278,554,o),
(278,540,qs),
(278,527,o),
(260,509,o),
(246,509,qs),
(233,509,o),
(215,527,o),
(215,540,qs)
);
}
);
userData = {
assembly = "MPPEM[ ]	/* MeasurePixelPerEm */
PUSHB[ ]	/* 1 value pushed */
25
LT[ ]	/* LessThan */
IF[ ]	/* If */
NPUSHB[ ]	/* 14 values pushed */
9 1 5 1 32 1 4 5 22 1 0 4 3 76
ELSE[ ]	/* Else */
NPUSHB[ ]	/* 14 values pushed */
9 1 5 2 32 1 4 5 22 1 0 4 3 76
EIF[ ]	/* EndIf */
MPPEM[ ]	/* MeasurePixelPerEm */
PUSHB[ ]	/* 1 value pushed */
25
LT[ ]	/* LessThan */
IF[ ]	/* If */
NPUSHB[ ]	/* 24 values pushed */
0 5 5 1 97 2 1 1 1 23 77 0 4 4 0 97 3 6 2 0 0 24 0 78
ELSE[ ]	/* Else */
NPUSHB[ ]	/* 28 values pushed */
0 2 2 17 77 0 5 5 1 97 0 1 1 23 77 0 4 4 0 97 3 6 2 0 0 24 0 78
EIF[ ]	/* EndIf */
NPUSHB[ ]	/* 19 values pushed */
1 0 36 34 29 27 19 17 12 10 8 6 0 24 1 24 7 7 22
CALL[ ]	/* CallFunction */";
};
vertWidth = 0;
width = 441;
}
);
unicode = 229;
},
{
glyphname = atilde;
kernLeft = o_left;
kernRight = n_right;
layers = (
{
layerId = m01;
shapes = (
{
closed = 1;
nodes = (
(69,502,o),
(94,505,o),
(103,516,qs),
(112,527,o),
(135,541,o),
(151,541,qs),
(165,541,o),
(197,523,o),
(234,504,o),
(252,504,qs),
(279,504,o),
(329,527,o),
(345,546,qs),
(353,557,o),
(358,579,o),
(349,588,qs),
(341,596,o),
(315,593,o),
(307,582,qs),
(288,557,o),
(259,557,qs),
(247,557,o),
(215,576,o),
(179,594,o),
(159,594,qs),
(131,594,o),
(80,571,o),
(65,551,qs),
(57,541,o),
(54,518,o),
(61,510,qs)
);
},
{
closed = 1;
nodes = (
(176,-1,o),
(211,14,o),
(243,41,o),
(269,76,o),
(279,97,q),
(296,290,l),
(289,252,o),
(263,169,o),
(226,98,o),
(182,53,o),
(157,53,qs),
(126,53,o),
(89,97,o),
(77,167,o),
(81,206,qs),
(89,282,o),
(155,366,o),
(198,366,qs),
(224,366,o),
(286,343,o),
(303,317,q),
(309,372,l),
(287,397,o),
(226,421,o),
(200,421,qs),
(156,421,o),
(80,372,o),
(29,278,o),
(21,209,qs),
(16,157,o),
(41,61,o),
(104,-1,o),
(156,-1,qs)
);
},
{
closed = 1;
nodes = (
(306,0,o),
(325,17,o),
(327,33,qs),
(364,380,ls),
(366,398,o),
(348,416,o),
(337,416,qs),
(326,416,o),
(306,400,o),
(304,384,qs),
(267,33,ls),
(266,17,o),
(283,0,o),
(295,0,qs)
);
}
);
userData = {
assembly = "MPPEM[ ]	/* MeasurePixelPerEm */
PUSHB[ ]	/* 1 value pushed */
47
LT[ ]	/* LessThan */
IF[ ]	/* If */
NPUSHB[ ]	/* 15 values pushed */
41 1 5 4 57 42 2 6 5 66 1 7 6 3 76
ELSE[ ]	/* Else */
NPUSHB[ ]	/* 15 values pushed */
41 1 5 8 57 42 2 6 5 66 1 7 6 3 76
EIF[ ]	/* EndIf */
MPPEM[ ]	/* MeasurePixelPerEm */
PUSHB[ ]	/* 1 value pushed */
47
LT[ ]	/* LessThan */
IF[ ]	/* If */
NPUSHB[ ]	/* 41 values pushed */
0 0 0 3 2 0 3 105 0 1 0 2 4 1 2 105 0 5 5 4 97 8 1 4 4 23 77 0 6 6 7 97 11 9 10 3 7 7 24 7 78
ELSE[ ]	/* Else */
NPUSHB[ ]	/* 45 values pushed */
0 0 0 3 2 0 3 105 0 1 0 2 4 1 2 105 0 8 8 17 77 0 5 5 4 97 0 4 4 23 77 0 6 6 7 97 11 9 10 3 7 7 24 7 78
EIF[ ]	/* EndIf */
NPUSHB[ ]	/* 24 values pushed */
64 64 31 31 64 77 64 76 71 69 31 63 31 62 37 37 44 34 41 34 36 12 7 29
CALL[ ]	/* CallFunction */";
};
vertWidth = 0;
width = 418;
},
{
layerId = "6F3CF9BF-DB96-4F2C-A4AA-F3DDDD8E5607";
shapes = (
{
closed = 1;
nodes = (
(235,42,o),
(252,70,q),
(250,51,ls),
(248,26,o),
(276,0,o),
(296,0,qs),
(315,0,o),
(348,23,o),
(351,46,qs),
(385,362,ls),
(387,389,o),
(355,416,o),
(335,416,qs),
(307,416,o),
(293,397,q),
(250,426,o),
(207,426,qs),
(138,426,o),
(33,314,o),
(22,212,qs),
(17,160,o),
(40,62,o),
(100,-1,o),
(152,-1,qs),
(187,-1,o)
);
},
{
closed = 1;
nodes = (
(174,333,o),
(206,333,qs),
(220,333,o),
(256,321,o),
(277,304,q),
(275,290,ls),
(257,191,o),
(201,92,o),
(168,92,qs),
(140,92,o),
(117,154,o),
(123,203,qs),
(129,266,o)
);
},
{
closed = 1;
nodes = (
(58,463,o),
(89,466,o),
(100,480,qs),
(111,493,o),
(139,510,o),
(159,510,qs),
(176,510,o),
(215,488,o),
(260,465,o),
(282,465,qs),
(315,465,o),
(376,493,o),
(396,516,qs),
(406,530,o),
(412,557,o),
(401,568,qs),
(391,578,o),
(359,574,o),
(350,560,qs),
(326,530,o),
(291,530,qs),
(276,530,o),
(237,553,o),
(193,575,o),
(169,575,qs),
(134,575,o),
(72,547,o),
(54,522,qs),
(44,510,o),
(40,482,o),
(49,472,qs)
);
}
);
userData = {
assembly = "MPPEM[ ]	/* MeasurePixelPerEm */
PUSHB[ ]	/* 1 value pushed */
25
LT[ ]	/* LessThan */
IF[ ]	/* If */
NPUSHB[ ]	/* 14 values pushed */
9 1 5 1 32 1 4 5 22 1 0 4 3 76
ELSE[ ]	/* Else */
NPUSHB[ ]	/* 14 values pushed */
9 1 5 2 32 1 4 5 22 1 0 4 3 76
EIF[ ]	/* EndIf */
MPPEM[ ]	/* MeasurePixelPerEm */
PUSHB[ ]	/* 1 value pushed */
25
LT[ ]	/* LessThan */
IF[ ]	/* If */
NPUSHB[ ]	/* 24 values pushed */
0 5 5 1 97 2 1 1 1 23 77 0 4 4 0 97 3 6 2 0 0 24 0 78
ELSE[ ]	/* Else */
NPUSHB[ ]	/* 28 values pushed */
0 2 2 17 77 0 5 5 1 97 0 1 1 23 77 0 4 4 0 97 3 6 2 0 0 24 0 78
EIF[ ]	/* EndIf */
NPUSHB[ ]	/* 19 values pushed */
1 0 36 34 29 27 19 17 12 10 8 6 0 24 1 24 7 7 22
CALL[ ]	/* CallFunction */";
};
vertWidth = 0;
width = 441;
}
);
note = atilde;
unicode = 227;
},
{
color = 6;
glyphname = ae;
kernLeft = o_left;
layers = (
{
layerId = m01;
shapes = (
{
closed = 1;
nodes = (
(299,55,o),
(283,99,o),
(283,138,cs),
(283,144,o),
(286,171,o),
(290,184,c),
(386,193,o),
(468,271,o),
(468,354,cs),
(468,385,o),
(447,416,o),
(406,416,cs),
(367,416,o),
(324,394,o),
(291,339,c),
(282,391,o),
(253,416,o),
(197,416,cs),
(143,416,o),
(97,384,o),
(72,340,cs),
(70,335,o),
(69,329,o),
(69,324,cs),
(69,307,o),
(79,295,o),
(97,295,cs),
(107,295,o),
(116,299,o),
(124,310,cs),
(144,340,o),
(170,361,o),
(198,361,cs),
(237,361,o),
(252,326,o),
(235,247,c),
(212,251,o),
(200,252,o),
(184,252,cs),
(143,252,o),
(103,242,o),
(76,221,cs),
(37,190,o),
(20,150,o),
(20,100,cs),
(20,43,o),
(48,0,o),
(101,0,cs),
(147,0,o),
(197,31,o),
(231,105,c),
(240,26,o),
(285,-1,o),
(330,-1,cs),
(365,-1,o),
(405,16,o),
(434,45,cs),
(442,53,o),
(466,74,o),
(466,94,cs),
(466,109,o),
(454,121,o),
(437,121,cs),
(420,121,o),
(411,108,o),
(400,94,cs),
(385,75,o),
(358,55,o),
(330,55,cs)
);
},
{
closed = 1;
nodes = (
(89,56,o),
(78,74,o),
(78,96,cs),
(78,134,o),
(88,156,o),
(112,176,cs),
(130,191,o),
(156,199,o),
(182,199,cs),
(191,199,o),
(204,198,o),
(220,195,c),
(197,133,o),
(145,56,o),
(104,56,cs)
);
},
{
closed = 1;
nodes = (
(408,362,o),
(413,356,o),
(413,350,cs),
(413,311,o),
(361,246,o),
(300,240,c),
(310,277,o),
(360,362,o),
(400,362,cs)
);
}
);
vertWidth = 0;
width = 529;
},
{
layerId = "6F3CF9BF-DB96-4F2C-A4AA-F3DDDD8E5607";
shapes = (
{
closed = 1;
nodes = (
(319,64,o),
(302,111,o),
(302,153,cs),
(302,159,o),
(305,188,o),
(309,202,c),
(412,212,o),
(500,296,o),
(500,385,cs),
(500,418,o),
(478,451,o),
(434,451,cs),
(392,451,o),
(346,427,o),
(310,368,c),
(301,424,o),
(270,451,o),
(210,451,cs),
(152,451,o),
(102,417,o),
(76,370,cs),
(73,364,o),
(72,358,o),
(72,352,cs),
(72,334,o),
(83,321,o),
(102,321,cs),
(113,321,o),
(123,326,o),
(131,337,cs),
(153,370,o),
(181,392,o),
(211,392,cs),
(252,392,o),
(269,355,o),
(250,270,c),
(226,274,o),
(213,275,o),
(196,275,cs),
(152,275,o),
(109,264,o),
(80,242,cs),
(38,209,o),
(20,166,o),
(20,112,cs),
(20,51,o),
(50,5,o),
(107,5,cs),
(156,5,o),
(210,38,o),
(246,118,c),
(256,33,o),
(304,4,o),
(352,4,cs),
(390,4,o),
(433,22,o),
(464,53,cs),
(472,62,o),
(498,84,o),
(498,106,cs),
(498,122,o),
(485,135,o),
(467,135,cs),
(449,135,o),
(439,121,o),
(427,106,cs),
(411,85,o),
(382,64,o),
(352,64,cs)
);
},
{
closed = 1;
nodes = (
(94,65,o),
(82,84,o),
(82,108,cs),
(82,149,o),
(93,172,o),
(119,194,cs),
(138,210,o),
(166,218,o),
(194,218,cs),
(203,218,o),
(217,217,o),
(234,214,c),
(210,148,o),
(154,65,o),
(110,65,cs)
);
},
{
closed = 1;
nodes = (
(436,393,o),
(441,387,o),
(441,380,cs),
(441,338,o),
(385,269,o),
(320,262,c),
(331,302,o),
(384,393,o),
(427,393,cs)
);
}
);
width = 561;
}
);
unicode = 230;
},
{
glyphname = b;
layers = (
{
layerId = m01;
shapes = (
{
closed = 1;
nodes = (
(85,12,o),
(87,25,q),
(108,9,o),
(159,-1,o),
(182,-1,qs),
(248,-1,o),
(350,99,o),
(360,202,qs),
(366,255,o),
(341,355,o),
(278,421,o),
(226,421,qs),
(195,421,o),
(141,378,o),
(121,348,q),
(163,741,ls),
(165,755,o),
(146,772,o),
(133,772,qs),
(123,772,o),
(105,761,o),
(103,747,qs),
(27,32,ls),
(26,16,o),
(44,0,o),
(57,0,qs),
(67,0,o)
);
},
{
closed = 1;
nodes = (
(292,318,o),
(305,245,o),
(301,206,qs),
(293,130,o),
(227,53,o),
(183,53,qs),
(163,53,o),
(112,62,o),
(93,78,q),
(106,205,l),
(119,240,o),
(156,315,o),
(201,366,o),
(225,366,qs),
(256,366,o)
);
}
);
userData = {
assembly = "NPUSHB[ ]	/* 64 values pushed */
32 11 2 5 4 24 3 2 0 5 2 76 0 1 1 14 77 7 1 4 4 2 97 0 2 2 23 77 0 5 5 0 97 3 6 2 0 0 15 0 78 28 27 1 0 36 34 27 41 28 41 22 20 15 13 8 6 0 26 1 26 8 7 22
CALL[ ]	/* CallFunction */";
};
vertWidth = 0;
width = 422;
},
{
layerId = "6F3CF9BF-DB96-4F2C-A4AA-F3DDDD8E5607";
shapes = (
{
closed = 1;
nodes = (
(122,25,q),
(162,-1,o),
(208,-1,qs),
(254,-1,o),
(333,47,o),
(387,140,o),
(394,209,qs),
(401,272,o),
(376,370,o),
(313,426,o),
(266,426,qs),
(237,426,o),
(188,397,o),
(168,371,q),
(205,718,ls),
(207,740,o),
(182,772,o),
(156,772,qs),
(133,772,o),
(104,745,o),
(102,724,qs),
(30,58,ls),
(27,31,o),
(53,0,o),
(78,0,qs),
(106,0,o)
);
},
{
closed = 1;
nodes = (
(298,267,o),
(292,217,qs),
(285,154,o),
(240,89,o),
(209,89,qs),
(192,89,o),
(160,98,o),
(140,117,q),
(148,191,l),
(170,255,o),
(225,333,o),
(247,333,qs),
(275,333,o)
);
}
);
userData = {
assembly = "NPUSHB[ ]	/* 66 values pushed */
11 1 4 2 30 1 5 4 24 1 0 5 3 76 0 1 1 14 77 7 1 4 4 2 97 0 2 2 23 77 0 5 5 0 98 3 6 2 0 0 15 0 78 27 26 1 0 34 32 26 38 27 38 23 21 15 13 8 6 0 25 1 25 8 7 22
CALL[ ]	/* CallFunction */";
};
vertWidth = 0;
width = 456;
}
);
note = b;
unicode = 98;
},
{
glyphname = c;
kernLeft = a;
layers = (
{
layerId = m01;
shapes = (
{
closed = 1;
nodes = (
(276,51,o),
(298,91,qs),
(303,100,o),
(297,122,o),
(286,128,qs),
(275,135,o),
(252,129,o),
(247,120,qs),
(231,88,o),
(185,53,o),
(162,53,qs),
(129,53,o),
(90,97,o),
(77,167,o),
(81,206,qs),
(89,282,o),
(155,366,o),
(198,366,qs),
(219,366,o),
(250,345,o),
(259,330,qs),
(264,323,o),
(283,317,o),
(295,323,qs),
(306,329,o),
(311,351,o),
(307,358,qs),
(290,384,o),
(236,421,o),
(200,421,qs),
(134,421,o),
(32,312,o),
(21,209,qs),
(16,157,o),
(41,61,o),
(104,-1,o),
(156,-1,qs),
(206,-1,o)
);
}
);
userData = {
assembly = "NPUSHB[ ]	/* 37 values pushed */
0 2 2 1 97 0 1 1 23 77 0 3 3 0 97 4 1 0 0 24 0 78 1 0 27 25 20 18 8 6 0 37 1 37 5 7 22
CALL[ ]	/* CallFunction */";
};
vertWidth = 0;
width = 373;
},
{
layerId = "6F3CF9BF-DB96-4F2C-A4AA-F3DDDD8E5607";
shapes = (
{
closed = 1;
nodes = (
(299,54,o),
(321,92,qs),
(329,108,o),
(320,143,o),
(303,151,qs),
(285,162,o),
(249,152,o),
(241,137,qs),
(213,85,o),
(180,85,qs),
(148,85,o),
(120,156,o),
(126,213,qs),
(133,277,o),
(181,338,o),
(213,338,qs),
(229,338,o),
(248,327,o),
(254,318,qs),
(263,305,o),
(295,295,o),
(312,305,qs),
(330,315,o),
(337,351,o),
(329,363,qs),
(312,390,o),
(253,426,o),
(215,426,qs),
(170,426,o),
(88,379,o),
(30,286,o),
(23,219,qs),
(16,154,o),
(47,53,o),
(120,-4,o),
(175,-4,qs),
(227,-4,o)
);
}
);
userData = {
assembly = "NPUSHB[ ]	/* 37 values pushed */
0 2 2 1 97 0 1 1 23 77 0 3 3 0 97 4 1 0 0 21 0 78 1 0 27 25 21 19 9 7 0 36 1 36 5 7 22
CALL[ ]	/* CallFunction */";
};
vertWidth = 0;
width = 397;
}
);
note = c;
unicode = 99;
},
{
color = 6;
glyphname = ccedilla;
kernLeft = o_left;
layers = (
{
layerId = m01;
shapes = (
{
closed = 1;
nodes = (
(222,-1,o),
(268,38,o),
(298,91,cs),
(304,103,o),
(301,120,o),
(286,128,cs),
(271,137,o),
(253,132,o),
(247,120,cs),
(225,77,o),
(192,53,o),
(162,53,cs),
(95,53,o),
(72,128,o),
(81,206,cs),
(91,307,o),
(140,366,o),
(198,366,cs),
(226,366,o),
(247,350,o),
(259,330,cs),
(265,321,o),
(279,315,o),
(295,323,cs),
(309,331,o),
(312,349,o),
(307,358,cs),
(284,393,o),
(248,421,o),
(200,421,cs),
(112,421,o),
(36,346,o),
(21,209,cs),
(11,105,o),
(52,-1,o),
(156,-1,cs)
);
},
{
attr = {
fill = "1";
};
closed = 1;
nodes = (
(126,0,l),
(97,-47,ls),
(94,-52,o),
(92,-58,o),
(92,-63,cs),
(92,-79,o),
(104,-84,o),
(114,-84,cs),
(126,-84,o),
(130,-80,o),
(146,-80,cs),
(166,-80,o),
(173,-90,o),
(173,-102,cs),
(173,-117,o),
(156,-125,o),
(133,-125,cs),
(106,-125,o),
(95,-111,o),
(82,-111,cs),
(70,-111,o),
(61,-120,o),
(61,-132,cs),
(61,-141,o),
(66,-147,o),
(74,-152,cs),
(88,-161,o),
(109,-168,o),
(131,-168,cs),
(179,-168,o),
(224,-147,o),
(224,-101,cs),
(224,-64,o),
(193,-38,o),
(146,-45,c),
(175,1,l),
(175,1,o),
(175,2,o),
(176,3,c)
);
}
);
vertWidth = 0;
width = 373;
},
{
layerId = "6F3CF9BF-DB96-4F2C-A4AA-F3DDDD8E5607";
shapes = (
{
closed = 1;
nodes = (
(299,54,o),
(321,92,qs),
(329,108,o),
(320,143,o),
(303,151,qs),
(285,162,o),
(249,152,o),
(241,137,qs),
(213,85,o),
(180,85,qs),
(148,85,o),
(120,156,o),
(126,213,qs),
(133,277,o),
(181,338,o),
(213,338,qs),
(229,338,o),
(248,327,o),
(254,318,qs),
(263,305,o),
(295,295,o),
(312,305,qs),
(330,315,o),
(337,351,o),
(329,363,qs),
(312,390,o),
(253,426,o),
(215,426,qs),
(170,426,o),
(88,379,o),
(30,286,o),
(23,219,qs),
(16,154,o),
(47,53,o),
(120,-4,o),
(175,-4,qs),
(227,-4,o)
);
},
{
closed = 0;
nodes = (
(167,0,ls)
);
},
{
attr = {
fill = "1";
};
closed = 1;
nodes = (
(135,1,l),
(103,-50,ls),
(100,-56,o),
(98,-62,o),
(98,-67,cs),
(98,-85,o),
(111,-90,o),
(122,-90,cs),
(135,-90,o),
(139,-86,o),
(156,-86,cs),
(178,-86,o),
(185,-97,o),
(185,-110,cs),
(185,-126,o),
(167,-134,o),
(142,-134,cs),
(113,-134,o),
(101,-119,o),
(87,-119,cs),
(74,-119,o),
(64,-129,o),
(64,-142,cs),
(64,-152,o),
(70,-158,o),
(78,-164,cs),
(94,-173,o),
(116,-181,o),
(140,-181,cs),
(192,-181,o),
(241,-158,o),
(241,-109,cs),
(241,-68,o),
(207,-40,o),
(156,-48,c),
(188,2,l),
(188,2,o),
(188,3,o),
(189,4,c)
);
}
);
userData = {
assembly = "NPUSHB[ ]	/* 37 values pushed */
0 2 2 1 97 0 1 1 23 77 0 3 3 0 97 4 1 0 0 21 0 78 1 0 27 25 21 19 9 7 0 36 1 36 5 7 22
CALL[ ]	/* CallFunction */";
};
vertWidth = 0;
width = 397;
}
);
unicode = 231;
},
{
glyphname = d;
kernLeft = a;
layers = (
{
layerId = m01;
shapes = (
{
closed = 1;
nodes = (
(252,48,o),
(272,84,q),
(267,33,ls),
(266,17,o),
(283,0,o),
(295,0,qs),
(306,0,o),
(325,17,o),
(327,33,qs),
(400,737,ls),
(402,754,o),
(385,772,o),
(374,772,qs),
(363,772,o),
(343,757,o),
(341,740,qs),
(303,378,l),
(281,400,o),
(225,421,o),
(200,421,qs),
(134,421,o),
(32,312,o),
(21,209,qs),
(16,157,o),
(41,61,o),
(104,-1,o),
(156,-1,qs),
(192,-1,o)
);
},
{
closed = 1;
nodes = (
(155,366,o),
(198,366,qs),
(222,366,o),
(279,347,o),
(298,324,q),
(292,268,l),
(284,231,o),
(257,156,o),
(222,92,o),
(180,53,o),
(157,53,qs),
(126,53,o),
(89,97,o),
(77,167,o),
(81,206,qs),
(89,282,o)
);
}
);
userData = {
assembly = "NPUSHB[ ]	/* 62 values pushed */
10 1 5 1 38 25 2 4 5 24 1 0 4 3 76 0 2 2 14 77 0 5 5 1 97 0 1 1 23 77 0 4 4 0 97 3 6 2 0 0 24 0 78 1 0 42 40 33 31 22 20 15 13 8 6 0 27 1 27 7 7 22
CALL[ ]	/* CallFunction */";
};
vertWidth = 0;
width = 430;
},
{
layerId = "6F3CF9BF-DB96-4F2C-A4AA-F3DDDD8E5607";
shapes = (
{
closed = 1;
nodes = (
(235,42,o),
(252,70,q),
(251,59,ls),
(248,31,o),
(273,0,o),
(298,0,qs),
(320,0,o),
(352,33,o),
(355,59,qs),
(425,716,ls),
(427,740,o),
(402,772,o),
(377,772,qs),
(354,772,o),
(324,744,o),
(322,722,qs),
(287,400,l),
(246,426,o),
(207,426,qs),
(138,426,o),
(33,314,o),
(22,212,qs),
(17,160,o),
(40,62,o),
(100,-1,o),
(152,-1,qs),
(187,-1,o)
);
},
{
closed = 1;
nodes = (
(174,333,o),
(206,333,qs),
(220,333,o),
(257,321,o),
(277,304,q),
(277,300,l),
(260,197,o),
(203,92,o),
(168,92,qs),
(140,92,o),
(117,154,o),
(123,203,qs),
(129,266,o)
);
}
);
userData = {
assembly = "NPUSHB[ ]	/* 61 values pushed */
9 1 5 1 33 1 4 5 24 1 0 4 3 76 0 2 2 14 77 0 5 5 1 97 0 1 1 23 77 0 4 4 0 97 3 6 2 0 0 24 0 78 1 0 38 36 31 29 21 19 14 12 8 6 0 26 1 26 7 7 22
CALL[ ]	/* CallFunction */";
};
vertWidth = 0;
width = 456;
}
);
note = d;
unicode = 100;
},
{
glyphname = e;
kernLeft = a;
layers = (
{
layerId = m01;
shapes = (
{
closed = 1;
nodes = (
(276,51,o),
(298,91,qs),
(303,100,o),
(297,122,o),
(286,128,qs),
(275,135,o),
(252,129,o),
(247,120,qs),
(231,88,o),
(185,53,o),
(162,53,qs),
(128,53,o),
(90,98,o),
(83,132,q),
(119,155,o),
(198,207,o),
(268,263,o),
(312,316,o),
(312,339,qs),
(312,361,o),
(280,398,o),
(229,421,o),
(200,421,qs),
(134,421,o),
(32,312,o),
(21,209,qs),
(16,157,o),
(41,61,o),
(104,-1,o),
(156,-1,qs),
(206,-1,o)
);
},
{
closed = 1;
nodes = (
(155,366,o),
(198,366,qs),
(226,366,o),
(252,345,o),
(252,334,qs),
(252,325,o),
(219,291,o),
(167,250,o),
(107,209,o),
(80,192,q),
(80,199,o),
(81,206,qs),
(89,282,o)
);
}
);
userData = {
assembly = "NPUSHB[ ]	/* 44 values pushed */
33 16 2 2 3 1 76 0 3 3 1 97 0 1 1 23 77 0 2 2 0 97 4 1 0 0 24 0 78 1 0 42 40 20 18 8 6 0 30 1 30 5 7 22
CALL[ ]	/* CallFunction */";
};
vertWidth = 0;
width = 373;
},
{
layerId = "6F3CF9BF-DB96-4F2C-A4AA-F3DDDD8E5607";
shapes = (
{
closed = 1;
nodes = (
(309,48,o),
(333,91,qs),
(342,108,o),
(330,145,o),
(313,155,qs),
(293,167,o),
(260,156,o),
(251,138,qs),
(239,115,o),
(198,89,o),
(177,89,qs),
(158,89,o),
(133,110,o),
(125,128,q),
(232,199,o),
(335,292,o),
(335,332,qs),
(335,371,o),
(274,426,o),
(222,426,qs),
(176,426,o),
(90,378,o),
(30,285,o),
(22,217,qs),
(18,178,o),
(31,100,o),
(66,35,o),
(125,-4,o),
(168,-4,qs),
(222,-4,o)
);
},
{
closed = 1;
nodes = (
(239,324,o),
(239,318,qs),
(239,305,o),
(171,246,o),
(118,212,q),
(124,272,o),
(184,334,o),
(216,334,qs),
(229,334,o)
);
}
);
userData = {
assembly = "NPUSHB[ ]	/* 50 values pushed */
36 33 15 3 2 3 1 76 5 1 3 3 1 97 0 1 1 23 77 0 2 2 0 97 4 1 0 0 21 0 78 31 30 1 0 30 38 31 38 19 17 10 8 0 29 1 29 6 7 22
CALL[ ]	/* CallFunction */";
};
vertWidth = 0;
width = 410;
}
);
note = e;
unicode = 101;
},
{
glyphname = eacute;
kernLeft = o_left;
layers = (
{
layerId = m01;
shapes = (
{
closed = 1;
nodes = (
(119,520,o),
(113,511,o),
(113,505,qs),
(113,497,o),
(126,484,o),
(135,484,qs),
(140,484,o),
(148,488,o),
(150,490,qs),
(246,574,ls),
(252,579,o),
(256,592,o),
(256,595,qs),
(256,605,o),
(240,620,o),
(231,620,qs),
(222,620,o),
(213,613,q),
(121,522,ls)
);
},
{
closed = 1;
nodes = (
(206,-1,o),
(276,51,o),
(298,91,qs),
(303,100,o),
(297,122,o),
(286,128,qs),
(275,135,o),
(252,129,o),
(247,120,qs),
(231,88,o),
(185,53,o),
(162,53,qs),
(129,53,o),
(90,97,o),
(77,167,o),
(81,206,qs),
(89,282,o),
(155,366,o),
(198,366,qs),
(226,366,o),
(252,345,o),
(252,334,qs),
(252,324,o),
(217,289,o),
(161,246,o),
(98,204,o),
(71,187,q),
(78,129,l),
(114,152,o),
(195,205,o),
(267,261,o),
(312,316,o),
(312,339,qs),
(312,361,o),
(280,398,o),
(229,421,o),
(200,421,qs),
(156,421,o),
(80,372,o),
(29,278,o),
(21,209,qs),
(17,170,o),
(29,95,o),
(62,35,o),
(117,-1,o),
(156,-1,qs)
);
}
);
userData = {
assembly = "NPUSHB[ ]	/* 58 values pushed */
5 1 1 0 36 1 4 3 2 76 0 0 1 0 133 0 1 2 1 133 0 3 3 2 97 0 2 2 23 77 0 4 4 5 97 6 1 5 5 24 5 78 19 19 19 64 19 63 53 51 46 44 45 40 33 7 7 25
CALL[ ]	/* CallFunction */";
};
vertWidth = 0;
width = 373;
},
{
layerId = "6F3CF9BF-DB96-4F2C-A4AA-F3DDDD8E5607";
shapes = (
{
closed = 1;
nodes = (
(309,48,o),
(333,91,qs),
(342,108,o),
(330,145,o),
(313,155,qs),
(293,167,o),
(260,156,o),
(251,138,qs),
(239,115,o),
(198,89,o),
(177,89,qs),
(158,89,o),
(133,110,o),
(125,128,q),
(232,199,o),
(335,292,o),
(335,332,qs),
(335,371,o),
(274,426,o),
(222,426,qs),
(176,426,o),
(90,378,o),
(30,285,o),
(22,217,qs),
(18,178,o),
(31,100,o),
(66,35,o),
(125,-4,o),
(168,-4,qs),
(222,-4,o)
);
},
{
closed = 1;
nodes = (
(239,324,o),
(239,318,qs),
(239,305,o),
(171,246,o),
(118,212,q),
(124,272,o),
(184,334,o),
(216,334,qs),
(229,334,o)
);
},
{
closed = 1;
nodes = (
(157,522,o),
(153,513,o),
(153,507,qs),
(153,500,o),
(164,487,o),
(173,487,qs),
(176,487,o),
(184,491,o),
(186,494,qs),
(278,572,ls),
(284,578,o),
(288,590,o),
(288,593,qs),
(288,603,o),
(272,617,o),
(264,617,qs),
(255,617,o),
(246,610,q),
(158,524,ls)
);
}
);
userData = {
assembly = "NPUSHB[ ]	/* 50 values pushed */
36 33 15 3 2 3 1 76 5 1 3 3 1 97 0 1 1 23 77 0 2 2 0 97 4 1 0 0 21 0 78 31 30 1 0 30 38 31 38 19 17 10 8 0 29 1 29 6 7 22
CALL[ ]	/* CallFunction */";
};
vertWidth = 0;
width = 410;
}
);
note = eacute;
unicode = 233;
},
{
glyphname = egrave;
kernLeft = o_left;
layers = (
{
layerId = m01;
shapes = (
{
closed = 1;
nodes = (
(206,-1,o),
(276,51,o),
(298,91,qs),
(303,100,o),
(297,122,o),
(286,128,qs),
(275,135,o),
(252,129,o),
(247,120,qs),
(231,88,o),
(185,53,o),
(162,53,qs),
(129,53,o),
(90,97,o),
(77,167,o),
(81,206,qs),
(89,282,o),
(155,366,o),
(198,366,qs),
(226,366,o),
(252,345,o),
(252,334,qs),
(252,324,o),
(217,289,o),
(161,246,o),
(98,204,o),
(71,187,q),
(78,129,l),
(114,152,o),
(195,205,o),
(267,261,o),
(312,316,o),
(312,339,qs),
(312,361,o),
(280,398,o),
(229,421,o),
(200,421,qs),
(156,421,o),
(80,372,o),
(29,278,o),
(21,209,qs),
(17,170,o),
(29,95,o),
(62,35,o),
(117,-1,o),
(156,-1,qs)
);
},
{
closed = 1;
nodes = (
(142,613,l),
(133,620,o),
(124,620,qs),
(115,620,o),
(99,605,o),
(99,595,qs),
(99,592,o),
(103,579,o),
(109,574,qs),
(205,490,ls),
(207,488,o),
(215,484,o),
(220,484,qs),
(229,484,o),
(242,497,o),
(242,505,qs),
(242,511,o),
(236,520,o),
(234,522,qs)
);
}
);
userData = {
assembly = "NPUSHB[ ]	/* 10 values pushed */
5 1 0 1 36 1 4 3 2 76
MPPEM[ ]	/* MeasurePixelPerEm */
PUSHB[ ]	/* 1 value pushed */
20
LT[ ]	/* LessThan */
IF[ ]	/* If */
NPUSHB[ ]	/* 33 values pushed */
0 1 0 1 133 0 0 2 2 0 112 0 3 3 2 97 0 2 2 23 77 0 4 4 5 97 6 1 5 5 24 5 78
ELSE[ ]	/* Else */
NPUSHB[ ]	/* 32 values pushed */
0 1 0 1 133 0 0 2 0 133 0 3 3 2 97 0 2 2 23 77 0 4 4 5 97 6 1 5 5 24 5 78
EIF[ ]	/* EndIf */
NPUSHB[ ]	/* 16 values pushed */
19 19 19 64 19 63 53 51 46 44 45 40 33 7 7 25
CALL[ ]	/* CallFunction */";
};
vertWidth = 0;
width = 373;
},
{
layerId = "6F3CF9BF-DB96-4F2C-A4AA-F3DDDD8E5607";
shapes = (
{
closed = 1;
nodes = (
(309,48,o),
(333,91,qs),
(342,108,o),
(330,145,o),
(313,155,qs),
(293,167,o),
(260,156,o),
(251,138,qs),
(239,115,o),
(198,89,o),
(177,89,qs),
(158,89,o),
(133,110,o),
(125,128,q),
(232,199,o),
(335,292,o),
(335,332,qs),
(335,371,o),
(274,426,o),
(222,426,qs),
(176,426,o),
(90,378,o),
(30,285,o),
(22,217,qs),
(18,178,o),
(31,100,o),
(66,35,o),
(125,-4,o),
(168,-4,qs),
(222,-4,o)
);
},
{
closed = 1;
nodes = (
(239,324,o),
(239,318,qs),
(239,305,o),
(171,246,o),
(118,212,q),
(124,272,o),
(184,334,o),
(216,334,qs),
(229,334,o)
);
},
{
closed = 1;
nodes = (
(149,629,l),
(139,637,o),
(129,637,qs),
(119,637,o),
(102,620,o),
(102,609,qs),
(102,606,o),
(106,592,o),
(113,586,qs),
(219,494,ls),
(221,491,o),
(230,487,o),
(235,487,qs),
(245,487,o),
(259,501,o),
(259,510,qs),
(259,517,o),
(253,527,o),
(251,529,qs)
);
}
);
userData = {
assembly = "NPUSHB[ ]	/* 50 values pushed */
36 33 15 3 2 3 1 76 5 1 3 3 1 97 0 1 1 23 77 0 2 2 0 97 4 1 0 0 21 0 78 31 30 1 0 30 38 31 38 19 17 10 8 0 29 1 29 6 7 22
CALL[ ]	/* CallFunction */";
};
vertWidth = 0;
width = 410;
}
);
note = egrave;
unicode = 232;
},
{
glyphname = f;
layers = (
{
layerId = m01;
shapes = (
{
closed = 1;
nodes = (
(106,22,o),
(107,32,qs),
(142,362,l),
(235,362,ls),
(253,362,o),
(264,379,o),
(264,390,qs),
(264,401,o),
(249,416,o),
(232,416,qs),
(148,416,l),
(169,615,ls),
(174,665,o),
(209,718,o),
(236,718,qs),
(278,718,o),
(297,685,qs),
(302,678,o),
(321,672,o),
(333,678,qs),
(344,685,o),
(349,706,o),
(345,713,qs),
(328,739,o),
(274,772,o),
(238,772,qs),
(188,772,o),
(118,699,o),
(110,626,qs),
(88,416,l),
(27,416,ls),
(7,416,o),
(-6,401,o),
(-6,390,qs),
(-6,379,o),
(10,362,o),
(27,362,qs),
(82,362,l),
(48,33,ls),
(47,23,o),
(62,0,o),
(78,0,qs),
(94,0,o)
);
}
);
userData = {
assembly = "NPUSHB[ ]	/* 50 values pushed */
0 4 4 3 97 0 3 3 14 77 6 1 1 1 2 97 5 1 2 2 17 77 7 1 0 0 15 0 78 1 0 39 37 33 31 28 26 17 15 12 10 6 4 0 42 1 42 8 7 22
CALL[ ]	/* CallFunction */";
};
vertWidth = 0;
width = 274;
},
{
layerId = "6F3CF9BF-DB96-4F2C-A4AA-F3DDDD8E5607";
shapes = (
{
closed = 1;
nodes = (
(148,33,o),
(149,50,qs),
(178,323,l),
(244,323,ls),
(268,323,o),
(293,348,o),
(293,369,qs),
(293,391,o),
(267,416,o),
(243,416,qs),
(188,416,l),
(206,594,ls),
(216,679,o),
(248,679,qs),
(263,679,o),
(284,669,o),
(292,656,qs),
(300,643,o),
(331,630,o),
(350,640,qs),
(366,650,o),
(380,690,o),
(370,706,qs),
(351,736,o),
(290,772,o),
(250,772,qs),
(193,772,o),
(112,687,o),
(104,610,qs),
(84,416,l),
(45,416,ls),
(18,416,o),
(-9,391,o),
(-9,369,qs),
(-9,348,o),
(19,323,o),
(45,323,qs),
(74,323,l),
(46,56,ls),
(44,35,o),
(73,-1,o),
(99,-1,qs),
(124,-1,o)
);
}
);
userData = {
assembly = "NPUSHB[ ]	/* 56 values pushed */
40 1 0 1 1 76 0 4 4 3 97 0 3 3 14 77 6 1 1 1 2 97 5 1 2 2 17 77 7 1 0 0 24 0 78 1 0 39 37 33 31 29 27 17 15 12 10 6 4 0 42 1 42 8 7 22
CALL[ ]	/* CallFunction */";
};
vertWidth = 0;
width = 305;
}
);
note = f;
unicode = 102;
},
{
glyphname = g;
kernLeft = a;
layers = (
{
layerId = m01;
shapes = (
{
closed = 1;
nodes = (
(252,48,o),
(272,84,q),
(248,-146,ls),
(241,-218,o),
(174,-302,o),
(124,-302,qs),
(69,-302,o),
(37,-268,q),
(20,-253,o),
(4,-264,qs),
(-24,-283,o),
(0,-308,qs),
(22,-330,o),
(88,-356,o),
(122,-356,qs),
(198,-356,o),
(297,-243,o),
(308,-146,qs),
(364,380,ls),
(366,398,o),
(348,416,o),
(337,416,qs),
(326,416,o),
(306,400,o),
(304,384,qs),
(303,378,l),
(281,400,o),
(225,421,o),
(200,421,qs),
(134,421,o),
(32,312,o),
(21,209,qs),
(16,157,o),
(41,61,o),
(104,-1,o),
(156,-1,qs),
(192,-1,o)
);
},
{
closed = 1;
nodes = (
(155,366,o),
(198,366,qs),
(222,366,o),
(279,346,o),
(298,324,q),
(292,269,l),
(284,233,o),
(257,156,o),
(222,92,o),
(180,53,o),
(157,53,qs),
(126,53,o),
(89,97,o),
(77,167,o),
(81,206,qs),
(89,282,o)
);
}
);
userData = {
assembly = "MPPEM[ ]	/* MeasurePixelPerEm */
PUSHB[ ]	/* 1 value pushed */
47
LT[ ]	/* LessThan */
IF[ ]	/* If */
NPUSHB[ ]	/* 11 values pushed */
10 1 6 1 47 34 2 5 6 2 76
ELSE[ ]	/* Else */
NPUSHB[ ]	/* 11 values pushed */
10 1 6 2 47 34 2 5 6 2 76
EIF[ ]	/* EndIf */
MPPEM[ ]	/* MeasurePixelPerEm */
PUSHB[ ]	/* 1 value pushed */
47
LT[ ]	/* LessThan */
IF[ ]	/* If */
NPUSHB[ ]	/* 33 values pushed */
0 6 6 1 97 2 1 1 1 23 77 0 5 5 0 97 7 1 0 0 24 77 0 4 4 3 97 0 3 3 19 3 78
ELSE[ ]	/* Else */
NPUSHB[ ]	/* 37 values pushed */
0 2 2 17 77 0 6 6 1 97 0 1 1 23 77 0 5 5 0 97 7 1 0 0 24 77 0 4 4 3 97 0 3 3 19 3 78
EIF[ ]	/* EndIf */
NPUSHB[ ]	/* 21 values pushed */
1 0 51 49 42 40 31 29 22 20 15 13 8 6 0 36 1 36 8 7 22
CALL[ ]	/* CallFunction */";
};
vertWidth = 0;
width = 418;
},
{
layerId = "6F3CF9BF-DB96-4F2C-A4AA-F3DDDD8E5607";
shapes = (
{
closed = 1;
nodes = (
(235,42,o),
(252,70,q),
(230,-138,ls),
(223,-203,o),
(174,-263,o),
(136,-263,qs),
(92,-263,o),
(61,-231,qs),
(52,-222,o),
(25,-211,o),
(5,-223,qs),
(-13,-235,o),
(-20,-278,o),
(-4,-297,qs),
(15,-319,o),
(86,-356,o),
(130,-356,qs),
(211,-356,o),
(322,-248,o),
(333,-144,qs),
(387,356,ls),
(390,383,o),
(359,416,o),
(338,416,qs),
(312,416,o),
(296,395,q),
(251,426,o),
(207,426,qs),
(138,426,o),
(33,314,o),
(22,212,qs),
(17,160,o),
(40,62,o),
(100,-1,o),
(152,-1,qs),
(187,-1,o)
);
},
{
closed = 1;
nodes = (
(174,333,o),
(206,333,qs),
(220,333,o),
(257,321,o),
(277,303,q),
(260,198,o),
(203,92,o),
(168,92,qs),
(140,92,o),
(117,154,o),
(123,203,qs),
(129,266,o)
);
}
);
userData = {
assembly = "MPPEM[ ]	/* MeasurePixelPerEm */
PUSHB[ ]	/* 1 value pushed */
25
LT[ ]	/* LessThan */
IF[ ]	/* If */
NPUSHB[ ]	/* 14 values pushed */
9 1 6 1 42 1 5 6 33 1 0 5 3 76
ELSE[ ]	/* Else */
NPUSHB[ ]	/* 14 values pushed */
9 1 6 2 42 1 5 6 33 1 0 5 3 76
EIF[ ]	/* EndIf */
MPPEM[ ]	/* MeasurePixelPerEm */
PUSHB[ ]	/* 1 value pushed */
25
LT[ ]	/* LessThan */
IF[ ]	/* If */
NPUSHB[ ]	/* 33 values pushed */
0 6 6 1 97 2 1 1 1 23 77 0 5 5 0 97 7 1 0 0 24 77 0 4 4 3 97 0 3 3 19 3 78
ELSE[ ]	/* Else */
NPUSHB[ ]	/* 37 values pushed */
0 2 2 17 77 0 6 6 1 97 0 1 1 23 77 0 5 5 0 97 7 1 0 0 24 77 0 4 4 3 97 0 3 3 19 3 78
EIF[ ]	/* EndIf */
NPUSHB[ ]	/* 21 values pushed */
1 0 46 44 40 38 30 28 19 17 12 10 8 6 0 35 1 35 8 7 22
CALL[ ]	/* CallFunction */";
};
vertWidth = 0;
width = 444;
}
);
note = g;
unicode = 103;
},
{
glyphname = h;
layers = (
{
layerId = m01;
shapes = (
{
closed = 1;
nodes = (
(84,13,o),
(86,27,qs),
(103,184,l),
(149,280,o),
(216,362,o),
(249,362,qs),
(271,362,o),
(291,317,o),
(286,278,qs),
(258,37,ls),
(256,23,o),
(265,0,o),
(284,0,qs),
(307,0,o),
(315,25,o),
(316,37,qs),
(346,278,ls),
(354,344,o),
(304,421,o),
(253,421,qs),
(213,421,o),
(146,365,o),
(117,316,q),
(162,740,ls),
(164,757,o),
(148,772,o),
(137,772,qs),
(125,772,o),
(104,757,o),
(102,740,qs),
(26,27,ls),
(25,14,o),
(42,0,o),
(53,0,qs),
(65,0,o)
);
}
);
userData = {
assembly = "NPUSHB[ ]	/* 46 values pushed */
11 1 0 4 1 76 0 1 1 14 77 0 4 4 2 97 0 2 2 23 77 3 5 2 0 0 15 0 78 1 0 29 27 22 20 15 13 8 6 0 34 1 34 6 7 22
CALL[ ]	/* CallFunction */";
};
vertWidth = 0;
width = 411;
},
{
layerId = "6F3CF9BF-DB96-4F2C-A4AA-F3DDDD8E5607";
shapes = (
{
closed = 1;
nodes = (
(128,29,o),
(129,46,qs),
(147,206,l),
(189,277,o),
(251,332,o),
(267,332,qs),
(294,332,o),
(289,279,qs),
(262,55,ls),
(260,33,o),
(279,0,o),
(309,0,qs),
(338,0,o),
(359,33,o),
(361,50,qs),
(389,274,ls),
(398,344,o),
(345,426,o),
(293,426,qs),
(258,426,o),
(194,381,o),
(162,339,q),
(205,722,ls),
(211,772,o),
(161,772,qs),
(138,772,o),
(106,750,o),
(104,727,qs),
(29,53,ls),
(26,31,o),
(48,0,o),
(75,0,qs),
(106,0,o)
);
}
);
userData = {
assembly = "NPUSHB[ ]	/* 50 values pushed */
10 1 4 2 30 1 0 4 2 76 0 1 1 14 77 0 4 4 2 97 0 2 2 23 77 3 5 2 0 0 15 0 78 1 0 27 25 21 19 14 12 8 6 0 32 1 32 6 7 22
CALL[ ]	/* CallFunction */";
};
vertWidth = 0;
width = 456;
}
);
note = h;
unicode = 104;
},
{
glyphname = i;
layers = (
{
layerId = m01;
shapes = (
{
closed = 1;
nodes = (
(154,536,o),
(154,555,qs),
(154,575,o),
(127,600,o),
(109,600,qs),
(90,600,o),
(63,574,o),
(63,555,qs),
(63,536,o),
(92,508,o),
(109,508,qs),
(128,508,o)
);
},
{
closed = 1;
nodes = (
(87,17,o),
(88,33,qs),
(125,380,ls),
(127,398,o),
(110,416,o),
(99,416,qs),
(87,416,o),
(67,400,o),
(65,384,qs),
(29,33,ls),
(27,17,o),
(44,0,o),
(56,0,qs),
(67,0,o)
);
}
);
userData = {
assembly = "NPUSHB[ ]	/* 46 values pushed */
23 1 2 3 1 76 0 1 4 1 0 3 1 0 105 0 3 3 17 77 5 1 2 2 15 2 78 13 12 1 0 20 18 12 25 13 25 7 5 0 11 1 11 6 7 22
CALL[ ]	/* CallFunction */";
};
vertWidth = 0;
width = 191;
},
{
layerId = "6F3CF9BF-DB96-4F2C-A4AA-F3DDDD8E5607";
shapes = (
{
closed = 1;
nodes = (
(193,546,o),
(193,569,qs),
(193,591,o),
(158,628,o),
(132,628,qs),
(108,628,o),
(73,592,o),
(73,568,qs),
(73,543,o),
(109,507,o),
(132,507,qs),
(158,507,o)
);
},
{
closed = 1;
nodes = (
(128,24,o),
(131,46,qs),
(164,362,ls),
(166,388,o),
(137,416,o),
(117,416,qs),
(98,416,o),
(65,394,o),
(63,371,qs),
(30,51,ls),
(27,25,o),
(57,0,o),
(78,0,qs),
(97,0,o)
);
}
);
userData = {
assembly = "NPUSHB[ ]	/* 40 values pushed */
0 1 4 1 0 3 1 0 105 0 3 3 17 77 5 1 2 2 15 2 78 13 12 1 0 20 18 12 25 13 25 7 5 0 11 1 11 6 7 22
CALL[ ]	/* CallFunction */";
};
vertWidth = 0;
width = 233;
}
);
note = i;
unicode = 105;
},
{
color = 6;
glyphname = idotless;
layers = (
{
layerId = m01;
shapes = (
{
closed = 1;
nodes = (
(70,0,o),
(86,12,o),
(88,33,cs),
(125,380,ls),
(127,404,o),
(113,416,o),
(99,416,cs),
(83,416,o),
(68,405,o),
(65,384,cs),
(29,33,ls),
(26,11,o),
(40,0,o),
(56,0,cs)
);
}
);
vertWidth = 0;
width = 191;
},
{
layerId = "6F3CF9BF-DB96-4F2C-A4AA-F3DDDD8E5607";
shapes = (
{
closed = 1;
nodes = (
(128,24,o),
(131,46,qs),
(164,362,ls),
(166,388,o),
(137,416,o),
(117,416,qs),
(98,416,o),
(65,394,o),
(63,371,qs),
(30,51,ls),
(27,25,o),
(57,0,o),
(78,0,qs),
(97,0,o)
);
}
);
userData = {
assembly = "NPUSHB[ ]	/* 40 values pushed */
0 1 4 1 0 3 1 0 105 0 3 3 17 77 5 1 2 2 15 2 78 13 12 1 0 20 18 12 25 13 25 7 5 0 11 1 11 6 7 22
CALL[ ]	/* CallFunction */";
};
vertWidth = 0;
width = 233;
}
);
unicode = 305;
},
{
glyphname = iacute;
layers = (
{
layerId = m01;
shapes = (
{
closed = 1;
nodes = (
(79,520,o),
(73,511,o),
(73,505,qs),
(73,497,o),
(86,484,o),
(95,484,qs),
(100,484,o),
(108,488,o),
(110,490,qs),
(206,574,ls),
(212,579,o),
(216,592,o),
(216,595,qs),
(216,605,o),
(200,620,o),
(191,620,qs),
(182,620,o),
(173,613,q),
(81,522,ls)
);
},
{
closed = 1;
nodes = (
(67,0,o),
(87,17,o),
(88,33,qs),
(125,380,ls),
(127,398,o),
(110,416,o),
(99,416,qs),
(87,416,o),
(67,400,o),
(65,384,qs),
(29,33,ls),
(27,17,o),
(44,0,o),
(56,0,qs)
);
}
);
userData = {
assembly = "NPUSHB[ ]	/* 44 values pushed */
5 1 1 0 29 1 3 2 2 76 0 0 1 0 133 0 1 2 1 133 0 2 2 17 77 4 1 3 3 15 3 78 19 19 19 32 19 31 43 40 33 5 7 25
CALL[ ]	/* CallFunction */";
};
vertWidth = 0;
width = 191;
},
{
layerId = "6F3CF9BF-DB96-4F2C-A4AA-F3DDDD8E5607";
shapes = (
{
closed = 1;
nodes = (
(128,24,o),
(131,46,qs),
(164,362,ls),
(166,388,o),
(137,416,o),
(117,416,qs),
(98,416,o),
(65,394,o),
(63,371,qs),
(30,51,ls),
(27,25,o),
(57,0,o),
(78,0,qs),
(97,0,o)
);
},
{
closed = 1;
nodes = (
(88,518,o),
(82,507,o),
(82,500,qs),
(82,492,o),
(96,477,o),
(105,477,qs),
(109,477,o),
(119,481,o),
(120,485,qs),
(227,575,ls),
(233,582,o),
(239,596,o),
(239,600,qs),
(239,611,o),
(220,627,o),
(210,627,qs),
(201,627,o),
(190,619,q),
(89,519,ls)
);
}
);
userData = {
assembly = "NPUSHB[ ]	/* 40 values pushed */
0 1 4 1 0 3 1 0 105 0 3 3 17 77 5 1 2 2 15 2 78 13 12 1 0 20 18 12 25 13 25 7 5 0 11 1 11 6 7 22
CALL[ ]	/* CallFunction */";
};
vertWidth = 0;
width = 233;
}
);
note = iacute;
unicode = 237;
},
{
color = 6;
glyphname = icircumflex;
layers = (
{
layerId = m01;
shapes = (
{
closed = 1;
nodes = (
(70,0,o),
(86,12,o),
(88,33,cs),
(125,380,ls),
(127,404,o),
(113,416,o),
(99,416,cs),
(83,416,o),
(68,405,o),
(65,384,cs),
(29,33,ls),
(26,11,o),
(40,0,o),
(56,0,cs)
);
},
{
closed = 1;
nodes = (
(97,574,l),
(178,476,ls),
(185,468,o),
(194,468,qs),
(202,469,o),
(208,474,qs),
(214,479,o),
(216,497,o),
(210,504,qs),
(133,595,ls),
(128,601,o),
(118,602,qs),
(110,603,o),
(101,595,qs),
(-10,503,ls),
(-18,496,o),
(-18,489,qs),
(-18,481,o),
(-13,475,q),
(-7,470,o),
(0,468,q),
(10,467,o),
(18,474,qs),
(132,570,l)
);
}
);
vertWidth = 0;
width = 191;
},
{
layerId = "6F3CF9BF-DB96-4F2C-A4AA-F3DDDD8E5607";
shapes = (
{
closed = 1;
nodes = (
(128,24,o),
(131,46,qs),
(164,362,ls),
(166,388,o),
(137,416,o),
(117,416,qs),
(98,416,o),
(65,394,o),
(63,371,qs),
(30,51,ls),
(27,25,o),
(57,0,o),
(78,0,qs),
(97,0,o)
);
},
{
closed = 1;
nodes = (
(117,588,l),
(206,480,ls),
(214,471,o),
(224,471,qs),
(233,472,o),
(239,478,qs),
(246,483,o),
(248,503,o),
(241,511,qs),
(157,611,ls),
(151,618,o),
(140,619,qs),
(131,620,o),
(121,611,qs),
(-1,510,ls),
(-10,502,o),
(-10,494,qs),
(-10,485,o),
(-5,479,q),
(2,473,o),
(10,471,q),
(21,470,o),
(30,478,qs),
(155,584,l)
);
}
);
userData = {
assembly = "NPUSHB[ ]	/* 40 values pushed */
0 1 4 1 0 3 1 0 105 0 3 3 17 77 5 1 2 2 15 2 78 13 12 1 0 20 18 12 25 13 25 7 5 0 11 1 11 6 7 22
CALL[ ]	/* CallFunction */";
};
vertWidth = 0;
width = 233;
}
);
unicode = 238;
},
{
color = 6;
glyphname = idieresis;
layers = (
{
layerId = m01;
shapes = (
{
closed = 1;
nodes = (
(70,0,o),
(86,12,o),
(88,33,cs),
(125,380,ls),
(127,404,o),
(113,416,o),
(99,416,cs),
(83,416,o),
(68,405,o),
(65,384,cs),
(29,33,ls),
(26,11,o),
(40,0,o),
(56,0,cs)
);
},
{
closed = 1;
nodes = (
(12,506,o),
(34,484,o),
(49,484,qs),
(65,484,o),
(87,506,o),
(87,522,qs),
(87,537,o),
(65,559,o),
(49,559,qs),
(34,559,o),
(12,537,o),
(12,522,qs)
);
},
{
closed = 1;
nodes = (
(130,506,o),
(152,484,o),
(167,484,qs),
(183,484,o),
(205,506,o),
(205,522,qs),
(205,537,o),
(183,559,o),
(167,559,qs),
(152,559,o),
(130,537,o),
(130,522,qs)
);
}
);
vertWidth = 0;
width = 195;
},
{
layerId = "6F3CF9BF-DB96-4F2C-A4AA-F3DDDD8E5607";
shapes = (
{
closed = 1;
nodes = (
(128,24,o),
(131,46,qs),
(164,362,ls),
(166,388,o),
(137,416,o),
(117,416,qs),
(98,416,o),
(65,394,o),
(63,371,qs),
(30,51,ls),
(27,25,o),
(57,0,o),
(78,0,qs),
(97,0,o)
);
},
{
closed = 1;
nodes = (
(15,525,o),
(41,500,o),
(59,500,qs),
(77,500,o),
(103,525,o),
(103,544,qs),
(103,562,o),
(77,588,o),
(59,588,qs),
(41,588,o),
(15,562,o),
(15,544,qs)
);
},
{
closed = 1;
nodes = (
(154,525,o),
(180,500,o),
(197,500,qs),
(216,500,o),
(242,525,o),
(242,544,qs),
(242,562,o),
(216,588,o),
(197,588,qs),
(180,588,o),
(154,562,o),
(154,544,qs)
);
}
);
userData = {
assembly = "NPUSHB[ ]	/* 40 values pushed */
0 1 4 1 0 3 1 0 105 0 3 3 17 77 5 1 2 2 15 2 78 13 12 1 0 20 18 12 25 13 25 7 5 0 11 1 11 6 7 22
CALL[ ]	/* CallFunction */";
};
vertWidth = 0;
width = 233;
}
);
unicode = 239;
},
{
glyphname = igrave;
layers = (
{
layerId = m01;
shapes = (
{
closed = 1;
nodes = (
(67,0,o),
(87,17,o),
(88,33,qs),
(125,380,ls),
(127,398,o),
(110,416,o),
(99,416,qs),
(87,416,o),
(67,400,o),
(65,384,qs),
(29,33,ls),
(27,17,o),
(44,0,o),
(56,0,qs)
);
},
{
closed = 1;
nodes = (
(22,613,l),
(13,620,o),
(4,620,qs),
(-5,620,o),
(-21,605,o),
(-21,595,qs),
(-21,592,o),
(-17,579,o),
(-11,574,qs),
(85,490,ls),
(87,488,o),
(95,484,o),
(100,484,qs),
(109,484,o),
(122,497,o),
(122,505,qs),
(122,511,o),
(116,520,o),
(114,522,qs)
);
}
);
userData = {
assembly = "NPUSHB[ ]	/* 44 values pushed */
5 1 0 1 29 1 3 2 2 76 0 1 0 1 133 0 0 2 0 133 0 2 2 17 77 4 1 3 3 15 3 78 19 19 19 32 19 31 43 40 33 5 7 25
CALL[ ]	/* CallFunction */";
};
vertWidth = 0;
width = 191;
},
{
layerId = "6F3CF9BF-DB96-4F2C-A4AA-F3DDDD8E5607";
shapes = (
{
closed = 1;
nodes = (
(128,24,o),
(131,46,qs),
(164,362,ls),
(166,388,o),
(137,416,o),
(117,416,qs),
(98,416,o),
(65,394,o),
(63,371,qs),
(30,51,ls),
(27,25,o),
(57,0,o),
(78,0,qs),
(97,0,o)
);
},
{
closed = 1;
nodes = (
(29,619,l),
(19,627,o),
(9,627,qs),
(-1,627,o),
(-18,610,o),
(-18,599,qs),
(-18,596,o),
(-14,582,o),
(-7,576,qs),
(99,484,ls),
(101,481,o),
(110,477,o),
(115,477,qs),
(125,477,o),
(139,491,o),
(139,500,qs),
(139,507,o),
(133,517,o),
(131,519,qs)
);
}
);
userData = {
assembly = "NPUSHB[ ]	/* 40 values pushed */
0 1 4 1 0 3 1 0 105 0 3 3 17 77 5 1 2 2 15 2 78 13 12 1 0 20 18 12 25 13 25 7 5 0 11 1 11 6 7 22
CALL[ ]	/* CallFunction */";
};
vertWidth = 0;
width = 233;
}
);
note = igrave;
unicode = 236;
},
{
color = 6;
glyphname = imacron;
layers = (
{
layerId = m01;
shapes = (
{
closed = 1;
nodes = (
(70,0,o),
(86,12,o),
(88,33,cs),
(125,380,ls),
(127,404,o),
(113,416,o),
(99,416,cs),
(83,416,o),
(68,405,o),
(65,384,cs),
(29,33,ls),
(26,11,o),
(40,0,o),
(56,0,cs)
);
},
{
closed = 1;
nodes = (
(213,490,o),
(233,505,o),
(233,518,qs),
(233,531,o),
(215,545,o),
(198,545,qs),
(22,545,ls),
(6,545,o),
(-14,531,o),
(-14,518,qs),
(-14,505,o),
(4,490,o),
(20,490,qs),
(196,490,ls)
);
}
);
vertWidth = 0;
width = 191;
},
{
layerId = "6F3CF9BF-DB96-4F2C-A4AA-F3DDDD8E5607";
shapes = (
{
closed = 1;
nodes = (
(128,24,o),
(131,46,qs),
(164,362,ls),
(166,388,o),
(137,416,o),
(117,416,qs),
(98,416,o),
(65,394,o),
(63,371,qs),
(30,51,ls),
(27,25,o),
(57,0,o),
(78,0,qs),
(97,0,o)
);
},
{
closed = 1;
nodes = (
(242,487,o),
(266,505,o),
(266,521,qs),
(266,537,o),
(244,554,o),
(223,554,qs),
(9,554,ls),
(-11,554,o),
(-35,537,o),
(-35,521,qs),
(-35,505,o),
(-13,487,o),
(6,487,qs),
(221,487,ls)
);
}
);
userData = {
assembly = "NPUSHB[ ]	/* 40 values pushed */
0 1 4 1 0 3 1 0 105 0 3 3 17 77 5 1 2 2 15 2 78 13 12 1 0 20 18 12 25 13 25 7 5 0 11 1 11 6 7 22
CALL[ ]	/* CallFunction */";
};
vertWidth = 0;
width = 233;
}
);
unicode = 299;
},
{
glyphname = j;
layers = (
{
layerId = m01;
shapes = (
{
closed = 1;
nodes = (
(154,536,o),
(154,555,qs),
(154,575,o),
(127,600,o),
(109,600,qs),
(90,600,o),
(63,574,o),
(63,555,qs),
(63,536,o),
(92,508,o),
(109,508,qs),
(128,508,o)
);
},
{
closed = 1;
nodes = (
(59,-242,o),
(69,-145,qs),
(125,380,ls),
(127,398,o),
(110,416,o),
(99,416,qs),
(87,416,o),
(67,400,o),
(65,384,qs),
(10,-145,ls),
(2,-217,o),
(-65,-301,o),
(-115,-301,qs),
(-140,-301,o),
(-187,-282,o),
(-202,-267,qs),
(-209,-260,o),
(-227,-257,o),
(-235,-263,qs),
(-248,-271,o),
(-250,-295,o),
(-239,-307,qs),
(-217,-329,o),
(-151,-355,o),
(-116,-355,qs),
(-40,-355,o)
);
}
);
userData = {
assembly = "NPUSHB[ ]	/* 47 values pushed */
0 1 5 1 0 4 1 0 105 0 4 4 17 77 0 3 3 2 97 6 1 2 2 19 2 78 13 12 1 0 32 30 25 23 12 37 13 37 7 5 0 11 1 11 7 7 22
CALL[ ]	/* CallFunction */";
};
vertWidth = 0;
width = 191;
},
{
layerId = "6F3CF9BF-DB96-4F2C-A4AA-F3DDDD8E5607";
shapes = (
{
closed = 1;
nodes = (
(193,546,o),
(193,569,qs),
(193,591,o),
(158,628,o),
(132,628,qs),
(108,628,o),
(73,592,o),
(73,568,qs),
(73,543,o),
(109,507,o),
(132,507,qs),
(158,507,o)
);
},
{
closed = 1;
nodes = (
(99,-247,o),
(110,-144,qs),
(164,362,ls),
(167,388,o),
(137,416,o),
(117,416,qs),
(98,416,o),
(65,394,o),
(63,371,qs),
(9,-138,ls),
(2,-203,o),
(-48,-263,o),
(-86,-263,qs),
(-129,-263,o),
(-160,-230,qs),
(-169,-221,o),
(-197,-210,o),
(-216,-223,qs),
(-234,-235,o),
(-242,-278,o),
(-225,-297,qs),
(-206,-319,o),
(-135,-356,o),
(-91,-356,qs),
(-10,-356,o)
);
}
);
userData = {
assembly = "NPUSHB[ ]	/* 47 values pushed */
0 1 5 1 0 4 1 0 105 0 4 4 17 77 0 3 3 2 97 6 1 2 2 19 2 78 13 12 1 0 31 29 24 22 12 36 13 36 7 5 0 11 1 11 7 7 22
CALL[ ]	/* CallFunction */";
};
vertWidth = 0;
width = 233;
}
);
note = j;
unicode = 106;
},
{
glyphname = k;
layers = (
{
layerId = m01;
shapes = (
{
closed = 1;
nodes = (
(85,14,o),
(87,31,qs),
(105,194,l),
(264,23,ls),
(272,14,o),
(289,0,o),
(301,0,qs),
(309,0,o),
(325,11,o),
(327,21,qs),
(328,28,o),
(325,43,o),
(317,51,qs),
(145,237,l),
(312,361,ls),
(323,369,o),
(333,386,o),
(334,393,q),
(334,416,o),
(309,416,qs),
(294,417,o),
(272,400,qs),
(114,282,l),
(163,738,ls),
(165,757,o),
(147,772,o),
(133,772,qs),
(120,772,o),
(105,754,o),
(103,739,qs),
(27,31,ls),
(26,17,o),
(42,0,o),
(53,0,qs),
(67,0,o)
);
}
);
userData = {
assembly = "NPUSHB[ ]	/* 42 values pushed */
31 20 16 11 4 0 2 1 76 0 1 1 14 77 0 2 2 17 77 3 4 2 0 0 15 0 78 1 0 28 26 15 13 8 6 0 34 1 34 5 7 22
CALL[ ]	/* CallFunction */";
};
vertWidth = 0;
width = 407;
},
{
layerId = "6F3CF9BF-DB96-4F2C-A4AA-F3DDDD8E5607";
shapes = (
{
closed = 1;
nodes = (
(130,26,o),
(133,53,qs),
(145,166,l),
(257,30,l),
(279,0,o),
(308,0,qs),
(325,0,o),
(352,20,o),
(356,38,qs),
(358,49,o),
(354,72,o),
(343,86,qs),
(220,234,l),
(343,322,ls),
(357,332,o),
(369,357,o),
(370,369,qs),
(370,386,o),
(347,415,o),
(324,416,qs),
(303,417,o),
(273,396,qs),
(161,314,l),
(205,717,ls),
(207,740,o),
(183,772,o),
(156,772,qs),
(132,772,o),
(104,743,o),
(102,721,qs),
(30,58,ls),
(27,31,o),
(52,0,o),
(77,0,qs),
(100,0,o)
);
}
);
userData = {
assembly = "NPUSHB[ ]	/* 42 values pushed */
31 21 17 11 4 0 2 1 76 0 1 1 14 77 0 2 2 17 77 3 4 2 0 0 15 0 78 1 0 29 27 15 13 8 6 0 34 1 34 5 7 22
CALL[ ]	/* CallFunction */";
};
vertWidth = 0;
width = 436;
}
);
note = k;
unicode = 107;
},
{
glyphname = l;
layers = (
{
layerId = m01;
shapes = (
{
closed = 1;
nodes = (
(85,14,o),
(87,31,qs),
(163,738,ls),
(165,757,o),
(147,772,o),
(133,772,qs),
(120,772,o),
(105,754,o),
(103,739,qs),
(27,31,ls),
(26,17,o),
(42,0,o),
(53,0,qs),
(67,0,o)
);
}
);
userData = {
assembly = "NPUSHB[ ]	/* 23 values pushed */
0 1 1 14 77 2 1 0 0 15 0 78 1 0 8 6 0 13 1 13 3 7 22
CALL[ ]	/* CallFunction */";
};
vertWidth = 0;
width = 192;
},
{
layerId = "6F3CF9BF-DB96-4F2C-A4AA-F3DDDD8E5607";
shapes = (
{
closed = 1;
nodes = (
(130,26,o),
(133,53,qs),
(205,717,ls),
(207,740,o),
(183,772,o),
(156,772,qs),
(132,772,o),
(104,743,o),
(102,721,qs),
(30,58,ls),
(27,31,o),
(52,0,o),
(77,0,qs),
(100,0,o)
);
}
);
userData = {
assembly = "NPUSHB[ ]	/* 23 values pushed */
0 1 1 14 77 2 1 0 0 15 0 78 1 0 8 6 0 13 1 13 3 7 22
CALL[ ]	/* CallFunction */";
};
vertWidth = 0;
width = 236;
}
);
note = l;
unicode = 108;
},
{
glyphname = m;
kernLeft = m;
layers = (
{
layerId = m01;
shapes = (
{
closed = 1;
nodes = (
(72,25,o),
(74,37,qs),
(91,182,l),
(136,279,o),
(193,362,o),
(227,362,qs),
(248,362,o),
(269,317,o),
(264,278,qs),
(235,37,ls),
(234,23,o),
(242,0,o),
(261,0,qs),
(284,0,o),
(292,25,o),
(293,37,qs),
(311,180,l),
(356,278,o),
(414,362,o),
(448,362,qs),
(469,362,o),
(490,317,o),
(485,278,qs),
(456,37,ls),
(455,23,o),
(463,0,o),
(482,0,qs),
(505,0,o),
(513,25,o),
(514,37,qs),
(544,278,ls),
(552,344,o),
(502,421,o),
(451,421,qs),
(411,421,o),
(352,364,o),
(325,313,q),
(323,364,o),
(274,421,o),
(230,421,qs),
(191,421,o),
(133,366,o),
(106,318,q),
(114,384,ls),
(116,399,o),
(108,416,o),
(93,416,qs),
(58,416,o),
(55,384,qs),
(15,37,ls),
(14,23,o),
(24,0,o),
(43,0,qs),
(66,0,o)
);
}
);
userData = {
assembly = "PUSHB[ ]	/* 7 values pushed */
16 10 2 0 5 1 76
MPPEM[ ]	/* MeasurePixelPerEm */
PUSHB[ ]	/* 1 value pushed */
47
LT[ ]	/* LessThan */
IF[ ]	/* If */
NPUSHB[ ]	/* 22 values pushed */
7 1 5 5 1 97 3 2 2 1 1 17 77 6 4 8 3 0 0 15 0 78
ELSE[ ]	/* Else */
NPUSHB[ ]	/* 26 values pushed */
0 1 1 17 77 7 1 5 5 2 97 3 1 2 2 23 77 6 4 8 3 0 0 15 0 78
EIF[ ]	/* EndIf */
NPUSHB[ ]	/* 23 values pushed */
1 0 48 46 41 39 34 32 27 25 20 18 14 12 7 5 0 53 1 53 9 7 22
CALL[ ]	/* CallFunction */";
};
vertWidth = 0;
width = 609;
},
{
layerId = "6F3CF9BF-DB96-4F2C-A4AA-F3DDDD8E5607";
shapes = (
{
closed = 1;
nodes = (
(116,32,o),
(117,49,qs),
(136,206,l),
(177,277,o),
(232,332,o),
(249,332,qs),
(277,332,o),
(270,279,qs),
(243,55,ls),
(240,33,o),
(260,0,o),
(290,0,qs),
(319,0,o),
(340,33,o),
(342,50,qs),
(361,204,l),
(403,276,o),
(458,332,o),
(476,332,qs),
(504,332,o),
(497,279,qs),
(470,55,ls),
(468,33,o),
(487,0,o),
(517,0,qs),
(546,0,o),
(567,33,o),
(569,50,qs),
(598,274,ls),
(606,344,o),
(552,426,o),
(500,426,qs),
(464,426,o),
(403,376,o),
(371,330,q),
(365,375,o),
(314,426,o),
(273,426,qs),
(240,426,o),
(182,382,o),
(151,341,q),
(154,366,ls),
(156,388,o),
(136,416,o),
(111,416,qs),
(58,416,o),
(53,371,qs),
(17,55,ls),
(15,33,o),
(35,0,o),
(64,0,qs),
(97,0,o)
);
}
);
userData = {
assembly = "NPUSHB[ ]	/* 11 values pushed */
10 1 5 1 49 16 2 0 5 2 76
MPPEM[ ]	/* MeasurePixelPerEm */
PUSHB[ ]	/* 1 value pushed */
25
LT[ ]	/* LessThan */
IF[ ]	/* If */
NPUSHB[ ]	/* 22 values pushed */
7 1 5 5 1 97 3 2 2 1 1 17 77 6 4 8 3 0 0 15 0 78
ELSE[ ]	/* Else */
NPUSHB[ ]	/* 26 values pushed */
0 1 1 17 77 7 1 5 5 2 97 3 1 2 2 23 77 6 4 8 3 0 0 15 0 78
EIF[ ]	/* EndIf */
NPUSHB[ ]	/* 23 values pushed */
1 0 46 44 40 38 33 31 27 25 20 18 14 12 7 5 0 51 1 51 9 7 22
CALL[ ]	/* CallFunction */";
};
vertWidth = 0;
width = 663;
}
);
note = m;
unicode = 109;
},
{
color = 6;
glyphname = mdotbelow;
kernLeft = n_left;
kernRight = n_right;
layers = (
{
layerId = m01;
shapes = (
{
closed = 1;
nodes = (
(74,0,o),
(71,21,o),
(74,37,cs),
(114,384,ls),
(116,404,o),
(113,416,o),
(93,416,cs),
(69,416,o),
(57,405,o),
(55,384,cs),
(15,37,ls),
(13,18,o),
(17,0,o),
(43,0,cs)
);
},
{
closed = 1;
nodes = (
(292,0,o),
(291,21,o),
(293,37,cs),
(323,278,ls),
(334,366,o),
(298,421,o),
(230,421,cs),
(165,421,o),
(126,362,o),
(81,268,c),
(69,135,l),
(144,299,o),
(177,362,o),
(227,362,cs),
(255,362,o),
(270,330,o),
(264,278,cs),
(235,37,ls),
(233,18,o),
(235,0,o),
(261,0,c)
);
},
{
closed = 1;
nodes = (
(513,0,o),
(512,21,o),
(514,37,cs),
(544,278,ls),
(555,366,o),
(519,421,o),
(451,421,cs),
(386,421,o),
(347,362,o),
(302,268,c),
(290,135,l),
(365,299,o),
(398,362,o),
(448,362,cs),
(476,362,o),
(491,330,o),
(485,278,cs),
(456,37,ls),
(454,18,o),
(456,0,o),
(482,0,c)
);
},
{
closed = 1;
nodes = (
(222,-97,o),
(244,-119,o),
(259,-119,qs),
(275,-119,o),
(297,-97,o),
(297,-81,qs),
(297,-66,o),
(275,-44,o),
(259,-44,qs),
(244,-44,o),
(222,-66,o),
(222,-81,qs)
);
}
);
vertWidth = 0;
width = 609;
},
{
layerId = "6F3CF9BF-DB96-4F2C-A4AA-F3DDDD8E5607";
shapes = (
{
closed = 1;
nodes = (
(116,32,o),
(117,49,qs),
(136,206,l),
(177,277,o),
(232,332,o),
(249,332,qs),
(277,332,o),
(270,279,qs),
(243,55,ls),
(240,33,o),
(260,0,o),
(290,0,qs),
(319,0,o),
(340,33,o),
(342,50,qs),
(361,204,l),
(403,276,o),
(458,332,o),
(476,332,qs),
(504,332,o),
(497,279,qs),
(470,55,ls),
(468,33,o),
(487,0,o),
(517,0,qs),
(546,0,o),
(567,33,o),
(569,50,qs),
(598,274,ls),
(606,344,o),
(552,426,o),
(500,426,qs),
(464,426,o),
(403,376,o),
(371,330,q),
(365,375,o),
(314,426,o),
(273,426,qs),
(240,426,o),
(182,382,o),
(151,341,q),
(154,366,ls),
(156,388,o),
(136,416,o),
(111,416,qs),
(58,416,o),
(53,371,qs),
(17,55,ls),
(15,33,o),
(35,0,o),
(64,0,qs),
(97,0,o)
);
},
{
closed = 1;
nodes = (
(239,-101,o),
(265,-127,o),
(284,-127,qs),
(304,-127,o),
(331,-101,o),
(331,-81,qs),
(331,-62,o),
(304,-35,o),
(284,-35,qs),
(265,-35,o),
(239,-62,o),
(239,-81,qs)
);
}
);
userData = {
assembly = "NPUSHB[ ]	/* 11 values pushed */
10 1 5 1 49 16 2 0 5 2 76
MPPEM[ ]	/* MeasurePixelPerEm */
PUSHB[ ]	/* 1 value pushed */
25
LT[ ]	/* LessThan */
IF[ ]	/* If */
NPUSHB[ ]	/* 22 values pushed */
7 1 5 5 1 97 3 2 2 1 1 17 77 6 4 8 3 0 0 15 0 78
ELSE[ ]	/* Else */
NPUSHB[ ]	/* 26 values pushed */
0 1 1 17 77 7 1 5 5 2 97 3 1 2 2 23 77 6 4 8 3 0 0 15 0 78
EIF[ ]	/* EndIf */
NPUSHB[ ]	/* 23 values pushed */
1 0 46 44 40 38 33 31 27 25 20 18 14 12 7 5 0 51 1 51 9 7 22
CALL[ ]	/* CallFunction */";
};
vertWidth = 0;
width = 663;
}
);
unicode = 7747;
},
{
glyphname = n;
kernLeft = m;
layers = (
{
layerId = m01;
shapes = (
{
closed = 1;
nodes = (
(72,25,o),
(74,37,qs),
(91,181,l),
(137,279,o),
(205,362,o),
(239,362,qs),
(260,362,o),
(281,317,o),
(276,278,qs),
(247,37,ls),
(246,23,o),
(254,0,o),
(273,0,qs),
(296,0,o),
(304,25,o),
(305,37,qs),
(335,278,ls),
(343,344,o),
(293,421,o),
(242,421,qs),
(202,421,o),
(135,365,o),
(106,316,q),
(114,384,ls),
(116,399,o),
(108,416,o),
(93,416,qs),
(58,416,o),
(55,384,qs),
(15,37,ls),
(14,23,o),
(24,0,o),
(43,0,qs),
(66,0,o)
);
}
);
userData = {
assembly = "PUSHB[ ]	/* 6 values pushed */
10 1 0 4 1 76
MPPEM[ ]	/* MeasurePixelPerEm */
PUSHB[ ]	/* 1 value pushed */
47
LT[ ]	/* LessThan */
IF[ ]	/* If */
NPUSHB[ ]	/* 19 values pushed */
0 4 4 1 97 2 1 1 1 17 77 3 5 2 0 0 15 0 78
ELSE[ ]	/* Else */
NPUSHB[ ]	/* 23 values pushed */
0 1 1 17 77 0 4 4 2 97 0 2 2 23 77 3 5 2 0 0 15 0 78
EIF[ ]	/* EndIf */
NPUSHB[ ]	/* 17 values pushed */
1 0 28 26 21 19 14 12 7 5 0 33 1 33 6 7 22
CALL[ ]	/* CallFunction */";
};
vertWidth = 0;
width = 400;
},
{
layerId = "6F3CF9BF-DB96-4F2C-A4AA-F3DDDD8E5607";
shapes = (
{
closed = 1;
nodes = (
(116,32,o),
(117,49,qs),
(136,206,l),
(178,277,o),
(239,332,o),
(257,332,qs),
(282,332,o),
(277,279,qs),
(251,55,ls),
(248,33,o),
(267,0,o),
(298,0,qs),
(327,0,o),
(347,33,o),
(350,50,qs),
(378,274,ls),
(387,344,o),
(333,426,o),
(281,426,qs),
(247,426,o),
(183,382,o),
(151,340,q),
(154,366,ls),
(156,388,o),
(136,416,o),
(111,416,qs),
(58,416,o),
(53,371,qs),
(17,55,ls),
(15,33,o),
(35,0,o),
(64,0,qs),
(97,0,o)
);
}
);
userData = {
assembly = "NPUSHB[ ]	/* 10 values pushed */
10 1 4 1 30 1 0 4 2 76
MPPEM[ ]	/* MeasurePixelPerEm */
PUSHB[ ]	/* 1 value pushed */
25
LT[ ]	/* LessThan */
IF[ ]	/* If */
NPUSHB[ ]	/* 19 values pushed */
0 4 4 1 97 2 1 1 1 17 77 3 5 2 0 0 15 0 78
ELSE[ ]	/* Else */
NPUSHB[ ]	/* 23 values pushed */
0 1 1 17 77 0 4 4 2 97 0 2 2 23 77 3 5 2 0 0 15 0 78
EIF[ ]	/* EndIf */
NPUSHB[ ]	/* 17 values pushed */
1 0 27 25 21 19 14 12 7 5 0 32 1 32 6 7 22
CALL[ ]	/* CallFunction */";
};
vertWidth = 0;
width = 444;
}
);
note = n;
unicode = 110;
},
{
glyphname = ntilde;
kernLeft = n_left;
kernRight = n_right;
layers = (
{
layerId = m01;
shapes = (
{
closed = 1;
nodes = (
(54,502,o),
(79,505,o),
(88,516,qs),
(97,527,o),
(120,541,o),
(136,541,qs),
(150,541,o),
(182,523,o),
(219,504,o),
(237,504,qs),
(264,504,o),
(314,527,o),
(330,546,qs),
(338,557,o),
(343,579,o),
(334,588,qs),
(326,596,o),
(300,593,o),
(292,582,qs),
(273,557,o),
(244,557,qs),
(232,557,o),
(200,576,o),
(164,594,o),
(144,594,qs),
(116,594,o),
(65,571,o),
(50,551,qs),
(42,541,o),
(39,518,o),
(46,510,qs)
);
},
{
closed = 1;
nodes = (
(66,0,o),
(72,25,o),
(74,37,qs),
(114,384,ls),
(116,399,o),
(108,416,o),
(93,416,qs),
(75,416,o),
(57,400,o),
(55,384,qs),
(15,37,ls),
(14,23,o),
(24,0,o),
(43,0,qs)
);
},
{
closed = 1;
nodes = (
(296,0,o),
(304,25,o),
(305,37,qs),
(335,278,ls),
(343,344,o),
(293,421,o),
(242,421,qs),
(193,421,o),
(115,339,o),
(81,268,q),
(69,135,l),
(125,258,o),
(202,362,o),
(239,362,qs),
(260,362,o),
(281,317,o),
(276,278,qs),
(247,37,ls),
(246,23,o),
(254,0,o),
(273,0,qs)
);
}
);
userData = {
assembly = "PUSHB[ ]	/* 6 values pushed */
54 1 5 6 1 76
MPPEM[ ]	/* MeasurePixelPerEm */
PUSHB[ ]	/* 1 value pushed */
47
LT[ ]	/* LessThan */
IF[ ]	/* If */
NPUSHB[ ]	/* 36 values pushed */
0 0 0 3 2 0 3 105 0 1 0 2 4 1 2 105 0 6 6 4 97 7 1 4 4 17 77 10 8 9 3 5 5 15 5 78
ELSE[ ]	/* Else */
NPUSHB[ ]	/* 40 values pushed */
0 0 0 3 2 0 3 105 0 1 0 2 7 1 2 105 0 4 4 17 77 0 6 6 7 97 0 7 7 23 77 10 8 9 3 5 5 15 5 78
EIF[ ]	/* EndIf */
NPUSHB[ ]	/* 24 values pushed */
45 45 31 31 45 65 45 64 59 57 52 50 31 44 31 43 43 34 41 34 36 11 7 27
CALL[ ]	/* CallFunction */";
};
vertWidth = 0;
width = 400;
},
{
layerId = "6F3CF9BF-DB96-4F2C-A4AA-F3DDDD8E5607";
shapes = (
{
closed = 1;
nodes = (
(116,32,o),
(117,49,qs),
(136,206,l),
(178,277,o),
(239,332,o),
(257,332,qs),
(282,332,o),
(277,279,qs),
(251,55,ls),
(248,33,o),
(267,0,o),
(298,0,qs),
(327,0,o),
(347,33,o),
(350,50,qs),
(378,274,ls),
(387,344,o),
(333,426,o),
(281,426,qs),
(247,426,o),
(183,382,o),
(151,340,q),
(154,366,ls),
(156,388,o),
(136,416,o),
(111,416,qs),
(58,416,o),
(53,371,qs),
(17,55,ls),
(15,33,o),
(35,0,o),
(64,0,qs),
(97,0,o)
);
},
{
closed = 1;
nodes = (
(48,463,o),
(79,466,o),
(90,480,qs),
(101,493,o),
(129,510,o),
(149,510,qs),
(166,510,o),
(205,488,o),
(250,465,o),
(272,465,qs),
(305,465,o),
(366,493,o),
(386,516,qs),
(396,530,o),
(402,557,o),
(391,568,qs),
(381,578,o),
(349,574,o),
(340,560,qs),
(316,530,o),
(281,530,qs),
(266,530,o),
(227,553,o),
(183,575,o),
(159,575,qs),
(124,575,o),
(62,547,o),
(44,522,qs),
(34,510,o),
(30,482,o),
(39,472,qs)
);
}
);
userData = {
assembly = "NPUSHB[ ]	/* 10 values pushed */
10 1 4 1 30 1 0 4 2 76
MPPEM[ ]	/* MeasurePixelPerEm */
PUSHB[ ]	/* 1 value pushed */
25
LT[ ]	/* LessThan */
IF[ ]	/* If */
NPUSHB[ ]	/* 19 values pushed */
0 4 4 1 97 2 1 1 1 17 77 3 5 2 0 0 15 0 78
ELSE[ ]	/* Else */
NPUSHB[ ]	/* 23 values pushed */
0 1 1 17 77 0 4 4 2 97 0 2 2 23 77 3 5 2 0 0 15 0 78
EIF[ ]	/* EndIf */
NPUSHB[ ]	/* 17 values pushed */
1 0 27 25 21 19 14 12 7 5 0 32 1 32 6 7 22
CALL[ ]	/* CallFunction */";
};
vertWidth = 0;
width = 444;
}
);
note = ntilde;
unicode = 241;
},
{
glyphname = o;
kernLeft = a;
layers = (
{
layerId = m01;
shapes = (
{
closed = 1;
nodes = (
(286,62,o),
(329,159,o),
(334,209,qs),
(340,262,o),
(315,359,o),
(252,421,o),
(200,421,qs),
(134,421,o),
(32,312,o),
(21,209,qs),
(16,157,o),
(41,61,o),
(104,-1,o),
(156,-1,qs),
(211,-1,o)
);
},
{
closed = 1;
nodes = (
(90,97,o),
(77,167,o),
(81,206,qs),
(89,282,o),
(155,366,o),
(198,366,qs),
(225,366,o),
(257,334,o),
(273,284,o),
(276,232,o),
(274,211,qs),
(269,163,o),
(234,92,o),
(186,53,o),
(162,53,qs),
(129,53,o)
);
}
);
userData = {
assembly = "NPUSHB[ ]	/* 42 values pushed */
0 3 3 1 97 0 1 1 23 77 5 1 2 2 0 97 4 1 0 0 24 0 78 16 15 1 0 25 23 15 30 16 30 8 6 0 14 1 14 6 7 22
CALL[ ]	/* CallFunction */";
};
vertWidth = 0;
width = 396;
},
{
layerId = "6F3CF9BF-DB96-4F2C-A4AA-F3DDDD8E5607";
shapes = (
{
closed = 1;
nodes = (
(306,54,o),
(355,150,o),
(362,213,qs),
(371,306,o),
(293,426,o),
(212,426,qs),
(136,426,o),
(33,312,o),
(22,212,qs),
(13,119,o),
(90,-1,o),
(170,-1,qs),
(225,-1,o)
);
},
{
closed = 1;
nodes = (
(117,155,o),
(124,203,qs),
(130,264,o),
(177,333,o),
(210,333,qs),
(243,333,o),
(266,265,o),
(260,221,qs),
(254,161,o),
(206,92,o),
(174,92,qs),
(143,92,o)
);
}
);
userData = {
assembly = "NPUSHB[ ]	/* 42 values pushed */
0 3 3 1 97 0 1 1 23 77 5 1 2 2 0 97 4 1 0 0 24 0 78 14 13 1 0 20 18 13 24 14 24 7 5 0 12 1 12 6 7 22
CALL[ ]	/* CallFunction */";
};
vertWidth = 0;
width = 422;
}
);
note = o;
unicode = 111;
},
{
glyphname = oacute;
kernLeft = o_left;
kernRight = o_right;
layers = (
{
layerId = m01;
shapes = (
{
closed = 1;
nodes = (
(159,520,o),
(153,511,o),
(153,505,qs),
(153,497,o),
(166,484,o),
(175,484,qs),
(180,484,o),
(188,488,o),
(190,490,qs),
(286,574,ls),
(292,579,o),
(296,592,o),
(296,595,qs),
(296,605,o),
(280,620,o),
(271,620,qs),
(262,620,o),
(253,613,q),
(161,522,ls)
);
},
{
closed = 1;
nodes = (
(211,-1,o),
(286,62,o),
(329,159,o),
(334,209,qs),
(340,262,o),
(315,359,o),
(252,421,o),
(200,421,qs),
(134,421,o),
(32,312,o),
(21,209,qs),
(16,157,o),
(41,61,o),
(104,-1,o),
(156,-1,qs)
);
},
{
closed = 1;
nodes = (
(129,53,o),
(90,97,o),
(77,167,o),
(81,206,qs),
(89,282,o),
(155,366,o),
(198,366,qs),
(225,366,o),
(257,334,o),
(273,284,o),
(276,232,o),
(274,211,qs),
(269,163,o),
(234,92,o),
(186,53,o),
(162,53,qs)
);
}
);
userData = {
assembly = "NPUSHB[ ]	/* 59 values pushed */
5 1 1 0 1 76 0 0 1 0 133 0 1 2 1 133 0 4 4 2 97 0 2 2 23 77 7 1 5 5 3 97 6 1 3 3 24 3 78 34 34 19 19 34 49 34 48 43 41 19 33 19 32 43 40 33 8 7 25
CALL[ ]	/* CallFunction */";
};
vertWidth = 0;
width = 396;
},
{
layerId = "6F3CF9BF-DB96-4F2C-A4AA-F3DDDD8E5607";
shapes = (
{
closed = 1;
nodes = (
(306,54,o),
(355,150,o),
(362,213,qs),
(371,306,o),
(293,426,o),
(212,426,qs),
(136,426,o),
(33,312,o),
(22,212,qs),
(13,119,o),
(90,-1,o),
(170,-1,qs),
(225,-1,o)
);
},
{
closed = 1;
nodes = (
(117,155,o),
(124,203,qs),
(130,264,o),
(177,333,o),
(210,333,qs),
(243,333,o),
(266,265,o),
(260,221,qs),
(254,161,o),
(206,92,o),
(174,92,qs),
(143,92,o)
);
},
{
closed = 1;
nodes = (
(167,522,o),
(163,513,o),
(163,507,qs),
(163,500,o),
(174,487,o),
(183,487,qs),
(186,487,o),
(194,491,o),
(196,494,qs),
(288,572,ls),
(294,578,o),
(298,590,o),
(298,593,qs),
(298,603,o),
(282,617,o),
(274,617,qs),
(265,617,o),
(256,610,q),
(168,524,ls)
);
}
);
userData = {
assembly = "NPUSHB[ ]	/* 42 values pushed */
0 3 3 1 97 0 1 1 23 77 5 1 2 2 0 97 4 1 0 0 24 0 78 14 13 1 0 20 18 13 24 14 24 7 5 0 12 1 12 6 7 22
CALL[ ]	/* CallFunction */";
};
vertWidth = 0;
width = 422;
}
);
note = oacute;
unicode = 243;
},
{
color = 6;
glyphname = odieresis;
kernLeft = o_left;
kernRight = o_right;
layers = (
{
layerId = m01;
shapes = (
{
closed = 1;
nodes = (
(266,-1,o),
(323,108,o),
(334,209,cs),
(345,314,o),
(303,421,o),
(200,421,cs),
(112,421,o),
(36,346,o),
(21,209,cs),
(11,105,o),
(52,-1,o),
(156,-1,cs)
);
},
{
closed = 1;
nodes = (
(95,53,o),
(72,128,o),
(81,206,cs),
(91,307,o),
(140,366,o),
(198,366,cs),
(270,366,o),
(280,266,o),
(274,211,cs),
(264,114,o),
(210,53,o),
(162,53,cs)
);
},
{
closed = 1;
nodes = (
(112,506,o),
(134,484,o),
(149,484,qs),
(165,484,o),
(187,506,o),
(187,522,qs),
(187,537,o),
(165,559,o),
(149,559,qs),
(134,559,o),
(112,537,o),
(112,522,qs)
);
},
{
closed = 1;
nodes = (
(230,506,o),
(252,484,o),
(267,484,qs),
(283,484,o),
(305,506,o),
(305,522,qs),
(305,537,o),
(283,559,o),
(267,559,qs),
(252,559,o),
(230,537,o),
(230,522,qs)
);
}
);
vertWidth = 0;
width = 396;
},
{
layerId = "6F3CF9BF-DB96-4F2C-A4AA-F3DDDD8E5607";
shapes = (
{
closed = 1;
nodes = (
(306,54,o),
(355,150,o),
(362,213,qs),
(371,306,o),
(293,426,o),
(212,426,qs),
(136,426,o),
(33,312,o),
(22,212,qs),
(13,119,o),
(90,-1,o),
(170,-1,qs),
(225,-1,o)
);
},
{
closed = 1;
nodes = (
(117,155,o),
(124,203,qs),
(130,264,o),
(177,333,o),
(210,333,qs),
(243,333,o),
(266,265,o),
(260,221,qs),
(254,161,o),
(206,92,o),
(174,92,qs),
(143,92,o)
);
},
{
closed = 1;
nodes = (
(105,525,o),
(131,500,o),
(149,500,qs),
(167,500,o),
(193,525,o),
(193,544,qs),
(193,562,o),
(167,588,o),
(149,588,qs),
(131,588,o),
(105,562,o),
(105,544,qs)
);
},
{
closed = 1;
nodes = (
(244,525,o),
(270,500,o),
(287,500,qs),
(306,500,o),
(332,525,o),
(332,544,qs),
(332,562,o),
(306,588,o),
(287,588,qs),
(270,588,o),
(244,562,o),
(244,544,qs)
);
}
);
userData = {
assembly = "NPUSHB[ ]	/* 42 values pushed */
0 3 3 1 97 0 1 1 23 77 5 1 2 2 0 97 4 1 0 0 24 0 78 14 13 1 0 20 18 13 24 14 24 7 5 0 12 1 12 6 7 22
CALL[ ]	/* CallFunction */";
};
vertWidth = 0;
width = 422;
}
);
unicode = 246;
},
{
glyphname = p;
kernLeft = m;
layers = (
{
layerId = m01;
shapes = (
{
closed = 1;
nodes = (
(347,104,o),
(358,207,qs),
(363,259,o),
(338,357,o),
(275,421,o),
(223,421,qs),
(187,421,o),
(127,368,o),
(107,331,q),
(112,383,ls),
(114,400,o),
(96,416,o),
(84,416,qs),
(74,416,o),
(54,399,o),
(52,383,qs),
(-21,-321,ls),
(-23,-339,o),
(-6,-356,o),
(5,-356,qs),
(16,-356,o),
(37,-340,o),
(38,-324,qs),
(76,38,l),
(98,17,o),
(154,-1,o),
(179,-1,qs),
(245,-1,o)
);
},
{
closed = 1;
nodes = (
(290,320,o),
(303,249,o),
(298,210,qs),
(290,134,o),
(225,53,o),
(181,53,qs),
(158,53,o),
(101,75,o),
(82,97,q),
(87,146,l),
(95,183,o),
(122,260,o),
(157,326,o),
(199,366,o),
(222,366,qs),
(253,366,o)
);
}
);
userData = {
assembly = "NPUSHB[ ]	/* 15 values pushed */
34 18 2 5 4 3 1 0 5 4 1 1 0 3 76
MPPEM[ ]	/* MeasurePixelPerEm */
PUSHB[ ]	/* 1 value pushed */
47
LT[ ]	/* LessThan */
IF[ ]	/* If */
NPUSHB[ ]	/* 29 values pushed */
7 1 4 4 2 97 3 1 2 2 17 77 0 5 5 0 97 6 1 0 0 24 77 0 1 1 19 1 78
ELSE[ ]	/* Else */
NPUSHB[ ]	/* 33 values pushed */
0 2 2 17 77 7 1 4 4 3 97 0 3 3 23 77 0 5 5 0 97 6 1 0 0 24 77 0 1 1 19 1 78
EIF[ ]	/* EndIf */
NPUSHB[ ]	/* 23 values pushed */
29 28 1 0 38 36 28 43 29 43 22 20 15 13 8 6 0 27 1 27 8 7 22
CALL[ ]	/* CallFunction */";
};
vertWidth = 0;
width = 419;
},
{
layerId = "6F3CF9BF-DB96-4F2C-A4AA-F3DDDD8E5607";
shapes = (
{
closed = 1;
nodes = (
(323,48,o),
(377,144,o),
(384,212,qs),
(389,264,o),
(366,362,o),
(306,426,o),
(255,426,qs),
(219,426,o),
(171,382,o),
(154,354,q),
(155,357,l),
(158,385,o),
(131,416,o),
(107,416,qs),
(85,416,o),
(54,383,o),
(51,357,qs),
(-20,-300,ls),
(-22,-324,o),
(2,-356,o),
(28,-356,qs),
(51,-356,o),
(81,-328,o),
(83,-306,qs),
(119,24,l),
(159,-1,o),
(199,-1,qs),
(245,-1,o)
);
},
{
closed = 1;
nodes = (
(289,269,o),
(283,221,qs),
(277,157,o),
(232,92,o),
(200,92,qs),
(186,92,o),
(150,104,o),
(129,121,q),
(130,124,l),
(146,226,o),
(203,333,o),
(238,333,qs),
(266,333,o)
);
}
);
userData = {
assembly = "NPUSHB[ ]	/* 14 values pushed */
16 1 4 2 31 1 5 4 2 1 0 5 3 76
MPPEM[ ]	/* MeasurePixelPerEm */
PUSHB[ ]	/* 1 value pushed */
25
LT[ ]	/* LessThan */
IF[ ]	/* If */
NPUSHB[ ]	/* 29 values pushed */
7 1 4 4 2 97 3 1 2 2 17 77 0 5 5 0 97 6 1 0 0 24 77 0 1 1 19 1 78
ELSE[ ]	/* Else */
NPUSHB[ ]	/* 33 values pushed */
0 2 2 17 77 7 1 4 4 3 97 0 3 3 23 77 0 5 5 0 97 6 1 0 0 24 77 0 1 1 19 1 78
EIF[ ]	/* EndIf */
NPUSHB[ ]	/* 23 values pushed */
29 28 1 0 36 34 28 40 29 40 21 19 14 12 7 5 0 27 1 27 8 7 22
CALL[ ]	/* CallFunction */";
};
vertWidth = 0;
width = 445;
}
);
note = p;
unicode = 112;
},
{
glyphname = q;
kernLeft = a;
layers = (
{
layerId = m01;
shapes = (
{
closed = 1;
nodes = (
(252,48,o),
(272,84,q),
(229,-323,ls),
(228,-340,o),
(245,-356,o),
(257,-356,qs),
(268,-356,o),
(278,-347,qs),
(383,-260,ls),
(405,-241,o),
(405,-223,qs),
(405,-212,o),
(390,-200,o),
(379,-200,qs),
(372,-200,o),
(356,-206,o),
(345,-215,qs),
(296,-255,l),
(364,380,ls),
(366,398,o),
(348,416,o),
(337,416,qs),
(326,416,o),
(306,400,o),
(304,384,qs),
(303,378,l),
(281,400,o),
(225,421,o),
(200,421,qs),
(134,421,o),
(32,312,o),
(21,209,qs),
(16,157,o),
(41,61,o),
(104,-1,o),
(156,-1,qs),
(192,-1,o)
);
},
{
closed = 1;
nodes = (
(155,366,o),
(198,366,qs),
(222,366,o),
(279,347,o),
(298,324,q),
(292,269,l),
(284,232,o),
(257,156,o),
(222,92,o),
(180,53,o),
(157,53,qs),
(126,53,o),
(89,97,o),
(77,167,o),
(81,206,qs),
(89,282,o)
);
}
);
userData = {
assembly = "MPPEM[ ]	/* MeasurePixelPerEm */
PUSHB[ ]	/* 1 value pushed */
47
LT[ ]	/* LessThan */
IF[ ]	/* If */
NPUSHB[ ]	/* 16 values pushed */
10 1 6 1 47 34 2 5 6 33 18 2 4 3 3 76
ELSE[ ]	/* Else */
NPUSHB[ ]	/* 16 values pushed */
10 1 6 2 47 34 2 5 6 33 18 2 4 3 3 76
EIF[ ]	/* EndIf */
MPPEM[ ]	/* MeasurePixelPerEm */
PUSHB[ ]	/* 1 value pushed */
47
LT[ ]	/* LessThan */
IF[ ]	/* If */
NPUSHB[ ]	/* 36 values pushed */
0 3 0 4 0 3 4 128 0 6 6 1 97 2 1 1 1 23 77 0 5 5 0 97 7 1 0 0 24 77 0 4 4 19 4 78
ELSE[ ]	/* Else */
NPUSHB[ ]	/* 40 values pushed */
0 3 0 4 0 3 4 128 0 2 2 17 77 0 6 6 1 97 0 1 1 23 77 0 5 5 0 97 7 1 0 0 24 77 0 4 4 19 4 78
EIF[ ]	/* EndIf */
NPUSHB[ ]	/* 21 values pushed */
1 0 51 49 42 40 31 29 23 21 15 13 8 6 0 36 1 36 8 7 22
CALL[ ]	/* CallFunction */";
};
vertWidth = 0;
width = 418;
},
{
layerId = "6F3CF9BF-DB96-4F2C-A4AA-F3DDDD8E5607";
shapes = (
{
closed = 1;
nodes = (
(235,43,o),
(253,71,q),
(213,-301,ls),
(210,-324,o),
(235,-356,o),
(261,-356,qs),
(280,-356,o),
(297,-343,qs),
(407,-251,ls),
(435,-229,o),
(437,-208,qs),
(440,-188,o),
(414,-163,o),
(394,-162,qs),
(384,-161,o),
(360,-170,o),
(346,-181,qs),
(328,-197,l),
(387,357,ls),
(390,385,o),
(364,416,o),
(340,416,qs),
(314,416,o),
(297,394,q),
(252,426,o),
(207,426,qs),
(138,426,o),
(33,314,o),
(22,212,qs),
(17,160,o),
(40,62,o),
(100,-1,o),
(152,-1,qs),
(187,-1,o)
);
},
{
closed = 1;
nodes = (
(174,333,o),
(206,333,qs),
(220,333,o),
(257,321,o),
(277,303,q),
(260,198,o),
(203,92,o),
(168,92,qs),
(140,92,o),
(117,154,o),
(123,203,qs),
(129,266,o)
);
}
);
userData = {
assembly = "MPPEM[ ]	/* MeasurePixelPerEm */
PUSHB[ ]	/* 1 value pushed */
25
LT[ ]	/* LessThan */
IF[ ]	/* If */
NPUSHB[ ]	/* 18 values pushed */
9 1 6 1 40 1 5 6 31 1 0 5 15 1 4 3 4 76
ELSE[ ]	/* Else */
NPUSHB[ ]	/* 18 values pushed */
9 1 6 2 40 1 5 6 31 1 0 5 15 1 4 3 4 76
EIF[ ]	/* EndIf */
MPPEM[ ]	/* MeasurePixelPerEm */
PUSHB[ ]	/* 1 value pushed */
25
LT[ ]	/* LessThan */
IF[ ]	/* If */
NPUSHB[ ]	/* 36 values pushed */
0 3 0 4 0 3 4 128 0 6 6 1 97 2 1 1 1 23 77 0 5 5 0 97 7 1 0 0 24 77 0 4 4 19 4 78
ELSE[ ]	/* Else */
NPUSHB[ ]	/* 40 values pushed */
0 3 0 4 0 3 4 128 0 2 2 17 77 0 6 6 1 97 0 1 1 23 77 0 5 5 0 97 7 1 0 0 24 77 0 4 4 19 4 78
EIF[ ]	/* EndIf */
NPUSHB[ ]	/* 21 values pushed */
1 0 44 42 38 36 28 26 20 19 12 10 8 6 0 33 1 33 8 7 22
CALL[ ]	/* CallFunction */";
};
vertWidth = 0;
width = 444;
}
);
note = q;
unicode = 113;
},
{
glyphname = r;
kernLeft = m;
layers = (
{
layerId = m01;
shapes = (
{
closed = 1;
nodes = (
(73,16,o),
(75,32,qs),
(92,188,l),
(136,281,o),
(204,362,o),
(236,362,qs),
(252,362,o),
(268,331,o),
(272,311,qs),
(274,301,o),
(300,295,o),
(310,301,qs),
(320,306,o),
(332,324,o),
(328,341,qs),
(320,374,o),
(275,421,o),
(240,421,qs),
(200,421,o),
(135,369,o),
(105,318,q),
(112,380,ls),
(114,398,o),
(97,416,o),
(86,416,qs),
(75,416,o),
(54,400,o),
(52,384,qs),
(15,32,ls),
(14,16,o),
(31,0,o),
(43,0,qs),
(54,0,o)
);
}
);
userData = {
assembly = "PUSHB[ ]	/* 7 values pushed */
11 3 2 0 3 1 76
MPPEM[ ]	/* MeasurePixelPerEm */
PUSHB[ ]	/* 1 value pushed */
47
LT[ ]	/* LessThan */
IF[ ]	/* If */
NPUSHB[ ]	/* 18 values pushed */
0 3 3 1 97 2 1 1 1 17 77 4 1 0 0 15 0 78
ELSE[ ]	/* Else */
NPUSHB[ ]	/* 22 values pushed */
0 1 1 17 77 0 3 3 2 97 0 2 2 23 77 4 1 0 0 15 0 78
EIF[ ]	/* EndIf */
NPUSHB[ ]	/* 15 values pushed */
1 0 27 25 15 13 8 6 0 32 1 32 5 7 22
CALL[ ]	/* CallFunction */";
};
vertWidth = 0;
width = 354;
},
{
layerId = "6F3CF9BF-DB96-4F2C-A4AA-F3DDDD8E5607";
shapes = (
{
closed = 1;
nodes = (
(116,30,o),
(118,47,qs),
(133,180,l),
(177,266,o),
(234,336,o),
(253,336,qs),
(269,336,o),
(276,308,qs),
(282,284,o),
(320,270,o),
(341,277,qs),
(376,290,o),
(367,340,q),
(358,375,o),
(311,426,o),
(268,426,qs),
(232,426,o),
(176,383,o),
(151,344,q),
(154,365,ls),
(156,388,o),
(133,416,o),
(109,416,qs),
(86,416,o),
(55,394,o),
(52,371,qs),
(17,54,ls),
(15,32,o),
(37,0,o),
(64,0,qs),
(94,0,o)
);
}
);
userData = {
assembly = "PUSHB[ ]	/* 6 values pushed */
11 1 3 1 1 76
MPPEM[ ]	/* MeasurePixelPerEm */
PUSHB[ ]	/* 1 value pushed */
25
LT[ ]	/* LessThan */
IF[ ]	/* If */
NPUSHB[ ]	/* 18 values pushed */
0 3 3 1 97 2 1 1 1 17 77 4 1 0 0 15 0 78
ELSE[ ]	/* Else */
NPUSHB[ ]	/* 22 values pushed */
0 1 1 17 77 0 3 3 2 97 0 2 2 23 77 4 1 0 0 15 0 78
EIF[ ]	/* EndIf */
NPUSHB[ ]	/* 15 values pushed */
1 0 25 23 15 13 8 6 0 30 1 30 5 7 22
CALL[ ]	/* CallFunction */";
};
vertWidth = 0;
width = 395;
}
);
note = r;
unicode = 114;
},
{
glyphname = s;
layers = (
{
layerId = m01;
shapes = (
{
closed = 1;
nodes = (
(282,59,o),
(282,110,qs),
(282,139,o),
(262,181,o),
(205,225,o),
(151,257,qs),
(123,273,o),
(97,298,o),
(97,317,qs),
(97,337,o),
(129,361,o),
(158,361,qs),
(190,361,o),
(237,342,o),
(252,331,qs),
(266,321,o),
(292,319,o),
(299,331,qs),
(307,343,o),
(293,376,o),
(276,386,qs),
(246,405,o),
(190,421,o),
(166,421,qs),
(107,421,o),
(38,364,o),
(38,318,qs),
(38,281,o),
(76,232,o),
(113,210,qs),
(159,183,o),
(205,149,o),
(222,123,o),
(222,108,qs),
(222,85,o),
(192,58,o),
(164,58,qs),
(130,58,o),
(76,85,o),
(58,100,qs),
(35,120,o),
(14,97,qs),
(4,86,o),
(16,59,o),
(30,46,qs),
(53,25,o),
(119,-1,o),
(162,-1,qs),
(217,-1,o)
);
}
);
userData = {
assembly = "NPUSHB[ ]	/* 37 values pushed */
0 3 3 2 97 0 2 2 23 77 0 1 1 0 97 4 1 0 0 24 0 78 1 0 37 35 25 23 12 10 0 48 1 48 5 7 22
CALL[ ]	/* CallFunction */";
};
vertWidth = 0;
width = 354;
},
{
layerId = "6F3CF9BF-DB96-4F2C-A4AA-F3DDDD8E5607";
shapes = (
{
closed = 1;
nodes = (
(266,24,o),
(305,76,o),
(305,119,qs),
(305,168,o),
(250,226,o),
(198,256,qs),
(172,270,o),
(135,296,o),
(135,308,qs),
(135,332,o),
(171,332,qs),
(212,332,o),
(243,310,qs),
(267,293,o),
(307,294,o),
(319,312,qs),
(332,331,o),
(315,375,o),
(288,393,qs),
(258,412,o),
(201,426,o),
(177,426,qs),
(112,426,o),
(37,363,o),
(37,310,qs),
(37,270,o),
(82,210,o),
(138,177,qs),
(169,159,o),
(198,138,o),
(206,124,o),
(206,117,qs),
(206,105,o),
(188,93,o),
(174,93,qs),
(149,93,o),
(101,115,o),
(90,125,qs),
(70,140,o),
(34,138,o),
(18,118,qs),
(4,97,o),
(21,57,o),
(42,41,qs),
(61,26,o),
(131,-1,o),
(172,-1,qs),
(205,-1,o)
);
}
);
userData = {
assembly = "NPUSHB[ ]	/* 62 values pushed */
15 1 2 1 1 76 0 4 5 1 5 4 1 128 0 1 2 5 1 2 126 0 5 5 3 97 0 3 3 23 77 0 2 2 0 97 6 1 0 0 24 0 78 1 0 37 35 33 32 26 24 13 11 8 7 0 47 1 47 7 7 22
CALL[ ]	/* CallFunction */";
};
vertWidth = 0;
width = 377;
}
);
note = s;
unicode = 115;
},
{
color = 6;
glyphname = sacute;
layers = (
{
layerId = m01;
shapes = (
{
closed = 1;
nodes = (
(235,-1,o),
(282,42,o),
(282,110,cs),
(282,168,o),
(259,192,o),
(151,257,cs),
(114,278,o),
(97,291,o),
(97,317,cs),
(97,343,o),
(119,361,o),
(158,361,cs),
(200,361,o),
(232,346,o),
(252,331,cs),
(271,318,o),
(289,315,o),
(299,331,cs),
(310,347,o),
(298,372,o),
(276,386,cs),
(236,411,o),
(198,421,o),
(166,421,cs),
(87,421,o),
(38,379,o),
(38,318,cs),
(38,268,o),
(64,239,o),
(113,210,cs),
(204,156,o),
(222,138,o),
(222,108,cs),
(222,77,o),
(201,58,o),
(164,58,cs),
(119,58,o),
(82,80,o),
(58,100,cs),
(42,114,o),
(29,114,o),
(14,97,cs),
(1,82,o),
(11,63,o),
(30,46,cs),
(61,18,o),
(105,-1,o),
(162,-1,cs)
);
},
{
closed = 1;
nodes = (
(149,520,o),
(143,511,o),
(143,505,qs),
(143,497,o),
(156,484,o),
(165,484,qs),
(170,484,o),
(178,488,o),
(180,490,qs),
(276,574,ls),
(282,579,o),
(286,592,o),
(286,595,qs),
(286,605,o),
(270,620,o),
(261,620,qs),
(252,620,o),
(243,613,q),
(151,522,ls)
);
}
);
vertWidth = 0;
width = 354;
},
{
layerId = "6F3CF9BF-DB96-4F2C-A4AA-F3DDDD8E5607";
shapes = (
{
closed = 1;
nodes = (
(266,24,o),
(305,76,o),
(305,119,qs),
(305,168,o),
(250,226,o),
(198,256,qs),
(172,270,o),
(135,296,o),
(135,308,qs),
(135,332,o),
(171,332,qs),
(212,332,o),
(243,310,qs),
(267,293,o),
(307,294,o),
(319,312,qs),
(332,331,o),
(315,375,o),
(288,393,qs),
(258,412,o),
(201,426,o),
(177,426,qs),
(112,426,o),
(37,363,o),
(37,310,qs),
(37,270,o),
(82,210,o),
(138,177,qs),
(169,159,o),
(198,138,o),
(206,124,o),
(206,117,qs),
(206,105,o),
(188,93,o),
(174,93,qs),
(149,93,o),
(101,115,o),
(90,125,qs),
(70,140,o),
(34,138,o),
(18,118,qs),
(4,97,o),
(21,57,o),
(42,41,qs),
(61,26,o),
(131,-1,o),
(172,-1,qs),
(205,-1,o)
);
},
{
closed = 1;
nodes = (
(157,522,o),
(153,513,o),
(153,507,qs),
(153,500,o),
(164,487,o),
(173,487,qs),
(176,487,o),
(184,491,o),
(186,494,qs),
(278,572,ls),
(284,578,o),
(288,590,o),
(288,593,qs),
(288,603,o),
(272,617,o),
(264,617,qs),
(255,617,o),
(246,610,q),
(158,524,ls)
);
}
);
userData = {
assembly = "NPUSHB[ ]	/* 62 values pushed */
15 1 2 1 1 76 0 4 5 1 5 4 1 128 0 1 2 5 1 2 126 0 5 5 3 97 0 3 3 23 77 0 2 2 0 97 6 1 0 0 24 0 78 1 0 37 35 33 32 26 24 13 11 8 7 0 47 1 47 7 7 22
CALL[ ]	/* CallFunction */";
};
vertWidth = 0;
width = 377;
}
);
unicode = 347;
},
{
glyphname = t;
layers = (
{
layerId = m01;
shapes = (
{
closed = 1;
nodes = (
(142,13,o),
(144,27,qs),
(180,362,l),
(283,362,ls),
(301,362,o),
(311,379,o),
(311,390,qs),
(311,401,o),
(297,416,o),
(279,416,qs),
(186,416,l),
(210,643,ls),
(212,659,o),
(193,675,o),
(181,675,qs),
(171,675,o),
(153,662,o),
(151,650,qs),
(126,416,l),
(38,416,ls),
(20,416,o),
(8,401,o),
(8,390,qs),
(8,379,o),
(24,362,o),
(42,362,qs),
(120,362,l),
(84,29,ls),
(83,15,o),
(103,0,o),
(114,0,qs),
(125,0,o)
);
}
);
userData = {
assembly = "NPUSHB[ ]	/* 43 values pushed */
0 3 2 3 133 5 1 1 1 2 95 4 1 2 2 17 77 6 1 0 0 15 0 78 1 0 28 26 22 20 17 15 12 10 6 4 0 31 1 31 7 7 22
CALL[ ]	/* CallFunction */";
};
vertWidth = 0;
width = 333;
},
{
layerId = "6F3CF9BF-DB96-4F2C-A4AA-F3DDDD8E5607";
shapes = (
{
closed = 1;
nodes = (
(184,23,o),
(187,46,qs),
(217,323,l),
(284,323,ls),
(309,323,o),
(334,348,o),
(334,369,qs),
(334,391,o),
(308,416,o),
(283,416,qs),
(227,416,l),
(249,618,ls),
(252,644,o),
(220,675,o),
(197,675,qs),
(180,675,o),
(147,652,o),
(145,631,qs),
(122,416,l),
(58,416,ls),
(32,416,o),
(6,391,o),
(6,369,qs),
(6,348,o),
(33,323,o),
(59,323,qs),
(112,323,l),
(83,52,ls),
(80,28,o),
(113,0,o),
(134,0,qs),
(154,0,o)
);
}
);
userData = {
assembly = "NPUSHB[ ]	/* 43 values pushed */
0 3 2 3 133 5 1 1 1 2 97 4 1 2 2 17 77 6 1 0 0 15 0 78 1 0 28 26 22 20 17 15 12 10 6 4 0 31 1 31 7 7 22
CALL[ ]	/* CallFunction */";
};
vertWidth = 0;
width = 357;
}
);
note = t;
unicode = 116;
},
{
color = 6;
glyphname = tdotbelow;
layers = (
{
guides = (
{
name = " [#PIEUew2GI2]";
pos = (326,568);
}
);
layerId = m01;
shapes = (
{
closed = 1;
nodes = (
(129,0,o),
(141,8,o),
(144,27,cs),
(210,643,ls),
(213,664,o),
(197,675,o),
(181,675,cs),
(168,675,o),
(153,666,o),
(151,650,cs),
(84,29,ls),
(82,10,o),
(99,0,o),
(114,0,cs)
);
},
{
closed = 1;
nodes = (
(283,362,ls),
(307,362,o),
(311,375,o),
(311,390,cs),
(311,404,o),
(303,416,o),
(279,416,cs),
(38,416,ls),
(14,416,o),
(8,404,o),
(8,390,cs),
(8,375,o),
(18,362,o),
(42,362,cs)
);
},
{
closed = 1;
nodes = (
(72,-97,o),
(94,-119,o),
(109,-119,qs),
(125,-119,o),
(147,-97,o),
(147,-81,qs),
(147,-66,o),
(125,-44,o),
(109,-44,qs),
(94,-44,o),
(72,-66,o),
(72,-81,qs)
);
}
);
vertWidth = 0;
width = 333;
},
{
layerId = "6F3CF9BF-DB96-4F2C-A4AA-F3DDDD8E5607";
shapes = (
{
closed = 1;
nodes = (
(184,23,o),
(187,46,qs),
(217,323,l),
(284,323,ls),
(309,323,o),
(334,348,o),
(334,369,qs),
(334,391,o),
(308,416,o),
(283,416,qs),
(227,416,l),
(249,618,ls),
(252,644,o),
(220,675,o),
(197,675,qs),
(180,675,o),
(147,652,o),
(145,631,qs),
(122,416,l),
(58,416,ls),
(32,416,o),
(6,391,o),
(6,369,qs),
(6,348,o),
(33,323,o),
(59,323,qs),
(112,323,l),
(83,52,ls),
(80,28,o),
(113,0,o),
(134,0,qs),
(154,0,o)
);
},
{
closed = 1;
nodes = (
(79,-101,o),
(105,-127,o),
(124,-127,qs),
(144,-127,o),
(171,-101,o),
(171,-81,qs),
(171,-62,o),
(144,-35,o),
(124,-35,qs),
(105,-35,o),
(79,-62,o),
(79,-81,qs)
);
}
);
userData = {
assembly = "NPUSHB[ ]	/* 43 values pushed */
0 3 2 3 133 5 1 1 1 2 97 4 1 2 2 17 77 6 1 0 0 15 0 78 1 0 28 26 22 20 17 15 12 10 6 4 0 31 1 31 7 7 22
CALL[ ]	/* CallFunction */";
};
vertWidth = 0;
width = 357;
}
);
unicode = 7789;
},
{
glyphname = u;
kernLeft = m;
layers = (
{
layerId = m01;
shapes = (
{
closed = 1;
nodes = (
(224,52,o),
(255,97,q),
(248,32,ls),
(247,17,o),
(256,0,o),
(271,0,qs),
(289,0,o),
(306,16,o),
(308,32,qs),
(345,381,ls),
(347,394,o),
(337,416,o),
(318,416,qs),
(299,416,o),
(287,394,o),
(286,384,qs),
(268,216,l),
(223,127,o),
(155,57,o),
(122,57,qs),
(100,57,o),
(82,102,o),
(86,138,qs),
(112,381,ls),
(114,394,o),
(106,416,o),
(86,416,qs),
(66,416,o),
(56,394,o),
(55,384,qs),
(26,138,ls),
(19,80,o),
(67,-1,o),
(119,-1,qs),
(158,-1,o)
);
}
);
userData = {
assembly = "NPUSHB[ ]	/* 46 values pushed */
32 1 2 1 31 1 0 2 2 76 3 1 1 1 17 77 0 2 2 0 98 4 5 2 0 0 24 0 78 1 0 29 27 22 20 15 13 8 6 0 34 1 34 6 7 22
CALL[ ]	/* CallFunction */";
};
vertWidth = 0;
width = 399;
},
{
layerId = "6F3CF9BF-DB96-4F2C-A4AA-F3DDDD8E5607";
shapes = (
{
closed = 1;
nodes = (
(254,74,q),
(251,50,ls),
(248,28,o),
(270,0,o),
(294,0,qs),
(348,0,o),
(352,45,qs),
(388,361,ls),
(390,383,o),
(369,416,o),
(341,416,qs),
(308,416,o),
(289,384,o),
(287,368,qs),
(269,207,l),
(227,138,o),
(165,93,o),
(148,93,qs),
(135,93,o),
(125,112,o),
(128,137,qs),
(154,361,ls),
(156,383,o),
(136,416,o),
(107,416,qs),
(78,416,o),
(57,384,o),
(55,367,qs),
(27,142,ls),
(18,74,o),
(72,-1,o),
(124,-1,qs),
(191,-1,o)
);
}
);
userData = {
assembly = "NPUSHB[ ]	/* 42 values pushed */
31 1 0 2 1 76 3 1 1 1 17 77 0 2 2 0 98 4 5 2 0 0 24 0 78 1 0 28 26 22 20 15 13 8 6 0 32 1 32 6 7 22
CALL[ ]	/* CallFunction */";
};
vertWidth = 0;
width = 444;
}
);
note = u;
unicode = 117;
},
{
color = 6;
glyphname = uacute;
kernLeft = n_left;
kernRight = n_right;
layers = (
{
layerId = m01;
shapes = (
{
closed = 1;
nodes = (
(184,-1,o),
(234,58,o),
(284,143,c),
(295,273,l),
(221,110,o),
(172,57,o),
(122,57,cs),
(93,57,o),
(81,90,o),
(86,138,cs),
(112,381,ls),
(114,398,o),
(112,416,o),
(86,416,cs),
(59,416,o),
(56,397,o),
(55,384,cs),
(26,138,ls),
(17,61,o),
(50,-1,o),
(119,-1,cs)
);
},
{
closed = 1;
nodes = (
(295,0,o),
(305,11,o),
(308,32,cs),
(345,381,ls),
(347,398,o),
(343,416,o),
(318,416,cs),
(293,416,o),
(287,397,o),
(286,384,cs),
(248,32,ls),
(246,12,o),
(251,0,o),
(271,0,cs)
);
},
{
closed = 1;
nodes = (
(169,480,o),
(163,471,o),
(163,465,qs),
(163,457,o),
(176,444,o),
(185,444,qs),
(190,444,o),
(198,448,o),
(200,450,qs),
(296,534,ls),
(302,539,o),
(306,552,o),
(306,555,qs),
(306,565,o),
(290,580,o),
(281,580,qs),
(272,580,o),
(263,573,q),
(171,482,ls)
);
}
);
vertWidth = 0;
width = 399;
},
{
layerId = "6F3CF9BF-DB96-4F2C-A4AA-F3DDDD8E5607";
shapes = (
{
closed = 1;
nodes = (
(254,74,q),
(251,50,ls),
(248,28,o),
(270,0,o),
(294,0,qs),
(348,0,o),
(352,45,qs),
(388,361,ls),
(390,383,o),
(369,416,o),
(341,416,qs),
(308,416,o),
(289,384,o),
(287,368,qs),
(269,207,l),
(227,138,o),
(165,93,o),
(148,93,qs),
(135,93,o),
(125,112,o),
(128,137,qs),
(154,361,ls),
(156,383,o),
(136,416,o),
(107,416,qs),
(78,416,o),
(57,384,o),
(55,367,qs),
(27,142,ls),
(18,74,o),
(72,-1,o),
(124,-1,qs),
(191,-1,o)
);
},
{
closed = 1;
nodes = (
(187,522,o),
(182,513,o),
(182,507,qs),
(182,500,o),
(194,487,o),
(202,487,qs),
(206,487,o),
(214,491,o),
(215,494,qs),
(307,572,ls),
(313,578,o),
(318,590,o),
(318,593,qs),
(318,603,o),
(301,617,o),
(293,617,qs),
(285,617,o),
(275,610,q),
(188,524,ls)
);
}
);
userData = {
assembly = "NPUSHB[ ]	/* 42 values pushed */
31 1 0 2 1 76 3 1 1 1 17 77 0 2 2 0 98 4 5 2 0 0 24 0 78 1 0 28 26 22 20 15 13 8 6 0 32 1 32 6 7 22
CALL[ ]	/* CallFunction */";
};
vertWidth = 0;
width = 444;
}
);
unicode = 250;
},
{
glyphname = ubreve;
kernLeft = n_left;
kernRight = n_right;
layers = (
{
layerId = m01;
shapes = (
{
closed = 1;
nodes = (
(142,546,o),
(130,546,qs),
(119,546,o),
(105,531,o),
(105,522,qs),
(105,519,o),
(107,509,o),
(111,503,qs),
(130,472,o),
(180,449,o),
(202,449,qs),
(216,449,o),
(267,462,o),
(296,493,qs),
(308,505,o),
(308,520,qs),
(308,531,o),
(292,546,o),
(282,546,qs),
(274,546,o),
(265,540,o),
(260,535,qs),
(242,515,o),
(216,498,o),
(203,498,qs),
(191,498,o),
(166,513,o),
(152,533,qs)
);
},
{
closed = 1;
nodes = (
(168,-1,o),
(247,79,o),
(284,143,q),
(295,273,l),
(258,192,o),
(198,97,o),
(147,57,o),
(122,57,qs),
(100,57,o),
(82,102,o),
(86,138,qs),
(112,381,ls),
(114,394,o),
(106,416,o),
(86,416,qs),
(66,416,o),
(56,394,o),
(55,384,qs),
(26,138,ls),
(19,80,o),
(67,-1,o),
(119,-1,qs)
);
},
{
closed = 1;
nodes = (
(289,0,o),
(306,16,o),
(308,32,qs),
(345,381,ls),
(347,394,o),
(337,416,o),
(318,416,qs),
(299,416,o),
(287,394,o),
(286,384,qs),
(248,32,ls),
(247,17,o),
(256,0,o),
(271,0,qs)
);
}
);
userData = {
assembly = "NPUSHB[ ]	/* 75 values pushed */
45 1 5 4 52 1 6 5 2 76 0 0 0 2 4 0 2 105 3 1 1 1 6 97 10 8 9 3 6 6 24 77 7 1 4 4 17 77 0 5 5 6 98 10 8 9 3 6 6 24 6 78 50 50 28 28 50 63 50 62 57 55 28 49 28 48 37 39 39 38 36 33 11 7 28
CALL[ ]	/* CallFunction */";
};
vertWidth = 0;
width = 399;
},
{
layerId = "6F3CF9BF-DB96-4F2C-A4AA-F3DDDD8E5607";
width = 600;
}
);
note = ubreve;
unicode = 365;
},
{
glyphname = udieresis;
kernLeft = n_left;
kernRight = n_right;
layers = (
{
layerId = m01;
shapes = (
{
closed = 1;
nodes = (
(112,506,o),
(134,484,o),
(149,484,qs),
(165,484,o),
(187,506,o),
(187,522,qs),
(187,537,o),
(165,559,o),
(149,559,qs),
(134,559,o),
(112,537,o),
(112,522,qs)
);
},
{
closed = 1;
nodes = (
(230,506,o),
(252,484,o),
(267,484,qs),
(283,484,o),
(305,506,o),
(305,522,qs),
(305,537,o),
(283,559,o),
(267,559,qs),
(252,559,o),
(230,537,o),
(230,522,qs)
);
},
{
closed = 1;
nodes = (
(168,-1,o),
(247,79,o),
(284,143,q),
(295,273,l),
(258,192,o),
(198,97,o),
(147,57,o),
(122,57,qs),
(100,57,o),
(82,102,o),
(86,138,qs),
(112,381,ls),
(114,394,o),
(106,416,o),
(86,416,qs),
(66,416,o),
(56,394,o),
(55,384,qs),
(26,138,ls),
(19,80,o),
(67,-1,o),
(119,-1,qs)
);
},
{
closed = 1;
nodes = (
(289,0,o),
(306,16,o),
(308,32,qs),
(345,381,ls),
(347,394,o),
(337,416,o),
(318,416,qs),
(299,416,o),
(287,394,o),
(286,384,qs),
(248,32,ls),
(247,17,o),
(256,0,o),
(271,0,qs)
);
}
);
userData = {
assembly = "NPUSHB[ ]	/* 63 values pushed */
41 1 5 4 48 1 6 5 2 76 2 1 0 3 1 1 4 0 1 105 7 1 4 4 17 77 0 5 5 6 98 10 8 9 3 6 6 24 6 78 46 46 24 24 46 59 46 58 53 51 24 45 24 44 37 40 36 36 36 33 11 7 28
CALL[ ]	/* CallFunction */";
};
vertWidth = 0;
width = 399;
},
{
layerId = "6F3CF9BF-DB96-4F2C-A4AA-F3DDDD8E5607";
shapes = (
{
closed = 1;
nodes = (
(254,74,q),
(251,50,ls),
(248,28,o),
(270,0,o),
(294,0,qs),
(348,0,o),
(352,45,qs),
(388,361,ls),
(390,383,o),
(369,416,o),
(341,416,qs),
(308,416,o),
(289,384,o),
(287,368,qs),
(269,207,l),
(227,138,o),
(165,93,o),
(148,93,qs),
(135,93,o),
(125,112,o),
(128,137,qs),
(154,361,ls),
(156,383,o),
(136,416,o),
(107,416,qs),
(78,416,o),
(57,384,o),
(55,367,qs),
(27,142,ls),
(18,74,o),
(72,-1,o),
(124,-1,qs),
(191,-1,o)
);
},
{
closed = 1;
nodes = (
(105,525,o),
(131,500,o),
(149,500,qs),
(167,500,o),
(193,525,o),
(193,544,qs),
(193,562,o),
(167,588,o),
(149,588,qs),
(131,588,o),
(105,562,o),
(105,544,qs)
);
},
{
closed = 1;
nodes = (
(244,525,o),
(270,500,o),
(287,500,qs),
(306,500,o),
(332,525,o),
(332,544,qs),
(332,562,o),
(306,588,o),
(287,588,qs),
(270,588,o),
(244,562,o),
(244,544,qs)
);
}
);
userData = {
assembly = "NPUSHB[ ]	/* 42 values pushed */
31 1 0 2 1 76 3 1 1 1 17 77 0 2 2 0 98 4 5 2 0 0 24 0 78 1 0 28 26 22 20 15 13 8 6 0 32 1 32 6 7 22
CALL[ ]	/* CallFunction */";
};
vertWidth = 0;
width = 444;
}
);
note = udieresis;
unicode = 252;
},
{
color = 6;
glyphname = ugrave;
kernLeft = n_left;
kernRight = n_right;
layers = (
{
layerId = m01;
shapes = (
{
closed = 1;
nodes = (
(184,-1,o),
(234,58,o),
(284,143,c),
(295,273,l),
(221,110,o),
(172,57,o),
(122,57,cs),
(93,57,o),
(81,90,o),
(86,138,cs),
(112,381,ls),
(114,398,o),
(112,416,o),
(86,416,cs),
(59,416,o),
(56,397,o),
(55,384,cs),
(26,138,ls),
(17,61,o),
(50,-1,o),
(119,-1,cs)
);
},
{
closed = 1;
nodes = (
(295,0,o),
(305,11,o),
(308,32,cs),
(345,381,ls),
(347,398,o),
(343,416,o),
(318,416,cs),
(293,416,o),
(287,397,o),
(286,384,cs),
(248,32,ls),
(246,12,o),
(251,0,o),
(271,0,cs)
);
},
{
closed = 1;
nodes = (
(152,573,l),
(143,580,o),
(134,580,qs),
(125,580,o),
(109,565,o),
(109,555,qs),
(109,552,o),
(113,539,o),
(119,534,qs),
(215,450,ls),
(217,448,o),
(225,444,o),
(230,444,qs),
(239,444,o),
(252,457,o),
(252,465,qs),
(252,471,o),
(246,480,o),
(244,482,qs)
);
}
);
vertWidth = 0;
width = 399;
},
{
layerId = "6F3CF9BF-DB96-4F2C-A4AA-F3DDDD8E5607";
shapes = (
{
closed = 1;
nodes = (
(254,74,q),
(251,50,ls),
(248,28,o),
(270,0,o),
(294,0,qs),
(348,0,o),
(352,45,qs),
(388,361,ls),
(390,383,o),
(369,416,o),
(341,416,qs),
(308,416,o),
(289,384,o),
(287,368,qs),
(269,207,l),
(227,138,o),
(165,93,o),
(148,93,qs),
(135,93,o),
(125,112,o),
(128,137,qs),
(154,361,ls),
(156,383,o),
(136,416,o),
(107,416,qs),
(78,416,o),
(57,384,o),
(55,367,qs),
(27,142,ls),
(18,74,o),
(72,-1,o),
(124,-1,qs),
(191,-1,o)
);
},
{
closed = 1;
nodes = (
(178,629,l),
(168,637,o),
(158,637,qs),
(148,637,o),
(131,620,o),
(131,609,qs),
(131,606,o),
(135,592,o),
(142,586,qs),
(248,494,ls),
(250,491,o),
(259,487,o),
(264,487,qs),
(274,487,o),
(288,501,o),
(288,510,qs),
(288,517,o),
(282,527,o),
(280,529,qs)
);
}
);
userData = {
assembly = "NPUSHB[ ]	/* 42 values pushed */
31 1 0 2 1 76 3 1 1 1 17 77 0 2 2 0 98 4 5 2 0 0 24 0 78 1 0 28 26 22 20 15 13 8 6 0 32 1 32 6 7 22
CALL[ ]	/* CallFunction */";
};
vertWidth = 0;
width = 444;
}
);
unicode = 249;
},
{
glyphname = uhorn;
kernLeft = n_left;
layers = (
{
layerId = m01;
shapes = (
{
closed = 1;
nodes = (
(388,311,o),
(433,375,o),
(438,432,qs),
(439,444,o),
(426,457,o),
(409,459,o),
(394,448,o),
(392,437,qs),
(387,397,o),
(366,352,o),
(341,343,q),
(336,297,l)
);
},
{
closed = 1;
nodes = (
(168,-1,o),
(247,79,o),
(284,143,q),
(295,273,l),
(258,192,o),
(198,97,o),
(147,57,o),
(122,57,qs),
(100,57,o),
(82,102,o),
(86,138,qs),
(112,381,ls),
(114,394,o),
(106,416,o),
(86,416,qs),
(66,416,o),
(56,394,o),
(55,384,qs),
(26,138,ls),
(19,80,o),
(67,-1,o),
(119,-1,qs)
);
},
{
closed = 1;
nodes = (
(289,0,o),
(306,16,o),
(308,32,qs),
(345,381,ls),
(347,394,o),
(337,416,o),
(318,416,qs),
(299,416,o),
(287,394,o),
(286,384,qs),
(248,32,ls),
(247,17,o),
(256,0,o),
(271,0,qs)
);
}
);
userData = {
assembly = "NPUSHB[ ]	/* 52 values pushed */
29 11 2 1 0 36 1 2 1 2 76 3 1 0 0 17 77 0 1 1 2 98 6 4 5 3 2 2 24 2 78 34 34 12 12 34 47 34 46 41 39 12 33 12 32 26 24 19 17 7 7 22
CALL[ ]	/* CallFunction */";
};
vertWidth = 0;
width = 399;
},
{
layerId = "6F3CF9BF-DB96-4F2C-A4AA-F3DDDD8E5607";
width = 600;
}
);
note = uhorn;
unicode = 432;
},
{
glyphname = umacron;
kernLeft = n_left;
kernRight = n_right;
layers = (
{
layerId = m01;
shapes = (
{
closed = 1;
nodes = (
(303,490,o),
(323,505,o),
(323,518,qs),
(323,531,o),
(305,545,o),
(288,545,qs),
(112,545,ls),
(96,545,o),
(76,531,o),
(76,518,qs),
(76,505,o),
(94,490,o),
(110,490,qs),
(286,490,ls)
);
},
{
closed = 1;
nodes = (
(168,-1,o),
(247,79,o),
(284,143,q),
(295,273,l),
(258,192,o),
(198,97,o),
(147,57,o),
(122,57,qs),
(100,57,o),
(82,102,o),
(86,138,qs),
(112,381,ls),
(114,394,o),
(106,416,o),
(86,416,qs),
(66,416,o),
(56,394,o),
(55,384,qs),
(26,138,ls),
(19,80,o),
(67,-1,o),
(119,-1,qs)
);
},
{
closed = 1;
nodes = (
(289,0,o),
(306,16,o),
(308,32,qs),
(345,381,ls),
(347,394,o),
(337,416,o),
(318,416,qs),
(299,416,o),
(287,394,o),
(286,384,qs),
(248,32,ls),
(247,17,o),
(256,0,o),
(271,0,qs)
);
}
);
userData = {
assembly = "NPUSHB[ ]	/* 68 values pushed */
31 1 3 2 38 1 4 3 2 76 0 1 7 1 0 2 1 0 103 5 1 2 2 17 77 0 3 3 4 98 9 6 8 3 4 4 24 4 78 36 36 14 14 1 0 36 49 36 48 43 41 14 35 14 34 28 26 21 19 8 5 0 13 1 12 10 7 22
CALL[ ]	/* CallFunction */";
};
vertWidth = 0;
width = 399;
},
{
layerId = "6F3CF9BF-DB96-4F2C-A4AA-F3DDDD8E5607";
shapes = (
{
closed = 1;
nodes = (
(254,74,q),
(251,50,ls),
(248,28,o),
(270,0,o),
(294,0,qs),
(348,0,o),
(352,45,qs),
(388,361,ls),
(390,383,o),
(369,416,o),
(341,416,qs),
(308,416,o),
(289,384,o),
(287,368,qs),
(269,207,l),
(227,138,o),
(165,93,o),
(148,93,qs),
(135,93,o),
(125,112,o),
(128,137,qs),
(154,361,ls),
(156,383,o),
(136,416,o),
(107,416,qs),
(78,416,o),
(57,384,o),
(55,367,qs),
(27,142,ls),
(18,74,o),
(72,-1,o),
(124,-1,qs),
(191,-1,o)
);
},
{
closed = 1;
nodes = (
(355,487,o),
(379,505,o),
(379,521,qs),
(379,537,o),
(357,554,o),
(336,554,qs),
(122,554,ls),
(102,554,o),
(78,537,o),
(78,521,qs),
(78,505,o),
(100,487,o),
(119,487,qs),
(334,487,ls)
);
}
);
userData = {
assembly = "NPUSHB[ ]	/* 42 values pushed */
31 1 0 2 1 76 3 1 1 1 17 77 0 2 2 0 98 4 5 2 0 0 24 0 78 1 0 28 26 22 20 15 13 8 6 0 32 1 32 6 7 22
CALL[ ]	/* CallFunction */";
};
vertWidth = 0;
width = 444;
}
);
note = umacron;
unicode = 363;
},
{
glyphname = uni01D4;
kernLeft = n_left;
kernRight = n_right;
layers = (
{
layerId = m01;
shapes = (
{
closed = 1;
nodes = (
(302,543,o),
(302,549,qs),
(302,557,o),
(289,570,o),
(281,570,qs),
(271,570,o),
(265,564,qs),
(201,499,l),
(151,563,ls),
(149,565,o),
(141,570,o),
(135,570,qs),
(127,570,o),
(114,557,o),
(114,549,qs),
(114,544,o),
(117,536,o),
(119,534,q),
(177,450,ls),
(186,438,o),
(198,438,qs),
(206,438,o),
(216,444,o),
(219,448,qs),
(294,532,ls),
(296,534,o)
);
},
{
closed = 1;
nodes = (
(168,-1,o),
(247,79,o),
(284,143,q),
(295,273,l),
(258,192,o),
(198,97,o),
(147,57,o),
(122,57,qs),
(100,57,o),
(82,102,o),
(86,138,qs),
(112,381,ls),
(114,394,o),
(106,416,o),
(86,416,qs),
(66,416,o),
(56,394,o),
(55,384,qs),
(26,138,ls),
(19,80,o),
(67,-1,o),
(119,-1,qs)
);
},
{
closed = 1;
nodes = (
(289,0,o),
(306,16,o),
(308,32,qs),
(345,381,ls),
(347,394,o),
(337,416,o),
(318,416,qs),
(299,416,o),
(287,394,o),
(286,384,qs),
(248,32,ls),
(247,17,o),
(256,0,o),
(271,0,qs)
);
}
);
vertWidth = 0;
width = 399;
},
{
layerId = "6F3CF9BF-DB96-4F2C-A4AA-F3DDDD8E5607";
width = 600;
}
);
note = uni01D4;
unicode = 468;
},
{
glyphname = uni1EA7;
kernLeft = o_left;
kernRight = n_right;
layers = (
{
layerId = m01;
shapes = (
{
closed = 1;
nodes = (
(210,645,o),
(225,640,o),
(230,643,qs),
(233,645,o),
(238,652,o),
(238,656,qs),
(237,660,o),
(234,667,qs),
(211,737,o),
(200,747,q),
(198,753,o),
(189,758,qs),
(182,761,o),
(174,761,qs),
(168,761,o),
(157,753,o),
(154,740,o),
(159,731,q),
(169,687,o),
(205,654,q)
);
},
{
closed = 1;
nodes = (
(217,574,l),
(298,476,ls),
(305,468,o),
(314,468,qs),
(322,469,o),
(328,474,qs),
(334,479,o),
(336,497,o),
(330,504,qs),
(253,595,ls),
(248,601,o),
(238,602,qs),
(230,603,o),
(221,595,qs),
(110,503,ls),
(102,496,o),
(102,489,qs),
(102,481,o),
(107,475,q),
(113,470,o),
(120,468,q),
(130,467,o),
(138,474,qs),
(252,570,l)
);
},
{
closed = 1;
nodes = (
(176,-1,o),
(211,14,o),
(243,41,o),
(269,76,o),
(279,97,q),
(296,290,l),
(289,252,o),
(263,169,o),
(226,98,o),
(182,53,o),
(157,53,qs),
(126,53,o),
(89,97,o),
(77,167,o),
(81,206,qs),
(89,282,o),
(155,366,o),
(198,366,qs),
(224,366,o),
(286,343,o),
(303,317,q),
(309,372,l),
(287,397,o),
(226,421,o),
(200,421,qs),
(156,421,o),
(80,372,o),
(29,278,o),
(21,209,qs),
(16,157,o),
(41,61,o),
(104,-1,o),
(156,-1,qs)
);
},
{
closed = 1;
nodes = (
(306,0,o),
(325,17,o),
(327,33,qs),
(364,380,ls),
(366,398,o),
(348,416,o),
(337,416,qs),
(326,416,o),
(306,400,o),
(304,384,qs),
(267,33,ls),
(266,17,o),
(283,0,o),
(295,0,qs)
);
}
);
userData = {
assembly = "MPPEM[ ]	/* MeasurePixelPerEm */
PUSHB[ ]	/* 1 value pushed */
47
LT[ ]	/* LessThan */
IF[ ]	/* If */
NPUSHB[ ]	/* 20 values pushed */
43 42 2 1 0 54 1 3 2 70 55 2 4 3 79 1 5 4 4 76
ELSE[ ]	/* Else */
NPUSHB[ ]	/* 20 values pushed */
43 42 2 1 0 54 1 3 6 70 55 2 4 3 79 1 5 4 4 76
EIF[ ]	/* EndIf */
MPPEM[ ]	/* MeasurePixelPerEm */
PUSHB[ ]	/* 1 value pushed */
44
LT[ ]	/* LessThan */
IF[ ]	/* If */
NPUSHB[ ]	/* 38 values pushed */
0 1 0 2 0 1 2 128 0 0 0 14 77 0 3 3 2 97 6 1 2 2 23 77 0 4 4 5 97 9 7 8 3 5 5 24 5 78
ELSE[ ]	/* Else */
MPPEM[ ]	/* MeasurePixelPerEm */
PUSHB[ ]	/* 1 value pushed */
47
LT[ ]	/* LessThan */
IF[ ]	/* If */
NPUSHB[ ]	/* 35 values pushed */
0 0 1 0 133 0 1 2 1 133 0 3 3 2 97 6 1 2 2 23 77 0 4 4 5 97 9 7 8 3 5 5 24 5 78
ELSE[ ]	/* Else */
NPUSHB[ ]	/* 39 values pushed */
0 0 1 0 133 0 1 2 1 133 0 6 6 17 77 0 3 3 2 97 0 2 2 23 77 0 4 4 5 97 9 7 8 3 5 5 24 5 78
EIF[ ]	/* EndIf */
EIF[ ]	/* EndIf */
NPUSHB[ ]	/* 26 values pushed */
77 77 44 44 77 90 77 89 84 82 44 76 44 75 66 64 59 57 52 50 40 39 36 10 7 23
CALL[ ]	/* CallFunction */";
};
vertWidth = 0;
width = 418;
},
{
layerId = "6F3CF9BF-DB96-4F2C-A4AA-F3DDDD8E5607";
width = 600;
}
);
note = uni1EA7;
unicode = 7847;
},
{
glyphname = uni1EBF;
kernLeft = o_left;
layers = (
{
layerId = m01;
shapes = (
{
closed = 1;
nodes = (
(167,574,l),
(248,476,l),
(256,468,o),
(272,469,o),
(278,474,qs),
(284,479,o),
(286,497,o),
(280,504,qs),
(203,595,ls),
(198,601,o),
(179,603,o),
(171,595,q),
(60,503,ls),
(52,497,o),
(52,481,o),
(57,475,q),
(63,470,o),
(78,467,o),
(88,474,q),
(202,570,l)
);
},
{
closed = 1;
nodes = (
(206,-1,o),
(276,51,o),
(298,91,qs),
(303,100,o),
(297,122,o),
(286,128,qs),
(275,135,o),
(252,129,o),
(247,120,qs),
(231,88,o),
(185,53,o),
(162,53,qs),
(129,53,o),
(90,97,o),
(77,167,o),
(81,206,qs),
(89,282,o),
(155,366,o),
(198,366,qs),
(226,366,o),
(252,345,o),
(252,334,qs),
(252,324,o),
(217,289,o),
(161,246,o),
(98,204,o),
(71,187,q),
(78,129,l),
(114,152,o),
(195,205,o),
(267,261,o),
(312,316,o),
(312,339,qs),
(312,361,o),
(280,398,o),
(229,421,o),
(200,421,qs),
(156,421,o),
(80,372,o),
(29,278,o),
(21,209,qs),
(17,170,o),
(29,95,o),
(62,35,o),
(117,-1,o),
(156,-1,qs)
);
},
{
closed = 1;
nodes = (
(259,590,o),
(255,583,o),
(255,579,qs),
(255,574,o),
(264,564,o),
(270,564,qs),
(273,564,o),
(279,567,o),
(280,569,qs),
(348,627,ls),
(352,631,o),
(355,640,o),
(355,642,qs),
(355,649,o),
(343,660,o),
(337,660,qs),
(331,660,o),
(324,655,q),
(260,591,ls)
);
}
);
userData = {
assembly = "NPUSHB[ ]	/* 61 values pushed */
35 34 2 1 0 53 1 4 3 2 76 0 0 1 0 133 0 1 2 1 133 0 3 3 2 97 0 2 2 23 77 0 4 4 5 97 6 1 5 5 24 5 78 36 36 36 81 36 80 70 68 63 61 45 43 32 31 35 7 7 23
CALL[ ]	/* CallFunction */";
};
vertWidth = 0;
width = 373;
},
{
layerId = "6F3CF9BF-DB96-4F2C-A4AA-F3DDDD8E5607";
width = 600;
}
);
note = uni1EBF;
unicode = 7871;
},
{
glyphname = v;
kernLeft = v;
kernRight = v;
layers = (
{
layerId = m01;
shapes = (
{
closed = 1;
nodes = (
(106,0,o),
(116,0,qs),
(127,0,o),
(143,9,o),
(150,23,qs),
(309,367,ls),
(319,390,o),
(303,416,o),
(286,416,qs),
(277,416,o),
(261,405,o),
(253,390,q),
(126,102,l),
(74,390,ls),
(71,403,o),
(55,416,o),
(46,416,qs),
(30,416,o),
(14,390,o),
(18,366,qs),
(87,25,ls),
(89,11,o)
);
}
);
userData = {
assembly = "NPUSHB[ ]	/* 24 values pushed */
8 1 2 0 1 76 1 1 0 0 17 77 0 2 2 15 2 78 37 38 35 3 7 25
CALL[ ]	/* CallFunction */";
};
vertWidth = 0;
width = 333;
},
{
layerId = "6F3CF9BF-DB96-4F2C-A4AA-F3DDDD8E5607";
shapes = (
{
closed = 1;
nodes = (
(121,-1,o),
(137,-1,qs),
(151,-1,o),
(179,14,o),
(189,33,qs),
(341,338,ls),
(356,369,o),
(328,416,o),
(301,416,qs),
(286,416,o),
(258,401,o),
(250,386,q),
(152,163,l),
(113,377,ls),
(109,394,o),
(82,415,o),
(65,415,qs),
(39,415,o),
(9,374,o),
(17,342,qs),
(88,40,ls),
(93,18,o)
);
}
);
userData = {
assembly = "NPUSHB[ ]	/* 24 values pushed */
8 1 2 0 1 76 1 1 0 0 17 77 0 2 2 24 2 78 37 38 35 3 7 25
CALL[ ]	/* CallFunction */";
};
vertWidth = 0;
width = 370;
}
);
note = v;
unicode = 118;
},
{
glyphname = w;
kernLeft = v;
kernRight = v;
layers = (
{
layerId = m01;
shapes = (
{
closed = 1;
nodes = (
(106,0,o),
(116,0,qs),
(127,0,o),
(143,9,o),
(150,23,qs),
(275,302,l),
(327,25,ls),
(329,11,o),
(346,0,o),
(356,0,qs),
(367,0,o),
(383,9,o),
(390,23,qs),
(549,367,ls),
(559,390,o),
(543,414,o),
(526,416,qs),
(506,418,o),
(498,399,qs),
(368,102,l),
(312,396,ls),
(311,404,o),
(295,416,o),
(286,416,qs),
(266,416,o),
(258,399,qs),
(126,101,l),
(72,396,ls),
(71,404,o),
(55,416,o),
(46,416,qs),
(30,416,o),
(14,390,o),
(18,366,qs),
(87,25,ls),
(89,11,o)
);
}
);
userData = {
assembly = "NPUSHB[ ]	/* 28 values pushed */
29 15 8 3 2 0 1 76 1 1 0 0 17 77 3 1 2 2 15 2 78 38 44 37 35 4 7 26
CALL[ ]	/* CallFunction */";
};
vertWidth = 0;
width = 573;
},
{
layerId = "6F3CF9BF-DB96-4F2C-A4AA-F3DDDD8E5607";
shapes = (
{
closed = 1;
nodes = (
(119,-1,o),
(136,-1,qs),
(177,-1,o),
(190,34,qs),
(266,235,l),
(297,40,ls),
(300,20,o),
(328,-1,o),
(346,-1,qs),
(382,-1,o),
(399,33,qs),
(544,338,ls),
(558,369,o),
(530,415,o),
(503,416,qs),
(488,416,o),
(460,402,o),
(454,388,qs),
(361,162,l),
(330,379,ls),
(328,396,o),
(300,416,o),
(283,416,qs),
(269,416,o),
(241,400,o),
(236,387,qs),
(152,162,l),
(112,379,ls),
(108,395,o),
(82,416,o),
(65,416,qs),
(39,416,o),
(9,375,o),
(17,343,qs),
(88,40,ls),
(92,21,o)
);
}
);
userData = {
assembly = "NPUSHB[ ]	/* 30 values pushed */
30 16 8 3 3 0 1 76 2 1 2 0 0 17 77 4 1 3 3 24 3 78 37 36 38 38 35 5 7 27
CALL[ ]	/* CallFunction */";
};
vertWidth = 0;
width = 571;
}
);
note = w;
unicode = 119;
},
{
glyphname = x;
layers = (
{
layerId = m01;
shapes = (
{
closed = 1;
nodes = (
(53,11,o),
(61,21,qs),
(162,155,l),
(233,25,ls),
(241,11,o),
(255,0,o),
(264,0,qs),
(284,0,o),
(295,33,o),
(282,58,qs),
(203,205,l),
(321,361,ls),
(335,380,o),
(327,416,o),
(303,416,qs),
(288,416,o),
(277,402,qs),
(172,261,l),
(100,396,ls),
(95,404,o),
(79,416,o),
(70,416,qs),
(56,416,o),
(36,390,o),
(48,367,qs),
(131,211,l),
(17,58,ls),
(0,36,o),
(8,0,o),
(27,0,qs),
(38,0,o)
);
}
);
userData = {
assembly = "NPUSHB[ ]	/* 38 values pushed */
27 19 12 4 4 0 1 1 76 2 1 1 1 17 77 3 4 2 0 0 15 0 78 1 0 24 22 16 14 9 7 0 30 1 30 5 7 22
CALL[ ]	/* CallFunction */";
};
vertWidth = 0;
width = 374;
},
{
layerId = "6F3CF9BF-DB96-4F2C-A4AA-F3DDDD8E5607";
shapes = (
{
closed = 1;
nodes = (
(90,12,o),
(101,28,qs),
(171,119,l),
(218,35,ls),
(238,-1,o),
(266,-1,qs),
(301,-1,o),
(324,52,o),
(305,87,qs),
(243,200,l),
(342,329,ls),
(358,350,o),
(357,390,o),
(330,416,o),
(307,416,qs),
(296,416,o),
(273,407,o),
(265,395,qs),
(190,297,l),
(140,386,ls),
(124,416,o),
(93,416,qs),
(61,416,o),
(35,365,o),
(50,337,qs),
(118,214,l),
(23,90,ls),
(3,64,o),
(7,23,o),
(36,-1,o),
(53,-1,qs),
(66,-1,o)
);
}
);
userData = {
assembly = "NPUSHB[ ]	/* 38 values pushed */
28 21 12 5 4 0 1 1 76 2 1 1 1 17 77 3 4 2 0 0 24 0 78 1 0 26 24 17 15 10 8 0 31 1 31 5 7 22
CALL[ ]	/* CallFunction */";
};
vertWidth = 0;
width = 401;
}
);
note = x;
unicode = 120;
},
{
glyphname = y;
kernLeft = m;
layers = (
{
layerId = m01;
shapes = (
{
closed = 1;
nodes = (
(224,53,o),
(255,99,q),
(229,-146,ls),
(222,-218,o),
(155,-302,o),
(105,-302,qs),
(50,-302,o),
(18,-268,q),
(1,-253,o),
(-15,-264,qs),
(-43,-283,o),
(-19,-308,qs),
(3,-330,o),
(69,-356,o),
(103,-356,qs),
(179,-356,o),
(278,-243,o),
(289,-146,qs),
(345,380,ls),
(347,398,o),
(329,416,o),
(318,416,qs),
(307,416,o),
(287,400,o),
(285,384,qs),
(269,233,l),
(223,138,o),
(155,57,o),
(121,57,qs),
(99,57,o),
(81,106,o),
(84,138,qs),
(110,381,ls),
(112,394,o),
(102,417,o),
(84,416,qs),
(67,415,o),
(53,391,o),
(52,381,qs),
(25,138,ls),
(19,80,o),
(66,-1,o),
(118,-1,qs),
(159,-1,o)
);
}
);
userData = {
assembly = "NPUSHB[ ]	/* 53 values pushed */
41 1 2 1 1 76 3 1 1 1 17 77 0 2 2 0 98 6 1 0 0 24 77 0 5 5 4 97 0 4 4 19 4 78 1 0 38 36 29 27 22 20 15 13 8 6 0 43 1 43 7 7 22
CALL[ ]	/* CallFunction */";
};
vertWidth = 0;
width = 399;
},
{
layerId = "6F3CF9BF-DB96-4F2C-A4AA-F3DDDD8E5607";
shapes = (
{
closed = 1;
nodes = (
(255,77,q),
(233,-138,ls),
(226,-203,o),
(177,-263,o),
(139,-263,qs),
(95,-263,o),
(64,-231,qs),
(55,-222,o),
(28,-211,o),
(8,-223,qs),
(-11,-235,o),
(-17,-278,o),
(-1,-297,qs),
(18,-319,o),
(89,-356,o),
(133,-356,qs),
(214,-356,o),
(322,-248,o),
(334,-144,qs),
(388,362,ls),
(391,388,o),
(361,416,o),
(341,416,qs),
(322,416,o),
(289,394,o),
(286,371,qs),
(270,212,l),
(227,141,o),
(165,93,o),
(148,93,qs),
(135,93,o),
(125,113,o),
(127,137,qs),
(153,361,ls),
(156,383,o),
(136,416,o),
(106,416,qs),
(78,416,o),
(56,383,o),
(54,366,qs),
(26,142,ls),
(18,74,o),
(72,-1,o),
(124,-1,qs),
(192,-1,o)
);
}
);
userData = {
assembly = "NPUSHB[ ]	/* 53 values pushed */
43 1 0 2 1 76 3 1 1 1 17 77 0 2 2 0 98 6 1 0 0 24 77 0 5 5 4 97 0 4 4 19 4 78 1 0 40 38 29 27 22 20 15 13 8 6 0 44 1 44 7 7 22
CALL[ ]	/* CallFunction */";
};
vertWidth = 0;
width = 445;
}
);
note = y;
unicode = 121;
},
{
glyphname = z;
layers = (
{
layerId = m01;
shapes = (
{
closed = 1;
nodes = (
(297,0,o),
(308,19,o),
(308,30,qs),
(308,41,o),
(293,59,o),
(276,59,qs),
(99,59,l),
(336,367,ls),
(350,385,o),
(331,416,o),
(314,416,qs),
(82,416,ls),
(64,416,o),
(52,397,o),
(52,386,qs),
(52,376,o),
(68,356,o),
(86,356,qs),
(256,356,l),
(23,52,ls),
(10,36,o),
(29,0,o),
(45,0,qs),
(279,0,ls)
);
}
);
userData = {
assembly = "NPUSHB[ ]	/* 37 values pushed */
0 1 1 2 95 0 2 2 17 77 0 3 3 0 95 4 1 0 0 15 0 78 1 0 18 16 13 10 6 4 0 23 1 22 5 7 22
CALL[ ]	/* CallFunction */";
};
vertWidth = 0;
width = 388;
},
{
layerId = "6F3CF9BF-DB96-4F2C-A4AA-F3DDDD8E5607";
shapes = (
{
closed = 1;
nodes = (
(297,0,o),
(321,25,o),
(321,46,qs),
(321,63,o),
(296,94,o),
(269,94,qs),
(154,94,l),
(343,338,ls),
(357,357,o),
(352,392,o),
(323,416,o),
(302,416,qs),
(92,416,ls),
(63,416,o),
(42,387,o),
(42,370,qs),
(42,353,o),
(68,322,o),
(96,322,qs),
(205,322,l),
(20,81,ls),
(6,63,o),
(12,26,o),
(42,0,o),
(63,0,qs),
(271,0,ls)
);
}
);
userData = {
assembly = "NPUSHB[ ]	/* 37 values pushed */
0 1 1 2 95 0 2 2 17 77 0 3 3 0 95 4 1 0 0 15 0 78 1 0 20 18 14 11 7 5 0 25 1 24 5 7 22
CALL[ ]	/* CallFunction */";
};
vertWidth = 0;
width = 409;
}
);
note = z;
unicode = 122;
},
{
color = 6;
glyphname = fi;
layers = (
{
layerId = m01;
shapes = (
{
closed = 1;
nodes = (
(99,0,o),
(106,18,o),
(107,32,cs),
(169,615,ls),
(176,681,o),
(200,718,o),
(236,718,cs),
(264,718,o),
(285,706,o),
(297,685,cs),
(303,676,o),
(317,670,o),
(333,678,cs),
(347,687,o),
(350,703,o),
(345,713,cs),
(322,748,o),
(286,772,o),
(238,772,cs),
(171,772,o),
(121,723,o),
(110,626,cs),
(48,33,ls),
(46,19,o),
(57,0,o),
(78,0,cs)
);
},
{
closed = 1;
nodes = (
(235,362,ls),
(259,362,o),
(264,375,o),
(264,390,cs),
(264,404,o),
(255,416,o),
(232,416,cs),
(27,416,ls),
(0,416,o),
(-6,404,o),
(-6,390,cs),
(-6,375,o),
(4,362,o),
(27,362,cs)
);
},
{
closed = 1;
nodes = (
(330,0,o),
(346,12,o),
(348,33,cs),
(385,380,ls),
(387,404,o),
(373,416,o),
(359,416,cs),
(343,416,o),
(328,405,o),
(325,384,cs),
(289,33,ls),
(286,11,o),
(300,0,o),
(316,0,cs)
);
},
{
closed = 1;
nodes = (
(394,508,o),
(414,530,o),
(414,555,cs),
(414,581,o),
(393,600,o),
(369,600,cs),
(344,600,o),
(323,580,o),
(323,555,cs),
(323,529,o),
(346,508,o),
(369,508,cs)
);
}
);
vertWidth = 0;
width = 451;
},
{
layerId = "6F3CF9BF-DB96-4F2C-A4AA-F3DDDD8E5607";
shapes = (
{
closed = 1;
nodes = (
(148,33,o),
(149,50,qs),
(178,323,l),
(244,323,ls),
(268,323,o),
(293,348,o),
(293,369,qs),
(293,391,o),
(267,416,o),
(243,416,qs),
(188,416,l),
(206,594,ls),
(216,679,o),
(248,679,qs),
(263,679,o),
(284,669,o),
(292,656,qs),
(300,643,o),
(331,630,o),
(350,640,qs),
(366,650,o),
(380,690,o),
(370,706,qs),
(351,736,o),
(290,772,o),
(250,772,qs),
(193,772,o),
(112,687,o),
(104,610,qs),
(84,416,l),
(45,416,ls),
(18,416,o),
(-9,391,o),
(-9,369,qs),
(-9,348,o),
(19,323,o),
(45,323,qs),
(74,323,l),
(46,56,ls),
(44,35,o),
(73,-1,o),
(99,-1,qs),
(124,-1,o)
);
},
{
closed = 1;
nodes = (
(473,546,o),
(473,569,qs),
(473,591,o),
(438,628,o),
(412,628,qs),
(388,628,o),
(353,592,o),
(353,568,qs),
(353,543,o),
(389,507,o),
(412,507,qs),
(438,507,o)
);
},
{
closed = 1;
nodes = (
(408,24,o),
(411,46,qs),
(444,362,ls),
(446,388,o),
(417,416,o),
(397,416,qs),
(378,416,o),
(345,394,o),
(343,371,qs),
(310,51,ls),
(307,25,o),
(337,0,o),
(358,0,qs),
(377,0,o)
);
}
);
userData = {
assembly = "NPUSHB[ ]	/* 56 values pushed */
40 1 0 1 1 76 0 4 4 3 97 0 3 3 14 77 6 1 1 1 2 97 5 1 2 2 17 77 7 1 0 0 24 0 78 1 0 39 37 33 31 29 27 17 15 12 10 6 4 0 42 1 42 8 7 22
CALL[ ]	/* CallFunction */";
};
vertWidth = 0;
width = 513;
}
);
unicode = 64257;
},
{
glyphname = zero;
layers = (
{
layerId = m01;
shapes = (
{
closed = 1;
nodes = (
(423,90,o),
(487,251,o),
(498,356,qs),
(503,404,o),
(493,515,o),
(451,612,o),
(369,674,o),
(302,674,qs),
(237,674,o),
(146,617,o),
(85,515,o),
(51,379,o),
(43,299,qs),
(35,219,o),
(72,82,o),
(165,-1,o),
(240,-1,qs),
(316,-1,o)
);
},
{
closed = 1;
nodes = (
(91,176,o),
(102,291,qs),
(106,329,o),
(120,418,o),
(145,505,o),
(188,576,o),
(254,619,o),
(302,619,qs),
(352,619,o),
(411,568,o),
(438,486,o),
(442,390,o),
(437,345,qs),
(431,290,o),
(403,186,o),
(356,102,o),
(288,53,o),
(241,53,qs),
(171,53,o)
);
}
);
userData = {
assembly = "NPUSHB[ ]	/* 40 values pushed */
0 1 0 3 2 1 3 105 5 1 2 2 0 97 4 1 0 0 24 0 78 19 18 1 0 29 27 18 36 19 36 10 8 0 17 1 17 6 7 22
CALL[ ]	/* CallFunction */";
};
vertWidth = 0;
width = 555;
},
{
layerId = "6F3CF9BF-DB96-4F2C-A4AA-F3DDDD8E5607";
shapes = (
{
closed = 1;
nodes = (
(447,84,o),
(520,239,o),
(532,346,qs),
(543,438,o),
(504,588,o),
(404,675,o),
(322,675,qs),
(244,675,o),
(128,586,o),
(57,427,o),
(45,320,qs),
(35,224,o),
(77,79,o),
(179,-1,o),
(257,-1,qs),
(332,-1,o)
);
},
{
closed = 1;
nodes = (
(138,209,o),
(149,314,qs),
(157,386,o),
(197,508,o),
(264,582,o),
(314,582,qs),
(361,582,o),
(417,519,o),
(435,413,o),
(428,346,qs),
(420,272,o),
(377,157,o),
(309,92,o),
(264,92,qs),
(202,92,o)
);
}
);
userData = {
assembly = "NPUSHB[ ]	/* 40 values pushed */
0 1 0 3 2 1 3 105 5 1 2 2 0 97 4 1 0 0 24 0 78 17 16 1 0 25 23 16 30 17 30 9 7 0 15 1 15 6 7 22
CALL[ ]	/* CallFunction */";
};
vertWidth = 0;
width = 592;
}
);
note = zero;
unicode = 48;
},
{
glyphname = one;
layers = (
{
layerId = m01;
shapes = (
{
closed = 1;
nodes = (
(97,12,o),
(99,27,qs),
(165,645,ls),
(167,660,o),
(149,675,o),
(138,675,qs),
(126,675,o),
(107,661,o),
(105,645,qs),
(39,33,ls),
(38,17,o),
(56,0,o),
(68,0,qs),
(79,0,o)
);
}
);
userData = {
assembly = "NPUSHB[ ]	/* 29 values pushed */
3 1 0 1 1 76 0 1 0 1 133 2 1 0 0 15 0 78 1 0 8 6 0 13 1 13 3 7 22
CALL[ ]	/* CallFunction */";
};
vertWidth = 0;
width = 216;
},
{
layerId = "6F3CF9BF-DB96-4F2C-A4AA-F3DDDD8E5607";
shapes = (
{
closed = 1;
nodes = (
(143,26,o),
(146,52,qs),
(205,621,ls),
(208,643,o),
(183,675,o),
(157,675,qs),
(134,675,o),
(105,647,o),
(102,625,qs),
(43,59,ls),
(40,31,o),
(66,0,o),
(91,0,qs),
(112,0,o)
);
}
);
userData = {
assembly = "NPUSHB[ ]	/* 23 values pushed */
0 1 0 1 133 2 1 0 0 15 0 78 1 0 8 6 0 13 1 13 3 7 22
CALL[ ]	/* CallFunction */";
};
vertWidth = 0;
width = 260;
}
);
note = one;
unicode = 49;
},
{
glyphname = two;
layers = (
{
layerId = m01;
shapes = (
{
closed = 1;
nodes = (
(380,59,o),
(362,59,qs),
(106,59,l),
(139,99,o),
(215,190,o),
(289,277,o),
(346,346,o),
(360,364,qs),
(449,476,o),
(449,550,qs),
(449,585,o),
(410,642,o),
(342,675,o),
(298,675,qs),
(242,675,o),
(128,630,o),
(90,598,qs),
(71,581,o),
(72,557,o),
(80,548,qs),
(87,540,o),
(115,539,o),
(137,557,qs),
(167,583,o),
(260,615,o),
(302,615,qs),
(340,615,o),
(390,585,o),
(390,556,qs),
(390,533,o),
(366,477,o),
(330,419,o),
(310,394,qs),
(302,383,o),
(254,326,o),
(189,247,o),
(116,159,o),
(47,75,o),
(21,42,qs),
(11,29,o),
(27,0,o),
(43,0,qs),
(366,0,ls),
(384,0,o),
(394,19,o),
(394,30,qs),
(394,41,o)
);
}
);
userData = {
assembly = "NPUSHB[ ]	/* 35 values pushed */
0 2 1 4 1 2 4 128 0 3 0 1 2 3 1 105 0 4 4 0 95 0 0 0 15 0 78 42 38 19 46 50 5 7 27
CALL[ ]	/* CallFunction */";
};
vertWidth = 0;
width = 493;
},
{
layerId = "6F3CF9BF-DB96-4F2C-A4AA-F3DDDD8E5607";
shapes = (
{
closed = 1;
nodes = (
(394,91,o),
(367,91,qs),
(173,91,l),
(212,139,o),
(292,233,o),
(355,309,o),
(370,328,qs),
(424,395,o),
(477,498,o),
(477,539,qs),
(477,600,o),
(388,675,o),
(313,675,qs),
(274,675,o),
(191,655,o),
(117,620,o),
(93,598,qs),
(70,577,o),
(71,542,o),
(82,527,qs),
(93,514,o),
(139,508,o),
(163,530,qs),
(192,556,o),
(272,583,o),
(308,583,qs),
(338,583,o),
(374,561,o),
(374,542,qs),
(374,516,o),
(331,440,o),
(302,404,qs),
(291,390,o),
(238,326,o),
(164,237,o),
(80,133,o),
(38,81,qs),
(15,52,o),
(35,0,o),
(64,0,qs),
(374,0,ls),
(398,0,o),
(422,26,o),
(422,46,qs),
(422,67,o)
);
}
);
userData = {
assembly = "NPUSHB[ ]	/* 26 values pushed */
0 2 0 1 3 2 1 105 0 3 3 0 95 0 0 0 15 0 78 41 43 44 50 4 7 26
CALL[ ]	/* CallFunction */";
};
vertWidth = 0;
width = 517;
}
);
note = two;
unicode = 50;
},
{
glyphname = three;
layers = (
{
layerId = m01;
shapes = (
{
closed = 1;
nodes = (
(36,40,qs),
(59,21,o),
(141,-1,o),
(188,-1,qs),
(295,-1,o),
(429,98,o),
(438,183,qs),
(445,253,o),
(369,351,o),
(292,369,q),
(364,384,o),
(437,461,o),
(443,518,qs),
(449,572,o),
(395,641,o),
(307,675,o),
(261,675,qs),
(212,675,o),
(120,647,o),
(99,633,qs),
(88,626,o),
(80,603,o),
(86,594,qs),
(92,584,o),
(118,583,o),
(131,589,qs),
(151,599,o),
(223,620,o),
(259,620,qs),
(295,620,o),
(354,601,o),
(388,557,o),
(384,519,qs),
(378,469,o),
(308,414,o),
(204,392,o),
(147,392,qs),
(137,392,o),
(124,377,o),
(124,366,qs),
(124,356,o),
(137,341,o),
(147,341,qs),
(212,341,o),
(322,314,o),
(385,245,o),
(379,182,qs),
(373,122,o),
(269,53,o),
(185,53,qs),
(151,53,o),
(88,70,o),
(68,84,qs),
(55,93,o),
(31,93,o),
(24,82,qs),
(10,61,o)
);
}
);
userData = {
assembly = "PUSHB[ ]	/* 6 values pushed */
46 1 2 3 1 76
MPPEM[ ]	/* MeasurePixelPerEm */
PUSHB[ ]	/* 1 value pushed */
10
LT[ ]	/* LessThan */
IF[ ]	/* If */
NPUSHB[ ]	/* 43 values pushed */
0 5 4 3 4 5 3 128 0 0 2 1 2 0 1 128 0 6 0 4 5 6 4 105 0 3 0 2 0 3 2 105 0 1 1 7 97 0 7 7 24 7 78
ELSE[ ]	/* Else */
MPPEM[ ]	/* MeasurePixelPerEm */
PUSHB[ ]	/* 1 value pushed */
20
LT[ ]	/* LessThan */
IF[ ]	/* If */
NPUSHB[ ]	/* 45 values pushed */
0 5 4 3 4 5 3 128 0 0 2 1 2 0 1 128 0 6 0 4 5 6 4 105 0 2 2 3 97 0 3 3 17 77 0 1 1 7 97 0 7 7 24 7 78
ELSE[ ]	/* Else */
NPUSHB[ ]	/* 43 values pushed */
0 5 4 3 4 5 3 128 0 0 2 1 2 0 1 128 0 6 0 4 5 6 4 105 0 3 0 2 0 3 2 105 0 1 1 7 97 0 7 7 24 7 78
EIF[ ]	/* EndIf */
EIF[ ]	/* EndIf */
NPUSHB[ ]	/* 11 values pushed */
43 38 19 38 36 37 35 17 8 7 30
CALL[ ]	/* CallFunction */";
};
vertWidth = 0;
width = 514;
},
{
layerId = "6F3CF9BF-DB96-4F2C-A4AA-F3DDDD8E5607";
shapes = (
{
closed = 1;
nodes = (
(25,60,o),
(46,43,qs),
(66,27,o),
(141,-1,o),
(199,-1,qs),
(320,-1,o),
(456,96,o),
(466,189,qs),
(472,247,o),
(406,344,o),
(342,367,q),
(397,383,o),
(466,450,o),
(471,500,qs),
(480,588,o),
(373,675,o),
(274,675,qs),
(211,675,o),
(125,645,o),
(106,629,qs),
(85,613,o),
(79,575,o),
(90,559,qs),
(101,544,o),
(143,546,o),
(162,556,qs),
(179,565,o),
(236,582,o),
(273,582,qs),
(321,582,o),
(372,545,o),
(368,506,qs),
(362,452,o),
(268,410,o),
(169,410,qs),
(151,410,o),
(121,385,o),
(121,363,qs),
(121,345,o),
(146,320,o),
(166,320,qs),
(206,320,o),
(281,311,o),
(338,286,o),
(368,236,o),
(364,194,qs),
(359,144,o),
(277,92,o),
(203,92,qs),
(163,92,o),
(117,106,o),
(100,118,qs),
(55,151,o),
(30,114,qs),
(20,97,o)
);
}
);
userData = {
assembly = "NPUSHB[ ]	/* 53 values pushed */
43 1 1 2 1 76 0 4 3 2 3 4 2 128 0 5 0 3 4 5 3 105 0 1 1 2 97 0 2 2 17 77 0 0 0 6 97 0 6 6 24 6 78 42 38 19 36 36 38 36 7 7 29
CALL[ ]	/* CallFunction */";
};
vertWidth = 0;
width = 541;
}
);
note = three;
unicode = 51;
},
{
glyphname = four;
layers = (
{
layerId = m01;
shapes = (
{
closed = 1;
nodes = (
(259,13,o),
(260,31,qs),
(282,233,l),
(396,233,ls),
(410,233,o),
(424,250,o),
(424,260,qs),
(424,271,o),
(405,286,o),
(391,286,qs),
(288,286,l),
(303,425,ls),
(305,441,o),
(291,460,o),
(277,460,qs),
(265,460,o),
(246,449,o),
(244,434,qs),
(228,286,l),
(103,286,l),
(140,642,ls),
(142,658,o),
(124,675,o),
(113,675,qs),
(103,675,o),
(83,663,o),
(81,646,qs),
(39,260,ls),
(38,250,o),
(53,233,o),
(63,233,qs),
(222,233,l),
(201,37,ls),
(199,19,o),
(217,0,o),
(228,0,qs),
(239,0,o)
);
}
);
userData = {
assembly = "NPUSHB[ ]	/* 54 values pushed */
34 1 0 1 1 76 0 2 4 2 133 0 4 3 4 133 5 1 3 6 1 1 0 3 1 104 7 1 0 0 15 0 78 1 0 33 31 27 25 22 20 17 16 13 11 6 4 0 36 1 36 8 7 22
CALL[ ]	/* CallFunction */";
};
vertWidth = 0;
width = 492;
},
{
layerId = "6F3CF9BF-DB96-4F2C-A4AA-F3DDDD8E5607";
shapes = (
{
closed = 1;
nodes = (
(206,61,ls),
(203,35,o),
(227,0,o),
(250,0,qs),
(299,0,o),
(304,46,qs),
(320,213,l),
(417,213,ls),
(438,213,o),
(464,240,o),
(464,260,qs),
(465,279,o),
(438,305,o),
(416,305,qs),
(329,305,l),
(340,418,ls),
(342,441,o),
(320,472,o),
(299,473,qs),
(277,474,o),
(246,455,o),
(244,432,qs),
(231,305,l),
(147,305,l),
(180,624,ls),
(183,649,o),
(151,675,o),
(132,675,qs),
(113,675,o),
(81,654,o),
(78,631,qs),
(39,262,ls),
(37,243,o),
(66,213,o),
(90,213,qs),
(222,213,l)
);
}
);
userData = {
assembly = "NPUSHB[ ]	/* 48 values pushed */
0 1 3 1 133 0 3 2 3 133 4 1 2 5 7 2 0 6 2 0 104 0 6 6 15 6 78 1 0 32 30 28 26 22 20 17 15 12 11 8 6 0 35 1 35 8 7 22
CALL[ ]	/* CallFunction */";
};
vertWidth = 0;
width = 532;
}
);
note = four;
unicode = 52;
},
{
glyphname = five;
layers = (
{
layerId = m01;
shapes = (
{
closed = 1;
nodes = (
(411,131,o),
(411,253,qs),
(411,330,o),
(307,416,o),
(217,416,qs),
(194,416,o),
(153,409,o),
(124,401,q),
(149,621,l),
(393,621,ls),
(411,621,o),
(425,637,o),
(425,647,qs),
(425,658,o),
(410,675,o),
(392,675,qs),
(131,675,ls),
(96,675,o),
(93,643,qs),
(63,368,ls),
(62,355,o),
(83,336,o),
(96,340,qs),
(137,351,o),
(187,361,o),
(209,361,qs),
(275,361,o),
(352,296,o),
(352,239,qs),
(352,183,o),
(307,99,o),
(229,53,o),
(179,53,qs),
(149,53,o),
(88,73,o),
(71,88,q),
(67,93,o),
(56,103,o),
(49,103,qs),
(38,103,o),
(20,86,o),
(20,74,qs),
(20,61,o),
(37,44,qs),
(57,25,o),
(128,-1,o),
(163,-1,qs),
(278,-1,o)
);
}
);
userData = {
assembly = "NPUSHB[ ]	/* 65 values pushed */
39 1 3 6 1 76 0 1 3 2 3 1 2 128 0 4 0 5 6 4 5 103 0 3 3 6 97 0 6 6 17 77 0 2 2 0 97 7 1 0 0 24 0 78 1 0 43 41 38 36 32 29 22 20 15 13 8 7 0 47 1 47 8 7 22
CALL[ ]	/* CallFunction */";
};
vertWidth = 0;
width = 481;
},
{
layerId = "6F3CF9BF-DB96-4F2C-A4AA-F3DDDD8E5607";
shapes = (
{
closed = 1;
nodes = (
(384,57,o),
(445,166,o),
(445,242,qs),
(445,332,o),
(345,423,o),
(249,423,qs),
(227,423,o),
(196,419,o),
(175,414,q),
(196,587,l),
(425,587,ls),
(451,587,o),
(474,612,o),
(474,631,qs),
(475,651,o),
(444,675,o),
(420,675,qs),
(166,675,ls),
(103,675,o),
(97,625,qs),
(68,367,ls),
(65,340,o),
(100,312,o),
(129,319,qs),
(159,327,o),
(201,334,o),
(231,334,qs),
(284,334,o),
(341,282,o),
(341,232,qs),
(341,166,o),
(269,88,o),
(214,88,qs),
(184,88,o),
(125,106,o),
(106,120,qs),
(97,126,o),
(76,139,o),
(66,139,qs),
(50,139,o),
(23,118,o),
(23,98,qs),
(23,77,o),
(47,54,qs),
(73,30,o),
(157,-1,o),
(200,-1,qs),
(274,-1,o)
);
}
);
userData = {
assembly = "NPUSHB[ ]	/* 65 values pushed */
38 1 3 6 1 76 0 1 3 2 3 1 2 128 0 4 0 5 6 4 5 103 0 3 3 6 97 0 6 6 23 77 0 2 2 0 97 7 1 0 0 24 0 78 1 0 42 40 37 35 31 28 21 19 15 13 9 7 0 47 1 47 8 7 22
CALL[ ]	/* CallFunction */";
};
vertWidth = 0;
width = 516;
}
);
note = five;
unicode = 53;
},
{
glyphname = six;
layers = (
{
layerId = m01;
shapes = (
{
closed = 1;
nodes = (
(350,63,o),
(401,170,o),
(403,233,qs),
(405,327,o),
(319,422,o),
(248,422,qs),
(201,422,o),
(128,379,o),
(106,343,q),
(123,475,o),
(214,622,o),
(280,621,qs),
(343,621,o),
(375,584,qs),
(383,576,o),
(409,572,o),
(419,583,qs),
(429,595,o),
(423,614,o),
(416,621,qs),
(394,647,o),
(328,675,o),
(291,675,qs),
(213,675,o),
(99,556,o),
(38,337,o),
(38,185,qs),
(38,132,o),
(84,47,o),
(159,-1,o),
(202,-1,qs),
(262,-1,o)
);
},
{
closed = 1;
nodes = (
(135,319,o),
(200,365,o),
(241,365,qs),
(292,365,o),
(347,294,o),
(343,226,qs),
(342,180,o),
(306,101,o),
(248,53,o),
(211,53,qs),
(162,53,o),
(97,129,o),
(97,187,qs),
(97,238,o)
);
}
);
userData = {
assembly = "NPUSHB[ ]	/* 55 values pushed */
22 1 4 5 1 76 0 1 0 2 3 1 2 105 0 5 5 3 97 0 3 3 23 77 0 4 4 0 97 6 1 0 0 24 0 78 1 0 43 41 36 34 26 24 20 18 9 7 0 31 1 31 7 7 22
CALL[ ]	/* CallFunction */";
};
vertWidth = 0;
width = 474;
},
{
layerId = "6F3CF9BF-DB96-4F2C-A4AA-F3DDDD8E5607";
shapes = (
{
closed = 1;
nodes = (
(379,58,o),
(433,164,o),
(435,234,qs),
(438,325,o),
(352,426,o),
(276,426,qs),
(237,426,o),
(172,393,o),
(151,364,q),
(168,468,o),
(246,583,o),
(302,583,qs),
(345,583,o),
(374,556,q),
(397,538,o),
(429,534,o),
(447,552,qs),
(480,585,o),
(444,618,qs),
(383,675,o),
(310,675,qs),
(226,675,o),
(104,560,o),
(39,348,o),
(39,201,qs),
(39,109,o),
(139,-1,o),
(220,-1,qs),
(284,-1,o)
);
},
{
closed = 1;
nodes = (
(203,333,o),
(251,333,qs),
(291,333,o),
(334,275,o),
(332,222,qs),
(330,165,o),
(273,92,o),
(227,92,qs),
(187,92,o),
(139,152,o),
(139,202,qs),
(139,258,o)
);
}
);
userData = {
assembly = "NPUSHB[ ]	/* 55 values pushed */
19 1 5 3 1 76 0 1 0 2 3 1 2 105 0 5 5 3 97 0 3 3 23 77 0 4 4 0 97 6 1 0 0 24 0 78 1 0 39 37 33 31 23 21 17 15 8 6 0 28 1 28 7 7 22
CALL[ ]	/* CallFunction */";
};
vertWidth = 0;
width = 506;
}
);
note = six;
unicode = 54;
},
{
glyphname = seven;
layers = (
{
layerId = m01;
shapes = (
{
closed = 1;
nodes = (
(119,15,o),
(127,31,qs),
(419,633,ls),
(427,650,o),
(414,675,o),
(397,675,qs),
(110,675,ls),
(94,675,o),
(80,659,o),
(81,649,qs),
(82,638,o),
(98,621,o),
(114,621,qs),
(348,621,l),
(72,55,ls),
(59,27,o),
(74,0,o),
(86,0,qs),
(97,0,o)
);
}
);
userData = {
assembly = "NPUSHB[ ]	/* 28 values pushed */
0 2 0 1 0 2 1 103 3 1 0 0 15 0 78 1 0 13 10 6 4 0 18 1 18 4 7 22
CALL[ ]	/* CallFunction */";
};
vertWidth = 0;
width = 450;
},
{
layerId = "6F3CF9BF-DB96-4F2C-A4AA-F3DDDD8E5607";
shapes = (
{
closed = 1;
nodes = (
(168,25,o),
(178,45,qs),
(449,607,ls),
(462,634,o),
(438,675,o),
(407,675,qs),
(127,675,ls),
(103,675,o),
(77,646,o),
(78,628,qs),
(79,609,o),
(110,582,o),
(133,582,qs),
(323,582,l),
(83,80,ls),
(70,54,o),
(79,18,o),
(106,0,o),
(120,0,qs),
(137,0,o)
);
}
);
userData = {
assembly = "NPUSHB[ ]	/* 28 values pushed */
0 2 0 1 0 2 1 103 3 1 0 0 15 0 78 1 0 14 11 7 5 0 19 1 19 4 7 22
CALL[ ]	/* CallFunction */";
};
vertWidth = 0;
width = 484;
}
);
note = seven;
unicode = 55;
},
{
glyphname = eight;
layers = (
{
layerId = m01;
shapes = (
{
closed = 1;
nodes = (
(326,43,o),
(372,123,o),
(372,177,qs),
(372,221,o),
(302,318,o),
(252,367,q),
(293,396,o),
(367,456,o),
(413,518,o),
(413,551,qs),
(413,601,o),
(364,654,o),
(288,675,o),
(248,675,qs),
(205,675,o),
(123,646,o),
(69,583,o),
(69,532,qs),
(69,500,o),
(103,441,o),
(150,390,o),
(169,373,q),
(118,334,o),
(58,269,o),
(33,201,o),
(33,158,qs),
(33,111,o),
(76,39,o),
(149,-1,o),
(194,-1,qs),
(246,-1,o)
);
},
{
closed = 1;
nodes = (
(164,604,o),
(219,620,o),
(245,620,qs),
(274,620,o),
(324,612,o),
(354,584,o),
(354,552,qs),
(354,529,o),
(314,481,o),
(250,432,o),
(213,405,q),
(200,418,o),
(160,459,o),
(128,509,o),
(128,536,qs),
(128,568,o)
);
},
{
closed = 1;
nodes = (
(93,106,o),
(93,163,qs),
(93,217,o),
(148,289,o),
(208,334,q),
(229,313,o),
(278,259,o),
(312,202,o),
(312,177,qs),
(312,113,o),
(249,53,o),
(197,53,qs),
(153,53,o)
);
}
);
userData = {
assembly = "NPUSHB[ ]	/* 49 values pushed */
54 35 24 8 4 3 2 1 76 0 1 0 2 3 1 2 105 5 1 3 3 0 97 4 1 0 0 24 0 78 48 47 1 0 47 59 48 59 44 42 17 15 0 30 1 30 6 7 22
CALL[ ]	/* CallFunction */";
};
vertWidth = 0;
width = 451;
},
{
layerId = "6F3CF9BF-DB96-4F2C-A4AA-F3DDDD8E5607";
shapes = (
{
closed = 1;
nodes = (
(360,54,o),
(401,138,o),
(401,183,qs),
(401,231,o),
(336,323,o),
(293,364,q),
(334,393,o),
(402,452,o),
(443,515,o),
(443,552,qs),
(443,594,o),
(387,649,o),
(303,675,o),
(261,675,qs),
(216,675,o),
(130,642,o),
(74,571,o),
(74,514,qs),
(74,468,o),
(126,397,o),
(151,374,q),
(87,320,o),
(32,218,o),
(32,171,qs),
(32,132,o),
(71,52,o),
(151,-1,o),
(211,-1,qs),
(275,-1,o)
);
},
{
closed = 1;
nodes = (
(198,576,o),
(242,591,o),
(264,591,qs),
(297,591,o),
(346,570,o),
(346,545,qs),
(346,531,o),
(312,494,o),
(257,451,o),
(225,428,q),
(205,448,o),
(170,493,o),
(170,520,qs),
(170,544,o)
);
},
{
closed = 1;
nodes = (
(130,131,o),
(130,173,qs),
(130,201,o),
(168,265,o),
(219,308,q),
(249,278,o),
(302,209,o),
(302,176,qs),
(302,136,o),
(252,87,o),
(211,87,qs),
(178,87,o)
);
}
);
userData = {
assembly = "NPUSHB[ ]	/* 49 values pushed */
49 32 22 7 4 3 2 1 76 0 1 0 2 3 1 2 105 5 1 3 3 0 97 4 1 0 0 24 0 78 44 43 1 0 43 54 44 54 40 38 15 13 0 28 1 28 6 7 22
CALL[ ]	/* CallFunction */";
};
vertWidth = 0;
width = 481;
}
);
note = eight;
unicode = 56;
},
{
glyphname = nine;
layers = (
{
layerId = m01;
shapes = (
{
closed = 1;
nodes = (
(327,12,o),
(328,25,qs),
(393,643,ls),
(395,659,o),
(377,675,o),
(365,675,qs),
(355,675,o),
(337,662,o),
(335,649,qs),
(335,648,l),
(318,660,o),
(268,675,o),
(240,675,qs),
(174,675,o),
(73,575,o),
(62,473,qs),
(57,421,o),
(82,322,o),
(145,259,o),
(196,259,qs),
(227,259,o),
(281,299,o),
(301,329,q),
(270,31,ls),
(268,17,o),
(287,0,o),
(299,0,qs),
(309,0,o)
);
},
{
closed = 1;
nodes = (
(196,620,o),
(239,620,qs),
(298,620,o),
(329,596,q),
(317,476,l),
(306,439,o),
(271,364,o),
(225,314,o),
(197,314,qs),
(166,314,o),
(130,359,o),
(117,431,o),
(121,469,qs),
(129,545,o)
);
}
);
userData = {
assembly = "NPUSHB[ ]	/* 54 values pushed */
17 1 5 2 37 4 2 4 5 2 76 3 1 2 0 5 4 2 5 105 0 4 0 1 0 4 1 105 6 1 0 0 15 0 78 1 0 40 38 33 31 22 20 15 13 8 6 0 27 1 27 7 7 22
CALL[ ]	/* CallFunction */";
};
vertWidth = 0;
width = 422;
},
{
layerId = "6F3CF9BF-DB96-4F2C-A4AA-F3DDDD8E5607";
shapes = (
{
closed = 1;
nodes = (
(360,27,o),
(362,48,qs),
(423,617,ls),
(426,644,o),
(400,675,o),
(375,675,qs),
(345,675,o),
(328,646,q),
(309,658,o),
(268,675,o),
(249,675,qs),
(203,675,o),
(123,630,o),
(69,539,o),
(62,471,qs),
(57,419,o),
(85,318,o),
(154,252,o),
(209,252,qs),
(230,252,o),
(268,272,o),
(284,289,q),
(259,54,ls),
(257,33,o),
(282,0,o),
(308,0,qs),
(330,0,o)
);
},
{
closed = 1;
nodes = (
(216,582,o),
(248,582,qs),
(266,582,o),
(296,573,o),
(313,557,q),
(310,531,l),
(292,432,o),
(246,345,o),
(210,345,qs),
(183,345,o),
(159,414,o),
(165,463,qs),
(172,526,o)
);
}
);
userData = {
assembly = "NPUSHB[ ]	/* 57 values pushed */
18 1 5 2 34 1 4 5 4 1 1 4 3 76 3 1 2 0 5 4 2 5 105 0 4 0 1 0 4 1 105 6 1 0 0 15 0 78 1 0 38 36 31 29 21 19 16 14 8 6 0 26 1 26 7 7 22
CALL[ ]	/* CallFunction */";
};
vertWidth = 0;
width = 470;
}
);
note = nine;
unicode = 57;
},
{
glyphname = .notdef;
layers = (
{
layerId = m01;
shapes = (
{
closed = 1;
nodes = (
(566,19,o),
(568,32,qs),
(650,800,ls),
(652,814,o),
(639,832,o),
(626,832,qs),
(156,832,ls),
(140,832,o),
(123,814,o),
(121,800,qs),
(39,32,ls),
(38,19,o),
(54,0,o),
(70,0,qs),
(541,0,ls),
(551,0,o)
);
},
{
closed = 1;
nodes = (
(587,778,l),
(511,53,l),
(102,53,l),
(179,778,l)
);
}
);
userData = {
assembly = "NPUSHB[ ]	/* 40 values pushed */
0 1 0 3 2 1 3 103 0 2 0 0 2 87 0 2 2 0 95 4 1 0 2 0 79 2 0 19 18 17 16 10 7 0 15 2 15 5 6 22
CALL[ ]	/* CallFunction */";
};
vertWidth = 0;
width = 684;
},
{
layerId = "6F3CF9BF-DB96-4F2C-A4AA-F3DDDD8E5607";
shapes = (
{
closed = 1;
nodes = (
(598,33,o),
(601,51,qs),
(679,788,ls),
(684,832,o),
(629,832,qs),
(172,832,ls),
(150,832,o),
(121,809,o),
(119,788,qs),
(41,51,ls),
(39,29,o),
(64,0,o),
(93,0,qs),
(551,0,ls),
(570,0,o)
);
},
{
closed = 1;
nodes = (
(569,735,l),
(501,97,l),
(150,97,l),
(219,735,l)
);
}
);
userData = {
assembly = "NPUSHB[ ]	/* 40 values pushed */
0 1 0 3 2 1 3 103 0 2 0 0 2 87 0 2 2 0 95 4 1 0 2 0 79 2 0 18 17 16 15 10 7 0 14 2 14 5 6 22
CALL[ ]	/* CallFunction */";
};
vertWidth = 0;
width = 715;
}
);
note = .notdef;
},
{
glyphname = period;
kernLeft = period;
kernRight = period;
layers = (
{
layerId = m01;
shapes = (
{
closed = 1;
nodes = (
(135,27,o),
(135,48,qs),
(135,68,o),
(108,94,o),
(88,94,qs),
(68,94,o),
(40,68,o),
(40,48,qs),
(40,27,o),
(68,-1,o),
(88,-1,qs),
(108,-1,o)
);
}
);
userData = {
assembly = "NPUSHB[ ]	/* 23 values pushed */
0 1 1 0 97 2 1 0 0 24 0 78 1 0 7 5 0 11 1 11 3 7 22
CALL[ ]	/* CallFunction */";
};
vertWidth = 0;
width = 249;
},
{
layerId = "6F3CF9BF-DB96-4F2C-A4AA-F3DDDD8E5607";
shapes = (
{
closed = 1;
nodes = (
(177,41,o),
(177,69,qs),
(177,96,o),
(137,135,o),
(110,135,qs),
(82,135,o),
(43,96,o),
(43,69,qs),
(43,41,o),
(82,0,o),
(110,0,qs),
(137,0,o)
);
}
);
userData = {
assembly = "NPUSHB[ ]	/* 23 values pushed */
0 1 1 0 97 2 1 0 0 15 0 78 1 0 7 5 0 11 1 11 3 7 22
CALL[ ]	/* CallFunction */";
};
vertWidth = 0;
width = 289;
}
);
note = period;
unicode = 46;
},
{
glyphname = comma;
kernLeft = period;
kernRight = period;
layers = (
{
layerId = m01;
shapes = (
{
closed = 1;
nodes = (
(85,-108,o),
(87,-90,qs),
(99,21,ls),
(101,40,o),
(84,58,o),
(72,59,qs),
(60,61,o),
(41,48,o),
(39,33,qs),
(27,-84,ls),
(26,-100,o),
(42,-118,o),
(52,-120,qs),
(63,-121,o)
);
}
);
userData = {
assembly = "PUSHB[ ]	/* 4 values pushed */
13 6 1 50
CALL[ ]	/* CallFunction */";
};
vertWidth = 0;
width = 215;
},
{
layerId = "6F3CF9BF-DB96-4F2C-A4AA-F3DDDD8E5607";
shapes = (
{
closed = 1;
nodes = (
(132,-81,o),
(138,-56,qs),
(164,64,ls),
(172,99,o),
(135,128,o),
(114,128,qs),
(94,129,o),
(64,109,o),
(58,84,qs),
(32,-37,ls),
(25,-71,o),
(60,-101,o),
(80,-101,qs),
(100,-101,o)
);
}
);
userData = {
assembly = "NPUSHB[ ]	/* 28 values pushed */
0 1 0 0 1 89 0 1 1 0 97 2 1 0 1 0 81 1 0 8 6 0 13 1 13 3 7 22
CALL[ ]	/* CallFunction */";
};
vertWidth = 0;
width = 280;
}
);
note = comma;
unicode = 44;
},
{
glyphname = colon;
kernLeft = colon;
kernRight = colon;
layers = (
{
layerId = m01;
shapes = (
{
closed = 1;
nodes = (
(169,354,o),
(169,374,qs),
(169,394,o),
(142,421,o),
(121,421,qs),
(101,421,o),
(74,394,o),
(74,374,qs),
(74,354,o),
(101,326,o),
(121,326,qs),
(142,326,o)
);
},
{
closed = 1;
nodes = (
(135,27,o),
(135,48,qs),
(135,68,o),
(108,94,o),
(88,94,qs),
(68,94,o),
(40,68,o),
(40,48,qs),
(40,27,o),
(68,-1,o),
(88,-1,qs),
(108,-1,o)
);
}
);
userData = {
assembly = "NPUSHB[ ]	/* 42 values pushed */
4 1 0 0 1 97 0 1 1 23 77 0 3 3 2 97 5 1 2 2 24 2 78 13 12 1 0 19 17 12 23 13 23 7 5 0 11 1 11 6 7 22
CALL[ ]	/* CallFunction */";
};
vertWidth = 0;
width = 252;
},
{
layerId = "6F3CF9BF-DB96-4F2C-A4AA-F3DDDD8E5607";
shapes = (
{
closed = 1;
nodes = (
(208,331,o),
(208,359,qs),
(208,386,o),
(168,425,o),
(140,425,qs),
(112,425,o),
(74,386,o),
(74,359,qs),
(74,331,o),
(112,290,o),
(140,290,qs),
(168,290,o)
);
},
{
closed = 1;
nodes = (
(177,41,o),
(177,69,qs),
(177,96,o),
(137,135,o),
(110,135,qs),
(82,135,o),
(43,96,o),
(43,69,qs),
(43,41,o),
(82,0,o),
(110,0,qs),
(137,0,o)
);
}
);
userData = {
assembly = "NPUSHB[ ]	/* 42 values pushed */
4 1 0 0 1 97 0 1 1 23 77 0 3 3 2 97 5 1 2 2 15 2 78 13 12 1 0 19 17 12 23 13 23 7 5 0 11 1 11 6 7 22
CALL[ ]	/* CallFunction */";
};
vertWidth = 0;
width = 290;
}
);
note = colon;
unicode = 58;
},
{
glyphname = semicolon;
kernLeft = colon;
kernRight = colon;
layers = (
{
layerId = m01;
shapes = (
{
closed = 1;
nodes = (
(169,354,o),
(169,374,qs),
(169,394,o),
(142,421,o),
(121,421,qs),
(101,421,o),
(74,394,o),
(74,374,qs),
(74,354,o),
(101,326,o),
(121,326,qs),
(142,326,o)
);
},
{
closed = 1;
nodes = (
(102,-108,o),
(103,-93,qs),
(118,25,ls),
(120,41,o),
(102,58,o),
(90,59,qs),
(78,61,o),
(59,48,o),
(57,33,qs),
(45,-84,ls),
(44,-101,o),
(62,-120,o),
(74,-121,qs),
(84,-122,o)
);
}
);
userData = {
assembly = "NPUSHB[ ]	/* 28 values pushed */
23 15 2 0 73 2 1 0 0 1 97 0 1 1 23 0 78 1 0 7 5 0 11 1 11 3 7 22
CALL[ ]	/* CallFunction */";
};
vertWidth = 0;
width = 252;
},
{
layerId = "6F3CF9BF-DB96-4F2C-A4AA-F3DDDD8E5607";
shapes = (
{
closed = 1;
nodes = (
(208,331,o),
(208,359,qs),
(208,386,o),
(168,425,o),
(140,425,qs),
(112,425,o),
(74,386,o),
(74,359,qs),
(74,331,o),
(112,290,o),
(140,290,qs),
(168,290,o)
);
},
{
closed = 1;
nodes = (
(136,-81,o),
(142,-57,qs),
(169,65,ls),
(177,99,o),
(140,128,o),
(119,128,qs),
(99,129,o),
(69,109,o),
(63,84,qs),
(37,-37,ls),
(29,-71,o),
(65,-101,o),
(86,-101,qs),
(105,-101,o)
);
}
);
userData = {
assembly = "NPUSHB[ ]	/* 39 values pushed */
0 3 5 1 2 3 2 101 4 1 0 0 1 97 0 1 1 23 0 78 13 12 1 0 20 18 12 25 13 25 7 5 0 11 1 11 6 7 22
CALL[ ]	/* CallFunction */";
};
vertWidth = 0;
width = 290;
}
);
note = semicolon;
unicode = 59;
},
{
glyphname = ellipsis;
layers = (
{
layerId = m01;
shapes = (
{
closed = 1;
nodes = (
(135,27,o),
(135,48,qs),
(135,68,o),
(108,94,o),
(88,94,qs),
(68,94,o),
(40,68,o),
(40,48,qs),
(40,27,o),
(68,-1,o),
(88,-1,qs),
(108,-1,o)
);
},
{
closed = 1;
nodes = (
(302,27,o),
(302,48,qs),
(302,68,o),
(275,94,o),
(254,94,qs),
(234,94,o),
(207,68,o),
(207,48,qs),
(207,27,o),
(234,-1,o),
(254,-1,qs),
(275,-1,o)
);
},
{
closed = 1;
nodes = (
(468,27,o),
(468,48,qs),
(468,68,o),
(441,94,o),
(421,94,qs),
(400,94,o),
(373,68,o),
(373,48,qs),
(373,27,o),
(400,-1,o),
(421,-1,qs),
(441,-1,o)
);
}
);
userData = {
assembly = "NPUSHB[ ]	/* 45 values pushed */
5 3 2 1 1 0 97 8 4 7 2 6 5 0 0 24 0 78 25 24 13 12 1 0 31 29 24 35 25 35 19 17 12 23 13 23 7 5 0 11 1 11 9 7 22
CALL[ ]	/* CallFunction */";
};
vertWidth = 0;
width = 582;
},
{
layerId = "6F3CF9BF-DB96-4F2C-A4AA-F3DDDD8E5607";
shapes = (
{
closed = 1;
nodes = (
(177,41,o),
(177,69,qs),
(177,96,o),
(137,135,o),
(110,135,qs),
(82,135,o),
(43,96,o),
(43,69,qs),
(43,41,o),
(82,0,o),
(110,0,qs),
(137,0,o)
);
},
{
closed = 1;
nodes = (
(387,41,o),
(387,69,qs),
(387,96,o),
(347,135,o),
(319,135,qs),
(291,135,o),
(253,96,o),
(253,69,qs),
(253,41,o),
(291,0,o),
(319,0,qs),
(347,0,o)
);
},
{
closed = 1;
nodes = (
(597,41,o),
(597,69,qs),
(597,96,o),
(556,135,o),
(530,135,qs),
(501,135,o),
(462,96,o),
(462,69,qs),
(462,41,o),
(501,0,o),
(530,0,qs),
(556,0,o)
);
}
);
userData = {
assembly = "NPUSHB[ ]	/* 45 values pushed */
5 3 2 1 1 0 97 8 4 7 2 6 5 0 0 15 0 78 25 24 13 12 1 0 31 29 24 35 25 35 19 17 12 23 13 23 7 5 0 11 1 11 9 7 22
CALL[ ]	/* CallFunction */";
};
vertWidth = 0;
width = 710;
}
);
note = ellipsis;
unicode = 8230;
},
{
glyphname = exclam;
layers = (
{
layerId = m01;
shapes = (
{
closed = 1;
nodes = (
(148,223,o),
(150,240,qs),
(204,747,ls),
(206,760,o),
(190,772,o),
(179,772,qs),
(168,772,o),
(146,760,o),
(144,747,qs),
(89,240,ls),
(88,225,o),
(106,209,o),
(116,208,qs),
(127,207,o)
);
},
{
closed = 1;
nodes = (
(146,27,o),
(146,48,qs),
(146,68,o),
(119,94,o),
(99,94,qs),
(78,94,o),
(51,68,o),
(51,48,qs),
(51,27,o),
(78,-1,o),
(99,-1,qs),
(119,-1,o)
);
}
);
userData = {
assembly = "NPUSHB[ ]	/* 35 values pushed */
3 1 2 0 1 76 0 0 0 14 77 0 2 2 1 97 3 1 1 1 24 1 78 15 14 21 19 14 25 15 25 38 4 7 23
CALL[ ]	/* CallFunction */";
};
vertWidth = 0;
width = 270;
},
{
layerId = "6F3CF9BF-DB96-4F2C-A4AA-F3DDDD8E5607";
shapes = (
{
closed = 1;
nodes = (
(199,228,o),
(202,255,qs),
(252,710,ls),
(256,744,o),
(229,772,o),
(205,772,qs),
(190,772,o),
(153,754,o),
(150,728,qs),
(99,273,ls),
(96,238,o),
(124,209,o),
(147,209,qs),
(162,209,o)
);
},
{
closed = 1;
nodes = (
(197,41,o),
(197,69,qs),
(197,96,o),
(157,135,o),
(130,135,qs),
(102,135,o),
(63,96,o),
(63,69,qs),
(63,41,o),
(102,0,o),
(130,0,qs),
(157,0,o)
);
}
);
userData = {
assembly = "NPUSHB[ ]	/* 45 values pushed */
4 1 0 1 3 1 0 3 128 0 1 1 14 77 0 3 3 2 97 5 1 2 2 15 2 78 15 14 1 0 21 19 14 25 15 25 8 6 0 13 1 13 6 7 22
CALL[ ]	/* CallFunction */";
};
vertWidth = 0;
width = 330;
}
);
note = exclam;
unicode = 33;
},
